%FSLAX46Y46*%
G04 Gerber Fmt 4.6, Leading zero omitted, Abs format (unit mm)*
G04 Created by KiCad (PCBNEW (2014-08-08 BZR 5060)-product) date tir 19 aug 2014 17:24:29 CEST*
%MOMM*%
G01*
G04 APERTURE LIST*
%ADD10C,0.150000*%
%ADD11O,1.905000X1.651000*%
%ADD12R,1.600000X1.500000*%
%ADD13R,1.300000X1.100000*%
%ADD14R,0.400000X3.000000*%
%ADD15R,1.800000X1.900000*%
%ADD16R,2.100000X1.900000*%
%ADD17C,1.300000*%
%ADD18R,2.900000X2.400000*%
%ADD19C,5.715000*%
%ADD20R,1.650000X1.700000*%
%ADD21O,1.727200X1.727200*%
%ADD22C,1.270000*%
%ADD23C,0.889000*%
%ADD24C,1.016000*%
%ADD25C,0.254000*%
%ADD26C,0.381000*%
%ADD27C,0.304800*%
%ADD28C,0.228600*%
G04 APERTURE END LIST*
D10*
D11*
X73152000Y-40386000D03*
X73152000Y-42926000D03*
X73152000Y-45466000D03*
X73152000Y-48006000D03*
X73152000Y-50546000D03*
X73152000Y-53086000D03*
X73152000Y-55626000D03*
X73152000Y-58166000D03*
X73152000Y-60706000D03*
X73152000Y-63246000D03*
X73152000Y-65786000D03*
X73152000Y-68326000D03*
D12*
X68326000Y-40142000D03*
X68326000Y-47742000D03*
X62484000Y-40142000D03*
X62484000Y-47742000D03*
D10*
G36*
X63414975Y-63257094D02*
X63097074Y-62939193D01*
X64510567Y-61525700D01*
X64828468Y-61843601D01*
X63414975Y-63257094D01*
X63414975Y-63257094D01*
G37*
G36*
X62849219Y-62691338D02*
X62531318Y-62373437D01*
X63944811Y-60959944D01*
X64262712Y-61277845D01*
X62849219Y-62691338D01*
X62849219Y-62691338D01*
G37*
G36*
X62283463Y-62125582D02*
X61965562Y-61807681D01*
X63379055Y-60394188D01*
X63696956Y-60712089D01*
X62283463Y-62125582D01*
X62283463Y-62125582D01*
G37*
G36*
X61717706Y-61559826D02*
X61399805Y-61241925D01*
X62813298Y-59828432D01*
X63131199Y-60146333D01*
X61717706Y-61559826D01*
X61717706Y-61559826D01*
G37*
G36*
X61151950Y-60994070D02*
X60834049Y-60676169D01*
X62247542Y-59262676D01*
X62565443Y-59580577D01*
X61151950Y-60994070D01*
X61151950Y-60994070D01*
G37*
G36*
X60586194Y-60428313D02*
X60268293Y-60110412D01*
X61681786Y-58696919D01*
X61999687Y-59014820D01*
X60586194Y-60428313D01*
X60586194Y-60428313D01*
G37*
G36*
X60020438Y-59862557D02*
X59702537Y-59544656D01*
X61116030Y-58131163D01*
X61433931Y-58449064D01*
X60020438Y-59862557D01*
X60020438Y-59862557D01*
G37*
G36*
X59454682Y-59296801D02*
X59136781Y-58978900D01*
X60550274Y-57565407D01*
X60868175Y-57883308D01*
X59454682Y-59296801D01*
X59454682Y-59296801D01*
G37*
G36*
X66222203Y-52536464D02*
X65904302Y-52218563D01*
X67317795Y-50805070D01*
X67635696Y-51122971D01*
X66222203Y-52536464D01*
X66222203Y-52536464D01*
G37*
G36*
X70191476Y-56505738D02*
X69873575Y-56187837D01*
X71287068Y-54774344D01*
X71604969Y-55092245D01*
X70191476Y-56505738D01*
X70191476Y-56505738D01*
G37*
G36*
X69616740Y-55931001D02*
X69298839Y-55613100D01*
X70712332Y-54199607D01*
X71030233Y-54517508D01*
X69616740Y-55931001D01*
X69616740Y-55931001D01*
G37*
G36*
X69042003Y-55356265D02*
X68724102Y-55038364D01*
X70137595Y-53624871D01*
X70455496Y-53942772D01*
X69042003Y-55356265D01*
X69042003Y-55356265D01*
G37*
G36*
X68485227Y-54799489D02*
X68167326Y-54481588D01*
X69580819Y-53068095D01*
X69898720Y-53385996D01*
X68485227Y-54799489D01*
X68485227Y-54799489D01*
G37*
G36*
X67910491Y-54224753D02*
X67592590Y-53906852D01*
X69006083Y-52493359D01*
X69323984Y-52811260D01*
X67910491Y-54224753D01*
X67910491Y-54224753D01*
G37*
G36*
X67353715Y-53667977D02*
X67035814Y-53350076D01*
X68449307Y-51936583D01*
X68767208Y-52254484D01*
X67353715Y-53667977D01*
X67353715Y-53667977D01*
G37*
G36*
X66778979Y-53093240D02*
X66461078Y-52775339D01*
X67874571Y-51361846D01*
X68192472Y-51679747D01*
X66778979Y-53093240D01*
X66778979Y-53093240D01*
G37*
G36*
X60543090Y-56473409D02*
X59129597Y-55059916D01*
X59447498Y-54742015D01*
X60860991Y-56155508D01*
X60543090Y-56473409D01*
X60543090Y-56473409D01*
G37*
G36*
X61107050Y-55909449D02*
X59693557Y-54495956D01*
X60011458Y-54178055D01*
X61424951Y-55591548D01*
X61107050Y-55909449D01*
X61107050Y-55909449D01*
G37*
G36*
X61674602Y-55341896D02*
X60261109Y-53928403D01*
X60579010Y-53610502D01*
X61992503Y-55023995D01*
X61674602Y-55341896D01*
X61674602Y-55341896D01*
G37*
G36*
X62238562Y-54777936D02*
X60825069Y-53364443D01*
X61142970Y-53046542D01*
X62556463Y-54460035D01*
X62238562Y-54777936D01*
X62238562Y-54777936D01*
G37*
G36*
X62806114Y-54210384D02*
X61392621Y-52796891D01*
X61710522Y-52478990D01*
X63124015Y-53892483D01*
X62806114Y-54210384D01*
X62806114Y-54210384D01*
G37*
G36*
X63370074Y-53646424D02*
X61956581Y-52232931D01*
X62274482Y-51915030D01*
X63687975Y-53328523D01*
X63370074Y-53646424D01*
X63370074Y-53646424D01*
G37*
G36*
X63937627Y-53078872D02*
X62524134Y-51665379D01*
X62842035Y-51347478D01*
X64255528Y-52760971D01*
X63937627Y-53078872D01*
X63937627Y-53078872D01*
G37*
G36*
X64501587Y-52514912D02*
X63088094Y-51101419D01*
X63405995Y-50783518D01*
X64819488Y-52197011D01*
X64501587Y-52514912D01*
X64501587Y-52514912D01*
G37*
G36*
X67335755Y-63258890D02*
X65922262Y-61845397D01*
X66240163Y-61527496D01*
X67653656Y-62940989D01*
X67335755Y-63258890D01*
X67335755Y-63258890D01*
G37*
G36*
X67892531Y-62702114D02*
X66479038Y-61288621D01*
X66796939Y-60970720D01*
X68210432Y-62384213D01*
X67892531Y-62702114D01*
X67892531Y-62702114D01*
G37*
G36*
X68467268Y-62127378D02*
X67053775Y-60713885D01*
X67371676Y-60395984D01*
X68785169Y-61809477D01*
X68467268Y-62127378D01*
X68467268Y-62127378D01*
G37*
G36*
X69024044Y-61570602D02*
X67610551Y-60157109D01*
X67928452Y-59839208D01*
X69341945Y-61252701D01*
X69024044Y-61570602D01*
X69024044Y-61570602D01*
G37*
G36*
X69580819Y-61013826D02*
X68167326Y-59600333D01*
X68485227Y-59282432D01*
X69898720Y-60695925D01*
X69580819Y-61013826D01*
X69580819Y-61013826D01*
G37*
G36*
X70155556Y-60439090D02*
X68742063Y-59025597D01*
X69059964Y-58707696D01*
X70473457Y-60121189D01*
X70155556Y-60439090D01*
X70155556Y-60439090D01*
G37*
G36*
X70730292Y-59864353D02*
X69316799Y-58450860D01*
X69634700Y-58132959D01*
X71048193Y-59546452D01*
X70730292Y-59864353D01*
X70730292Y-59864353D01*
G37*
G36*
X71305029Y-59289617D02*
X69891536Y-57876124D01*
X70209437Y-57558223D01*
X71622930Y-58971716D01*
X71305029Y-59289617D01*
X71305029Y-59289617D01*
G37*
D13*
X65430400Y-45676200D03*
X65430400Y-43376200D03*
D14*
X66705000Y-35242000D03*
X66055000Y-35242000D03*
X65405000Y-35242000D03*
X64755000Y-35242000D03*
X64105000Y-35242000D03*
D15*
X66555000Y-31742000D03*
X64255000Y-31742000D03*
D16*
X68992500Y-31742000D03*
X61817500Y-31742000D03*
D17*
X62980000Y-34742000D03*
X67830000Y-34742000D03*
D18*
X62855000Y-66827400D03*
X67955000Y-66827400D03*
D19*
X58905000Y-72263000D03*
X71905000Y-72263000D03*
X58905000Y-36263000D03*
X71905000Y-36263000D03*
D20*
X62870000Y-73441000D03*
D21*
X62870000Y-70901000D03*
X65410000Y-73441000D03*
X65410000Y-70901000D03*
X67950000Y-73441000D03*
X67950000Y-70901000D03*
D11*
X57658000Y-68326000D03*
X57658000Y-65786000D03*
X57658000Y-63246000D03*
X57658000Y-60706000D03*
X57658000Y-58166000D03*
X57658000Y-55626000D03*
X57658000Y-53086000D03*
X57658000Y-50546000D03*
X57658000Y-48006000D03*
X57658000Y-45466000D03*
X57658000Y-42926000D03*
X57658000Y-40386000D03*
X27178000Y-68326000D03*
X27178000Y-65786000D03*
X27178000Y-63246000D03*
X27178000Y-60706000D03*
X27178000Y-58166000D03*
X27178000Y-55626000D03*
X27178000Y-53086000D03*
X27178000Y-50546000D03*
X27178000Y-48006000D03*
X27178000Y-45466000D03*
X27178000Y-42926000D03*
X27178000Y-40386000D03*
D20*
X32390000Y-73441000D03*
D21*
X32390000Y-70901000D03*
X34930000Y-73441000D03*
X34930000Y-70901000D03*
X37470000Y-73441000D03*
X37470000Y-70901000D03*
D19*
X41425000Y-36263000D03*
X28425000Y-36263000D03*
X41425000Y-72263000D03*
X28425000Y-72263000D03*
D18*
X32375000Y-66827400D03*
X37475000Y-66827400D03*
D14*
X36225000Y-35242000D03*
X35575000Y-35242000D03*
X34925000Y-35242000D03*
X34275000Y-35242000D03*
X33625000Y-35242000D03*
D15*
X36075000Y-31742000D03*
X33775000Y-31742000D03*
D16*
X38512500Y-31742000D03*
X31337500Y-31742000D03*
D17*
X32500000Y-34742000D03*
X37350000Y-34742000D03*
D13*
X34950400Y-45676200D03*
X34950400Y-43376200D03*
D10*
G36*
X32934975Y-63257094D02*
X32617074Y-62939193D01*
X34030567Y-61525700D01*
X34348468Y-61843601D01*
X32934975Y-63257094D01*
X32934975Y-63257094D01*
G37*
G36*
X32369219Y-62691338D02*
X32051318Y-62373437D01*
X33464811Y-60959944D01*
X33782712Y-61277845D01*
X32369219Y-62691338D01*
X32369219Y-62691338D01*
G37*
G36*
X31803463Y-62125582D02*
X31485562Y-61807681D01*
X32899055Y-60394188D01*
X33216956Y-60712089D01*
X31803463Y-62125582D01*
X31803463Y-62125582D01*
G37*
G36*
X31237706Y-61559826D02*
X30919805Y-61241925D01*
X32333298Y-59828432D01*
X32651199Y-60146333D01*
X31237706Y-61559826D01*
X31237706Y-61559826D01*
G37*
G36*
X30671950Y-60994070D02*
X30354049Y-60676169D01*
X31767542Y-59262676D01*
X32085443Y-59580577D01*
X30671950Y-60994070D01*
X30671950Y-60994070D01*
G37*
G36*
X30106194Y-60428313D02*
X29788293Y-60110412D01*
X31201786Y-58696919D01*
X31519687Y-59014820D01*
X30106194Y-60428313D01*
X30106194Y-60428313D01*
G37*
G36*
X29540438Y-59862557D02*
X29222537Y-59544656D01*
X30636030Y-58131163D01*
X30953931Y-58449064D01*
X29540438Y-59862557D01*
X29540438Y-59862557D01*
G37*
G36*
X28974682Y-59296801D02*
X28656781Y-58978900D01*
X30070274Y-57565407D01*
X30388175Y-57883308D01*
X28974682Y-59296801D01*
X28974682Y-59296801D01*
G37*
G36*
X35742203Y-52536464D02*
X35424302Y-52218563D01*
X36837795Y-50805070D01*
X37155696Y-51122971D01*
X35742203Y-52536464D01*
X35742203Y-52536464D01*
G37*
G36*
X39711476Y-56505738D02*
X39393575Y-56187837D01*
X40807068Y-54774344D01*
X41124969Y-55092245D01*
X39711476Y-56505738D01*
X39711476Y-56505738D01*
G37*
G36*
X39136740Y-55931001D02*
X38818839Y-55613100D01*
X40232332Y-54199607D01*
X40550233Y-54517508D01*
X39136740Y-55931001D01*
X39136740Y-55931001D01*
G37*
G36*
X38562003Y-55356265D02*
X38244102Y-55038364D01*
X39657595Y-53624871D01*
X39975496Y-53942772D01*
X38562003Y-55356265D01*
X38562003Y-55356265D01*
G37*
G36*
X38005227Y-54799489D02*
X37687326Y-54481588D01*
X39100819Y-53068095D01*
X39418720Y-53385996D01*
X38005227Y-54799489D01*
X38005227Y-54799489D01*
G37*
G36*
X37430491Y-54224753D02*
X37112590Y-53906852D01*
X38526083Y-52493359D01*
X38843984Y-52811260D01*
X37430491Y-54224753D01*
X37430491Y-54224753D01*
G37*
G36*
X36873715Y-53667977D02*
X36555814Y-53350076D01*
X37969307Y-51936583D01*
X38287208Y-52254484D01*
X36873715Y-53667977D01*
X36873715Y-53667977D01*
G37*
G36*
X36298979Y-53093240D02*
X35981078Y-52775339D01*
X37394571Y-51361846D01*
X37712472Y-51679747D01*
X36298979Y-53093240D01*
X36298979Y-53093240D01*
G37*
G36*
X30063090Y-56473409D02*
X28649597Y-55059916D01*
X28967498Y-54742015D01*
X30380991Y-56155508D01*
X30063090Y-56473409D01*
X30063090Y-56473409D01*
G37*
G36*
X30627050Y-55909449D02*
X29213557Y-54495956D01*
X29531458Y-54178055D01*
X30944951Y-55591548D01*
X30627050Y-55909449D01*
X30627050Y-55909449D01*
G37*
G36*
X31194602Y-55341896D02*
X29781109Y-53928403D01*
X30099010Y-53610502D01*
X31512503Y-55023995D01*
X31194602Y-55341896D01*
X31194602Y-55341896D01*
G37*
G36*
X31758562Y-54777936D02*
X30345069Y-53364443D01*
X30662970Y-53046542D01*
X32076463Y-54460035D01*
X31758562Y-54777936D01*
X31758562Y-54777936D01*
G37*
G36*
X32326114Y-54210384D02*
X30912621Y-52796891D01*
X31230522Y-52478990D01*
X32644015Y-53892483D01*
X32326114Y-54210384D01*
X32326114Y-54210384D01*
G37*
G36*
X32890074Y-53646424D02*
X31476581Y-52232931D01*
X31794482Y-51915030D01*
X33207975Y-53328523D01*
X32890074Y-53646424D01*
X32890074Y-53646424D01*
G37*
G36*
X33457627Y-53078872D02*
X32044134Y-51665379D01*
X32362035Y-51347478D01*
X33775528Y-52760971D01*
X33457627Y-53078872D01*
X33457627Y-53078872D01*
G37*
G36*
X34021587Y-52514912D02*
X32608094Y-51101419D01*
X32925995Y-50783518D01*
X34339488Y-52197011D01*
X34021587Y-52514912D01*
X34021587Y-52514912D01*
G37*
G36*
X36855755Y-63258890D02*
X35442262Y-61845397D01*
X35760163Y-61527496D01*
X37173656Y-62940989D01*
X36855755Y-63258890D01*
X36855755Y-63258890D01*
G37*
G36*
X37412531Y-62702114D02*
X35999038Y-61288621D01*
X36316939Y-60970720D01*
X37730432Y-62384213D01*
X37412531Y-62702114D01*
X37412531Y-62702114D01*
G37*
G36*
X37987268Y-62127378D02*
X36573775Y-60713885D01*
X36891676Y-60395984D01*
X38305169Y-61809477D01*
X37987268Y-62127378D01*
X37987268Y-62127378D01*
G37*
G36*
X38544044Y-61570602D02*
X37130551Y-60157109D01*
X37448452Y-59839208D01*
X38861945Y-61252701D01*
X38544044Y-61570602D01*
X38544044Y-61570602D01*
G37*
G36*
X39100819Y-61013826D02*
X37687326Y-59600333D01*
X38005227Y-59282432D01*
X39418720Y-60695925D01*
X39100819Y-61013826D01*
X39100819Y-61013826D01*
G37*
G36*
X39675556Y-60439090D02*
X38262063Y-59025597D01*
X38579964Y-58707696D01*
X39993457Y-60121189D01*
X39675556Y-60439090D01*
X39675556Y-60439090D01*
G37*
G36*
X40250292Y-59864353D02*
X38836799Y-58450860D01*
X39154700Y-58132959D01*
X40568193Y-59546452D01*
X40250292Y-59864353D01*
X40250292Y-59864353D01*
G37*
G36*
X40825029Y-59289617D02*
X39411536Y-57876124D01*
X39729437Y-57558223D01*
X41142930Y-58971716D01*
X40825029Y-59289617D01*
X40825029Y-59289617D01*
G37*
D12*
X32004000Y-40142000D03*
X32004000Y-47742000D03*
X37846000Y-40142000D03*
X37846000Y-47742000D03*
D11*
X42672000Y-40386000D03*
X42672000Y-42926000D03*
X42672000Y-45466000D03*
X42672000Y-48006000D03*
X42672000Y-50546000D03*
X42672000Y-53086000D03*
X42672000Y-55626000D03*
X42672000Y-58166000D03*
X42672000Y-60706000D03*
X42672000Y-63246000D03*
X42672000Y-65786000D03*
X42672000Y-68326000D03*
D22*
X32639000Y-37719000D03*
D23*
X36830000Y-54483000D03*
D22*
X31877000Y-58293000D03*
D24*
X40120000Y-39641000D03*
X38930000Y-41881000D03*
X69410000Y-41881000D03*
X70600000Y-39641000D03*
D22*
X62357000Y-58293000D03*
D23*
X67310000Y-54483000D03*
D22*
X63119000Y-37719000D03*
D23*
X36068000Y-48895000D03*
D24*
X35661600Y-46964600D03*
D23*
X33782000Y-48641000D03*
D22*
X37211000Y-37719000D03*
D23*
X38370000Y-56281000D03*
D22*
X30099000Y-63246000D03*
D23*
X30353000Y-69215000D03*
D22*
X41050000Y-49291000D03*
X71530000Y-49291000D03*
D23*
X60833000Y-69215000D03*
D22*
X60579000Y-63246000D03*
D23*
X68850000Y-56281000D03*
D22*
X67691000Y-37719000D03*
D23*
X64262000Y-48641000D03*
D24*
X66141600Y-46964600D03*
D23*
X66548000Y-48895000D03*
X31902400Y-62865000D03*
X34290000Y-65405000D03*
X64770000Y-65405000D03*
X62382400Y-62865000D03*
X34467800Y-63119000D03*
X35433000Y-65405000D03*
X65913000Y-65405000D03*
X64947800Y-63119000D03*
X37460000Y-68781000D03*
X67940000Y-68781000D03*
X39878000Y-66929000D03*
X38912800Y-57302400D03*
X69392800Y-57302400D03*
X70358000Y-66929000D03*
X35440000Y-69651000D03*
X65920000Y-69651000D03*
X32639000Y-68961000D03*
X28956000Y-67310000D03*
X32258000Y-48768000D03*
X32258000Y-54991000D03*
X62738000Y-54991000D03*
X62738000Y-48768000D03*
X59436000Y-67310000D03*
X63119000Y-68961000D03*
X40513000Y-44831000D03*
X70993000Y-44831000D03*
X33820000Y-41241000D03*
X29591000Y-41529000D03*
X30360000Y-47031000D03*
X60840000Y-47031000D03*
X60071000Y-41529000D03*
X64300000Y-41241000D03*
X34544000Y-42443400D03*
X65024000Y-42443400D03*
X30988000Y-56515000D03*
X61468000Y-56515000D03*
X29630000Y-61971000D03*
X34544000Y-60960000D03*
X65024000Y-60960000D03*
X60110000Y-61971000D03*
X37846000Y-48768000D03*
X34544000Y-54229000D03*
X65024000Y-54229000D03*
X68326000Y-48768000D03*
X35687000Y-54102000D03*
X66167000Y-54102000D03*
X37610000Y-55401000D03*
X68090000Y-55401000D03*
D25*
X39878000Y-35661600D02*
X42545000Y-38328600D01*
D26*
X42545000Y-42926000D02*
X42545000Y-42466000D01*
X27305000Y-40386000D02*
X31760000Y-40386000D01*
X31760000Y-40386000D02*
X32004000Y-40142000D01*
D25*
X39522400Y-36499800D02*
X39395400Y-36626800D01*
D26*
X33625000Y-35242000D02*
X33625000Y-36733000D01*
X33625000Y-36733000D02*
X32639000Y-37719000D01*
D25*
X37978287Y-53359056D02*
X37953944Y-53359056D01*
X37953944Y-53359056D02*
X36830000Y-54483000D01*
X38232287Y-53232056D02*
X38232287Y-53334713D01*
D26*
X29845000Y-60371606D02*
X30653990Y-59562616D01*
X29845000Y-60833000D02*
X29845000Y-60371606D01*
X30480000Y-61468000D02*
X29845000Y-60833000D01*
X30861000Y-61468000D02*
X30480000Y-61468000D01*
X31634871Y-60694129D02*
X30861000Y-61468000D01*
X31785502Y-60694129D02*
X31634871Y-60694129D01*
X30653990Y-59516010D02*
X31877000Y-58293000D01*
X30653990Y-59562616D02*
X30653990Y-59516010D01*
D27*
X41425000Y-42926000D02*
X42545000Y-42926000D01*
X39655000Y-41156000D02*
X41425000Y-42926000D01*
X38641000Y-40142000D02*
X39655000Y-41156000D01*
X37846000Y-40142000D02*
X38641000Y-40142000D01*
X39619000Y-40142000D02*
X40120000Y-39641000D01*
X37846000Y-40142000D02*
X39619000Y-40142000D01*
X39655000Y-41156000D02*
X38930000Y-41881000D01*
X70135000Y-41156000D02*
X69410000Y-41881000D01*
X68326000Y-40142000D02*
X70099000Y-40142000D01*
X70099000Y-40142000D02*
X70600000Y-39641000D01*
X68326000Y-40142000D02*
X69121000Y-40142000D01*
X69121000Y-40142000D02*
X70135000Y-41156000D01*
X70135000Y-41156000D02*
X71905000Y-42926000D01*
X71905000Y-42926000D02*
X73025000Y-42926000D01*
D26*
X61133990Y-59562616D02*
X61133990Y-59516010D01*
X61133990Y-59516010D02*
X62357000Y-58293000D01*
X62265502Y-60694129D02*
X62114871Y-60694129D01*
X62114871Y-60694129D02*
X61341000Y-61468000D01*
X61341000Y-61468000D02*
X60960000Y-61468000D01*
X60960000Y-61468000D02*
X60325000Y-60833000D01*
X60325000Y-60833000D02*
X60325000Y-60371606D01*
X60325000Y-60371606D02*
X61133990Y-59562616D01*
D25*
X68712287Y-53232056D02*
X68712287Y-53334713D01*
X68433944Y-53359056D02*
X67310000Y-54483000D01*
X68458287Y-53359056D02*
X68433944Y-53359056D01*
D26*
X64105000Y-36733000D02*
X63119000Y-37719000D01*
X64105000Y-35242000D02*
X64105000Y-36733000D01*
D25*
X70002400Y-36499800D02*
X69875400Y-36626800D01*
D26*
X62240000Y-40386000D02*
X62484000Y-40142000D01*
X57785000Y-40386000D02*
X62240000Y-40386000D01*
X73025000Y-42926000D02*
X73025000Y-42466000D01*
D25*
X70358000Y-35661600D02*
X73025000Y-38328600D01*
D27*
X35661600Y-46964600D02*
X34930000Y-46233000D01*
D26*
X36225000Y-35242000D02*
X36225000Y-36733000D01*
X36225000Y-36733000D02*
X37211000Y-37719000D01*
D25*
X32351259Y-61259885D02*
X32351259Y-61196941D01*
X39862336Y-55014504D02*
X39854496Y-55014504D01*
X39854496Y-55014504D02*
X38370000Y-56154000D01*
X38370000Y-56154000D02*
X38370000Y-56281000D01*
D26*
X33121600Y-60477400D02*
X33274000Y-60325000D01*
X33274000Y-60325000D02*
X33274000Y-60121800D01*
X33274000Y-60121800D02*
X33070800Y-59918600D01*
X33070800Y-60477400D02*
X32351259Y-61196941D01*
X33070800Y-59918600D02*
X32537400Y-59385200D01*
X32537400Y-59385200D02*
X31962919Y-59385200D01*
X31219746Y-60128373D02*
X31962919Y-59385200D01*
X33070800Y-60477400D02*
X33121600Y-60477400D01*
D27*
X30269000Y-63246000D02*
X30099000Y-63246000D01*
X32261115Y-61259885D02*
X30269000Y-63246000D01*
X32351259Y-61259885D02*
X32261115Y-61259885D01*
X31740000Y-70901000D02*
X32390000Y-70901000D01*
X30353000Y-69215000D02*
X31740000Y-70901000D01*
X60833000Y-69215000D02*
X62220000Y-70901000D01*
X62220000Y-70901000D02*
X62870000Y-70901000D01*
X62831259Y-61259885D02*
X62741115Y-61259885D01*
X62741115Y-61259885D02*
X60749000Y-63246000D01*
X60749000Y-63246000D02*
X60579000Y-63246000D01*
D26*
X63550800Y-60477400D02*
X63601600Y-60477400D01*
X61699746Y-60128373D02*
X62442919Y-59385200D01*
X63017400Y-59385200D02*
X62442919Y-59385200D01*
X63550800Y-59918600D02*
X63017400Y-59385200D01*
X63550800Y-60477400D02*
X62831259Y-61196941D01*
X63754000Y-60121800D02*
X63550800Y-59918600D01*
X63754000Y-60325000D02*
X63754000Y-60121800D01*
X63601600Y-60477400D02*
X63754000Y-60325000D01*
D25*
X68850000Y-56154000D02*
X68850000Y-56281000D01*
X70334496Y-55014504D02*
X68850000Y-56154000D01*
X70342336Y-55014504D02*
X70334496Y-55014504D01*
X62831259Y-61259885D02*
X62831259Y-61196941D01*
D26*
X66705000Y-36733000D02*
X67691000Y-37719000D01*
X66705000Y-35242000D02*
X66705000Y-36733000D01*
D27*
X66141600Y-46964600D02*
X65410000Y-46233000D01*
D25*
X32867600Y-66827400D02*
X32375000Y-66827400D01*
X34290000Y-65405000D02*
X32867600Y-66827400D01*
X32917015Y-61825641D02*
X32916359Y-61825641D01*
X32917015Y-61850385D02*
X31902400Y-62865000D01*
X32917015Y-61825641D02*
X32917015Y-61850385D01*
X63397015Y-61825641D02*
X63397015Y-61850385D01*
X63397015Y-61850385D02*
X62382400Y-62865000D01*
X63397015Y-61825641D02*
X63396359Y-61825641D01*
X64770000Y-65405000D02*
X63347600Y-66827400D01*
X63347600Y-66827400D02*
X62855000Y-66827400D01*
X36855400Y-66827400D02*
X37475000Y-66827400D01*
X35433000Y-65405000D02*
X36855400Y-66827400D01*
X33740197Y-62391397D02*
X34467800Y-63119000D01*
X33482771Y-62391397D02*
X33740197Y-62391397D01*
X63962771Y-62391397D02*
X64220197Y-62391397D01*
X64220197Y-62391397D02*
X64947800Y-63119000D01*
X65913000Y-65405000D02*
X67335400Y-66827400D01*
X67335400Y-66827400D02*
X67955000Y-66827400D01*
X32385000Y-73660000D02*
X32385000Y-73279000D01*
X41071800Y-61772800D02*
X42545000Y-63246000D01*
X41071800Y-59385200D02*
X41071800Y-61772800D01*
X40277233Y-58590633D02*
X41071800Y-59385200D01*
X40277233Y-58423920D02*
X40277233Y-58590633D01*
X37460000Y-68781000D02*
X34851000Y-68781000D01*
X34851000Y-68781000D02*
X34798000Y-68834000D01*
X33655000Y-69977000D02*
X34798000Y-68834000D01*
X33655000Y-72009000D02*
X33655000Y-69977000D01*
X32385000Y-73279000D02*
X33655000Y-72009000D01*
X62865000Y-73279000D02*
X64135000Y-72009000D01*
X64135000Y-72009000D02*
X64135000Y-69977000D01*
X64135000Y-69977000D02*
X65278000Y-68834000D01*
X65331000Y-68781000D02*
X65278000Y-68834000D01*
X67940000Y-68781000D02*
X65331000Y-68781000D01*
X70757233Y-58423920D02*
X70757233Y-58590633D01*
X70757233Y-58590633D02*
X71551800Y-59385200D01*
X71551800Y-59385200D02*
X71551800Y-61772800D01*
X71551800Y-61772800D02*
X73025000Y-63246000D01*
X62865000Y-73660000D02*
X62865000Y-73279000D01*
X38989000Y-68707000D02*
X38037500Y-69658500D01*
X39878000Y-67818000D02*
X39878000Y-66929000D01*
X38989000Y-68707000D02*
X39878000Y-67818000D01*
X34925000Y-73660000D02*
X34925000Y-73533000D01*
X40259272Y-55955928D02*
X38912800Y-57302400D01*
X40259272Y-55640041D02*
X40259272Y-55955928D01*
X36922500Y-69658500D02*
X36195000Y-70386000D01*
X36195000Y-70386000D02*
X36195000Y-70612000D01*
X36195000Y-72263000D02*
X36195000Y-70612000D01*
X36195000Y-72263000D02*
X34925000Y-73533000D01*
X38037500Y-69658500D02*
X36922500Y-69658500D01*
X68517500Y-69658500D02*
X67402500Y-69658500D01*
X66675000Y-72263000D02*
X65405000Y-73533000D01*
X66675000Y-72263000D02*
X66675000Y-70612000D01*
X66675000Y-70386000D02*
X66675000Y-70612000D01*
X67402500Y-69658500D02*
X66675000Y-70386000D01*
X70739272Y-55640041D02*
X70739272Y-55955928D01*
X70739272Y-55955928D02*
X69392800Y-57302400D01*
X65405000Y-73660000D02*
X65405000Y-73533000D01*
X69469000Y-68707000D02*
X70358000Y-67818000D01*
X70358000Y-67818000D02*
X70358000Y-66929000D01*
X69469000Y-68707000D02*
X68517500Y-69658500D01*
X39702496Y-58998656D02*
X39702496Y-59006496D01*
X40513000Y-59867800D02*
X40513000Y-63754000D01*
X40513000Y-63754000D02*
X40894000Y-64135000D01*
X40894000Y-64135000D02*
X42545000Y-65786000D01*
X39702496Y-59057296D02*
X40513000Y-59867800D01*
X39702496Y-58998656D02*
X39702496Y-59057296D01*
X35186000Y-69905000D02*
X35440000Y-69651000D01*
X35440000Y-70391000D02*
X34930000Y-70901000D01*
X35440000Y-69651000D02*
X35440000Y-70391000D01*
X65920000Y-69651000D02*
X65920000Y-70391000D01*
X65920000Y-70391000D02*
X65410000Y-70901000D01*
X65666000Y-69905000D02*
X65920000Y-69651000D01*
X70182496Y-58998656D02*
X70182496Y-59057296D01*
X70182496Y-59057296D02*
X70993000Y-59867800D01*
X71374000Y-64135000D02*
X73025000Y-65786000D01*
X70993000Y-63754000D02*
X71374000Y-64135000D01*
X70993000Y-59867800D02*
X70993000Y-63754000D01*
X70182496Y-58998656D02*
X70182496Y-59006496D01*
X35204400Y-47742000D02*
X35219800Y-47742000D01*
X32004000Y-47742000D02*
X35204400Y-47742000D01*
X35219800Y-47742000D02*
X35509200Y-48031400D01*
X36626800Y-47574200D02*
X36626800Y-46558200D01*
X41529000Y-46482000D02*
X42545000Y-45466000D01*
X36703000Y-46482000D02*
X41529000Y-46482000D01*
X36626800Y-46558200D02*
X36703000Y-46482000D01*
X35509200Y-48031400D02*
X36169600Y-48031400D01*
X36169600Y-48031400D02*
X36626800Y-47574200D01*
X32639000Y-68961000D02*
X32512000Y-68834000D01*
X32512000Y-68834000D02*
X31193000Y-68834000D01*
X32004000Y-48514000D02*
X32004000Y-47742000D01*
X32258000Y-48768000D02*
X32004000Y-48514000D01*
X31210766Y-53943766D02*
X32258000Y-54991000D01*
X31210766Y-53912239D02*
X31210766Y-53943766D01*
X29096000Y-67310000D02*
X30080000Y-66421000D01*
X30080000Y-66421000D02*
X30430000Y-66421000D01*
X30430000Y-66421000D02*
X30450000Y-66441000D01*
X30450000Y-66441000D02*
X30450000Y-68091000D01*
X30450000Y-68091000D02*
X31193000Y-68834000D01*
X28956000Y-67310000D02*
X29096000Y-67310000D01*
X31877000Y-47869000D02*
X31877000Y-48260000D01*
X62357000Y-47869000D02*
X62357000Y-48260000D01*
X59436000Y-67310000D02*
X59576000Y-67310000D01*
X60930000Y-68091000D02*
X61673000Y-68834000D01*
X60930000Y-66441000D02*
X60930000Y-68091000D01*
X60910000Y-66421000D02*
X60930000Y-66441000D01*
X60560000Y-66421000D02*
X60910000Y-66421000D01*
X59576000Y-67310000D02*
X60560000Y-66421000D01*
X61690766Y-53912239D02*
X61690766Y-53943766D01*
X61690766Y-53943766D02*
X62738000Y-54991000D01*
X62738000Y-48768000D02*
X62484000Y-48514000D01*
X62484000Y-48514000D02*
X62484000Y-47742000D01*
X62992000Y-68834000D02*
X61673000Y-68834000D01*
X63119000Y-68961000D02*
X62992000Y-68834000D01*
X66649600Y-48031400D02*
X67106800Y-47574200D01*
X65989200Y-48031400D02*
X66649600Y-48031400D01*
X67106800Y-46558200D02*
X67183000Y-46482000D01*
X67183000Y-46482000D02*
X72009000Y-46482000D01*
X72009000Y-46482000D02*
X73025000Y-45466000D01*
X67106800Y-47574200D02*
X67106800Y-46558200D01*
X65699800Y-47742000D02*
X65989200Y-48031400D01*
X62484000Y-47742000D02*
X65684400Y-47742000D01*
X65684400Y-47742000D02*
X65699800Y-47742000D01*
X35575000Y-35242000D02*
X35575000Y-40456000D01*
X35575000Y-40456000D02*
X40513000Y-44831000D01*
X66055000Y-40456000D02*
X70993000Y-44831000D01*
X66055000Y-35242000D02*
X66055000Y-40456000D01*
X34925000Y-40606000D02*
X34290000Y-41241000D01*
X34290000Y-41241000D02*
X33820000Y-41241000D01*
X34925000Y-35242000D02*
X34925000Y-40606000D01*
X30130000Y-42068000D02*
X29591000Y-41529000D01*
X30130000Y-46801000D02*
X30130000Y-43131000D01*
X30360000Y-47031000D02*
X30130000Y-46801000D01*
X30130000Y-43131000D02*
X30130000Y-42068000D01*
X60610000Y-43131000D02*
X60610000Y-42068000D01*
X60840000Y-47031000D02*
X60610000Y-46801000D01*
X60610000Y-46801000D02*
X60610000Y-43131000D01*
X60610000Y-42068000D02*
X60071000Y-41529000D01*
X65405000Y-35242000D02*
X65405000Y-40606000D01*
X64770000Y-41241000D02*
X64300000Y-41241000D01*
X65405000Y-40606000D02*
X64770000Y-41241000D01*
X34544000Y-42443400D02*
X34726800Y-42511000D01*
X34726800Y-42511000D02*
X34726800Y-42791000D01*
X34721800Y-42799000D02*
X34594800Y-42672000D01*
X34544000Y-42969800D02*
X34950400Y-43376200D01*
X34544000Y-42443400D02*
X34544000Y-42969800D01*
X65024000Y-42443400D02*
X65024000Y-42969800D01*
X65024000Y-42969800D02*
X65430400Y-43376200D01*
X65201800Y-42799000D02*
X65074800Y-42672000D01*
X65206800Y-42511000D02*
X65206800Y-42791000D01*
X65024000Y-42443400D02*
X65206800Y-42511000D01*
X28397200Y-60706000D02*
X27305000Y-60706000D01*
X30088234Y-59014966D02*
X28397200Y-60706000D01*
X30088234Y-58996860D02*
X30088234Y-59014966D01*
X60568234Y-58996860D02*
X60568234Y-59014966D01*
X60568234Y-59014966D02*
X58877200Y-60706000D01*
X58877200Y-60706000D02*
X57785000Y-60706000D01*
X27570104Y-58431104D02*
X27305000Y-58166000D01*
X29522478Y-58431104D02*
X27570104Y-58431104D01*
X60002478Y-58431104D02*
X58050104Y-58431104D01*
X58050104Y-58431104D02*
X57785000Y-58166000D01*
X42545000Y-55372000D02*
X42545000Y-55626000D01*
X39109799Y-54490568D02*
X39109799Y-54463801D01*
X42325000Y-55626000D02*
X42545000Y-55626000D01*
X39880000Y-53701000D02*
X40400000Y-53701000D01*
X40400000Y-53701000D02*
X42325000Y-55626000D01*
X39109799Y-54471201D02*
X39880000Y-53701000D01*
X39109799Y-54490568D02*
X39109799Y-54471201D01*
X69589799Y-54490568D02*
X69589799Y-54471201D01*
X69589799Y-54471201D02*
X70360000Y-53701000D01*
X70880000Y-53701000D02*
X72805000Y-55626000D01*
X70360000Y-53701000D02*
X70880000Y-53701000D01*
X72805000Y-55626000D02*
X73025000Y-55626000D01*
X69589799Y-54490568D02*
X69589799Y-54463801D01*
X73025000Y-55372000D02*
X73025000Y-55626000D01*
X37421511Y-52802280D02*
X37443920Y-52802280D01*
X38190000Y-52091000D02*
X39540000Y-52091000D01*
X39540000Y-52091000D02*
X41790000Y-54341000D01*
X41790000Y-54341000D02*
X43420000Y-54341000D01*
X43420000Y-54341000D02*
X44030000Y-54951000D01*
X44030000Y-54951000D02*
X44030000Y-56681000D01*
X44030000Y-56681000D02*
X42545000Y-58166000D01*
X37478720Y-52802280D02*
X38190000Y-52091000D01*
X37421511Y-52802280D02*
X37478720Y-52802280D01*
X67901511Y-52802280D02*
X67958720Y-52802280D01*
X67958720Y-52802280D02*
X68670000Y-52091000D01*
X74510000Y-56681000D02*
X73025000Y-58166000D01*
X74510000Y-54951000D02*
X74510000Y-56681000D01*
X73900000Y-54341000D02*
X74510000Y-54951000D01*
X72270000Y-54341000D02*
X73900000Y-54341000D01*
X70020000Y-52091000D02*
X72270000Y-54341000D01*
X68670000Y-52091000D02*
X70020000Y-52091000D01*
X67901511Y-52802280D02*
X67923920Y-52802280D01*
X29515294Y-55607712D02*
X29521912Y-55607712D01*
X29521912Y-55607712D02*
X30429200Y-56515000D01*
X30429200Y-56515000D02*
X30988000Y-56515000D01*
X60909200Y-56515000D02*
X61468000Y-56515000D01*
X60001912Y-55607712D02*
X60909200Y-56515000D01*
X59995294Y-55607712D02*
X60001912Y-55607712D01*
X28625800Y-54305200D02*
X27305000Y-55626000D01*
X29311600Y-54305200D02*
X28625800Y-54305200D01*
X30050152Y-55043752D02*
X29311600Y-54305200D01*
X30079254Y-55043752D02*
X30050152Y-55043752D01*
X60559254Y-55043752D02*
X60530152Y-55043752D01*
X60530152Y-55043752D02*
X59791600Y-54305200D01*
X59791600Y-54305200D02*
X59105800Y-54305200D01*
X59105800Y-54305200D02*
X57785000Y-55626000D01*
X29210000Y-53086000D02*
X27305000Y-53086000D01*
X30600199Y-54476199D02*
X29210000Y-53086000D01*
X30646806Y-54476199D02*
X30600199Y-54476199D01*
X61126806Y-54476199D02*
X61080199Y-54476199D01*
X61080199Y-54476199D02*
X59690000Y-53086000D01*
X59690000Y-53086000D02*
X57785000Y-53086000D01*
X29630000Y-61971000D02*
X29470400Y-62156000D01*
X36231193Y-62393193D02*
X36307959Y-62393193D01*
X36307959Y-62393193D02*
X36307959Y-62368359D01*
X34544000Y-60960000D02*
X34798000Y-60960000D01*
X36231193Y-62393193D02*
X34798000Y-60960000D01*
X29630000Y-61971000D02*
X28600000Y-61971000D01*
X28580000Y-61971000D02*
X27305000Y-63246000D01*
X28600000Y-61971000D02*
X28580000Y-61971000D01*
X59080000Y-61971000D02*
X59060000Y-61971000D01*
X59060000Y-61971000D02*
X57785000Y-63246000D01*
X60110000Y-61971000D02*
X59080000Y-61971000D01*
X66711193Y-62393193D02*
X65278000Y-60960000D01*
X65024000Y-60960000D02*
X65278000Y-60960000D01*
X66787959Y-62393193D02*
X66787959Y-62368359D01*
X66711193Y-62393193D02*
X66787959Y-62393193D01*
X60110000Y-61971000D02*
X59950400Y-62156000D01*
X37846000Y-48768000D02*
X37846000Y-47742000D01*
X36864735Y-61836417D02*
X36817417Y-61836417D01*
X36817417Y-61836417D02*
X35560000Y-60579000D01*
X35560000Y-60579000D02*
X35560000Y-55245000D01*
X35560000Y-55245000D02*
X34544000Y-54229000D01*
X42281000Y-47742000D02*
X42545000Y-48006000D01*
X37846000Y-47742000D02*
X42281000Y-47742000D01*
X37973000Y-48260000D02*
X37973000Y-47869000D01*
X68453000Y-48260000D02*
X68453000Y-47869000D01*
X68326000Y-47742000D02*
X72761000Y-47742000D01*
X72761000Y-47742000D02*
X73025000Y-48006000D01*
X66040000Y-55245000D02*
X65024000Y-54229000D01*
X66040000Y-60579000D02*
X66040000Y-55245000D01*
X67297417Y-61836417D02*
X66040000Y-60579000D01*
X67344735Y-61836417D02*
X67297417Y-61836417D01*
X68326000Y-48768000D02*
X68326000Y-47742000D01*
X37439472Y-61261681D02*
X37439472Y-61188472D01*
X37439472Y-61188472D02*
X36703000Y-60452000D01*
X36703000Y-60452000D02*
X36068000Y-59817000D01*
X36068000Y-59817000D02*
X36068000Y-54864000D01*
X36068000Y-54864000D02*
X35687000Y-54483000D01*
X35687000Y-54483000D02*
X35687000Y-54102000D01*
X66167000Y-54483000D02*
X66167000Y-54102000D01*
X66548000Y-54864000D02*
X66167000Y-54483000D01*
X66548000Y-59817000D02*
X66548000Y-54864000D01*
X67183000Y-60452000D02*
X66548000Y-59817000D01*
X67919472Y-61188472D02*
X67183000Y-60452000D01*
X67919472Y-61261681D02*
X67919472Y-61188472D01*
X29210000Y-65786000D02*
X27305000Y-65786000D01*
X30988000Y-64008000D02*
X29210000Y-65786000D01*
X36830000Y-64008000D02*
X30988000Y-64008000D01*
X36830000Y-64008000D02*
X36830000Y-64008000D01*
X37996248Y-60704905D02*
X37996248Y-60856248D01*
X38989000Y-61722000D02*
X38989000Y-61849000D01*
X38989000Y-61849000D02*
X38989000Y-63004698D01*
X38989000Y-63004698D02*
X37973000Y-64020698D01*
X36830000Y-64020698D02*
X36830000Y-64008000D01*
X37973000Y-64020698D02*
X36830000Y-64020698D01*
X37996248Y-60729248D02*
X38989000Y-61722000D01*
X37996248Y-60704905D02*
X37996248Y-60729248D01*
X68476248Y-60704905D02*
X68476248Y-60729248D01*
X68476248Y-60729248D02*
X69469000Y-61722000D01*
X68453000Y-64020698D02*
X67310000Y-64020698D01*
X67310000Y-64020698D02*
X67310000Y-64008000D01*
X69469000Y-63004698D02*
X68453000Y-64020698D01*
X69469000Y-61849000D02*
X69469000Y-63004698D01*
X69469000Y-61722000D02*
X69469000Y-61849000D01*
X68476248Y-60704905D02*
X68476248Y-60856248D01*
X67310000Y-64008000D02*
X67310000Y-64008000D01*
X67310000Y-64008000D02*
X61468000Y-64008000D01*
X61468000Y-64008000D02*
X59690000Y-65786000D01*
X59690000Y-65786000D02*
X57785000Y-65786000D01*
X27432000Y-68326000D02*
X27305000Y-68326000D01*
X39497000Y-62103000D02*
X39497000Y-63246000D01*
X29443500Y-66314500D02*
X31242000Y-64516000D01*
X37084000Y-64516000D02*
X31242000Y-64516000D01*
X39497000Y-62103000D02*
X39497000Y-60960000D01*
X38227000Y-64516000D02*
X37084000Y-64516000D01*
X39497000Y-63246000D02*
X38227000Y-64516000D01*
X38685129Y-60148129D02*
X39497000Y-60960000D01*
X38553023Y-60148129D02*
X38685129Y-60148129D01*
X27305000Y-67726000D02*
X27305000Y-68326000D01*
X28716500Y-66314500D02*
X27305000Y-67726000D01*
X29443500Y-66314500D02*
X28716500Y-66314500D01*
X59923500Y-66314500D02*
X59196500Y-66314500D01*
X59196500Y-66314500D02*
X57785000Y-67726000D01*
X57785000Y-67726000D02*
X57785000Y-68326000D01*
X69033023Y-60148129D02*
X69165129Y-60148129D01*
X69165129Y-60148129D02*
X69977000Y-60960000D01*
X69977000Y-63246000D02*
X68707000Y-64516000D01*
X68707000Y-64516000D02*
X67564000Y-64516000D01*
X69977000Y-62103000D02*
X69977000Y-60960000D01*
X67564000Y-64516000D02*
X61722000Y-64516000D01*
X59923500Y-66314500D02*
X61722000Y-64516000D01*
X69977000Y-62103000D02*
X69977000Y-63246000D01*
X57912000Y-68326000D02*
X57785000Y-68326000D01*
X39127760Y-59573393D02*
X39127760Y-59701760D01*
X40386000Y-66167000D02*
X42545000Y-68326000D01*
X40005000Y-65786000D02*
X40386000Y-66167000D01*
X40005000Y-60579000D02*
X40005000Y-65786000D01*
X39127760Y-59701760D02*
X40005000Y-60579000D01*
X39127760Y-59573393D02*
X39127760Y-59701760D01*
X69607760Y-59573393D02*
X69607760Y-59701760D01*
X69607760Y-59701760D02*
X70485000Y-60579000D01*
X70485000Y-60579000D02*
X70485000Y-65786000D01*
X70485000Y-65786000D02*
X70866000Y-66167000D01*
X70866000Y-66167000D02*
X73025000Y-68326000D01*
X69607760Y-59573393D02*
X69607760Y-59701760D01*
X36543999Y-51543767D02*
X36594233Y-51543767D01*
X37439600Y-50546000D02*
X42545000Y-50546000D01*
X36314833Y-51670767D02*
X37439600Y-50546000D01*
X36289999Y-51670767D02*
X36314833Y-51670767D01*
X66769999Y-51670767D02*
X66794833Y-51670767D01*
X66794833Y-51670767D02*
X67919600Y-50546000D01*
X67919600Y-50546000D02*
X73025000Y-50546000D01*
X67023999Y-51543767D02*
X67074233Y-51543767D01*
X36195000Y-52959000D02*
X36846775Y-52227543D01*
X37100775Y-52100543D02*
X37053457Y-52100543D01*
X37053457Y-52100543D02*
X36195000Y-52959000D01*
X37541200Y-51460400D02*
X40919400Y-51460400D01*
X40919400Y-51460400D02*
X42545000Y-53086000D01*
X36846775Y-52154825D02*
X37541200Y-51460400D01*
X36846775Y-52227543D02*
X36846775Y-52154825D01*
X67326775Y-52227543D02*
X67326775Y-52154825D01*
X67326775Y-52154825D02*
X68021200Y-51460400D01*
X71399400Y-51460400D02*
X73025000Y-53086000D01*
X68021200Y-51460400D02*
X71399400Y-51460400D01*
X67533457Y-52100543D02*
X66675000Y-52959000D01*
X67580775Y-52100543D02*
X67533457Y-52100543D01*
X66675000Y-52959000D02*
X67326775Y-52227543D01*
X29006800Y-50546000D02*
X27305000Y-50546000D01*
X31778318Y-53317518D02*
X29006800Y-50546000D01*
X31778318Y-53344687D02*
X31778318Y-53317518D01*
X62258318Y-53344687D02*
X62258318Y-53317518D01*
X62258318Y-53317518D02*
X59486800Y-50546000D01*
X59486800Y-50546000D02*
X57785000Y-50546000D01*
X27559000Y-48006000D02*
X27305000Y-48006000D01*
X32333727Y-52780727D02*
X27559000Y-48006000D01*
X32342278Y-52780727D02*
X32333727Y-52780727D01*
X62822278Y-52780727D02*
X62813727Y-52780727D01*
X62813727Y-52780727D02*
X58039000Y-48006000D01*
X58039000Y-48006000D02*
X57785000Y-48006000D01*
X29032200Y-47193200D02*
X27305000Y-45466000D01*
X29032200Y-48310800D02*
X29032200Y-47193200D01*
X32909831Y-52188431D02*
X29032200Y-48310800D01*
X32909831Y-52213175D02*
X32909831Y-52188431D01*
X63389831Y-52213175D02*
X63389831Y-52188431D01*
X63389831Y-52188431D02*
X59512200Y-48310800D01*
X59512200Y-48310800D02*
X59512200Y-47193200D01*
X59512200Y-47193200D02*
X57785000Y-45466000D01*
X33600791Y-51522215D02*
X33473791Y-51649215D01*
X29540200Y-47904400D02*
X29540200Y-45161200D01*
X29540200Y-45161200D02*
X27305000Y-42926000D01*
X33285015Y-51649215D02*
X29540200Y-47904400D01*
X33473791Y-51649215D02*
X33285015Y-51649215D01*
X63953791Y-51649215D02*
X63765015Y-51649215D01*
X63765015Y-51649215D02*
X60020200Y-47904400D01*
X60020200Y-45161200D02*
X57785000Y-42926000D01*
X60020200Y-47904400D02*
X60020200Y-45161200D01*
X64080791Y-51522215D02*
X63953791Y-51649215D01*
X37610000Y-54981000D02*
X37610000Y-55401000D01*
X38553023Y-54037977D02*
X37610000Y-54981000D01*
X38553023Y-53933792D02*
X38553023Y-54037977D01*
X69033023Y-53933792D02*
X69033023Y-54037977D01*
X69033023Y-54037977D02*
X68090000Y-54981000D01*
X68090000Y-54981000D02*
X68090000Y-55401000D01*
G36*
X31269809Y-60142515D02*
X31233888Y-60178436D01*
X31219746Y-60164294D01*
X31205603Y-60178436D01*
X31169682Y-60142515D01*
X31183825Y-60128373D01*
X31169682Y-60114230D01*
X31205603Y-60078309D01*
X31219746Y-60092452D01*
X31233888Y-60078309D01*
X31269809Y-60114230D01*
X31255667Y-60128373D01*
X31269809Y-60142515D01*
X31269809Y-60142515D01*
G37*
X31269809Y-60142515D02*
X31233888Y-60178436D01*
X31219746Y-60164294D01*
X31205603Y-60178436D01*
X31169682Y-60142515D01*
X31183825Y-60128373D01*
X31169682Y-60114230D01*
X31205603Y-60078309D01*
X31219746Y-60092452D01*
X31233888Y-60078309D01*
X31269809Y-60114230D01*
X31255667Y-60128373D01*
X31269809Y-60142515D01*
G36*
X31369876Y-63500000D02*
X30988000Y-63500000D01*
X30793597Y-63538669D01*
X30628790Y-63648790D01*
X28999580Y-65278000D01*
X28414854Y-65278000D01*
X28184249Y-64932876D01*
X27792833Y-64671339D01*
X27331125Y-64579500D01*
X27024875Y-64579500D01*
X26563167Y-64671339D01*
X26171751Y-64932876D01*
X25910214Y-65324292D01*
X25856000Y-65596845D01*
X25856000Y-63435154D01*
X25910214Y-63707708D01*
X26171751Y-64099124D01*
X26563167Y-64360661D01*
X27024875Y-64452500D01*
X27331125Y-64452500D01*
X27792833Y-64360661D01*
X28184249Y-64099124D01*
X28445786Y-63707708D01*
X28537625Y-63246000D01*
X28452313Y-62817106D01*
X28790420Y-62479000D01*
X28970697Y-62479000D01*
X29161781Y-62670417D01*
X29465077Y-62796357D01*
X29793482Y-62796643D01*
X30096998Y-62671233D01*
X30329417Y-62439219D01*
X30455357Y-62135923D01*
X30455445Y-62034616D01*
X30480000Y-62039501D01*
X30480000Y-62039500D01*
X30480005Y-62039500D01*
X30860994Y-62039500D01*
X30861000Y-62039501D01*
X30861000Y-62039500D01*
X31018733Y-62008124D01*
X31054900Y-62095439D01*
X31197803Y-62238342D01*
X31177540Y-62218078D01*
X31357142Y-62218078D01*
X31267341Y-62307879D01*
X31279679Y-62320217D01*
X31202983Y-62396781D01*
X31077043Y-62700077D01*
X31076757Y-63028482D01*
X31202167Y-63331998D01*
X31369876Y-63500000D01*
X31369876Y-63500000D01*
G37*
X31369876Y-63500000D02*
X30988000Y-63500000D01*
X30793597Y-63538669D01*
X30628790Y-63648790D01*
X28999580Y-65278000D01*
X28414854Y-65278000D01*
X28184249Y-64932876D01*
X27792833Y-64671339D01*
X27331125Y-64579500D01*
X27024875Y-64579500D01*
X26563167Y-64671339D01*
X26171751Y-64932876D01*
X25910214Y-65324292D01*
X25856000Y-65596845D01*
X25856000Y-63435154D01*
X25910214Y-63707708D01*
X26171751Y-64099124D01*
X26563167Y-64360661D01*
X27024875Y-64452500D01*
X27331125Y-64452500D01*
X27792833Y-64360661D01*
X28184249Y-64099124D01*
X28445786Y-63707708D01*
X28537625Y-63246000D01*
X28452313Y-62817106D01*
X28790420Y-62479000D01*
X28970697Y-62479000D01*
X29161781Y-62670417D01*
X29465077Y-62796357D01*
X29793482Y-62796643D01*
X30096998Y-62671233D01*
X30329417Y-62439219D01*
X30455357Y-62135923D01*
X30455445Y-62034616D01*
X30480000Y-62039501D01*
X30480000Y-62039500D01*
X30480005Y-62039500D01*
X30860994Y-62039500D01*
X30861000Y-62039501D01*
X30861000Y-62039500D01*
X31018733Y-62008124D01*
X31054900Y-62095439D01*
X31197803Y-62238342D01*
X31177540Y-62218078D01*
X31357142Y-62218078D01*
X31267341Y-62307879D01*
X31279679Y-62320217D01*
X31202983Y-62396781D01*
X31077043Y-62700077D01*
X31076757Y-63028482D01*
X31202167Y-63331998D01*
X31369876Y-63500000D01*
G36*
X32086085Y-69575573D02*
X31651806Y-69744989D01*
X31265611Y-70115480D01*
X31140905Y-70399717D01*
X30261858Y-69519134D01*
X29072004Y-69025063D01*
X28287646Y-69024378D01*
X28445786Y-68787708D01*
X28537625Y-68326000D01*
X28471386Y-67992993D01*
X28487781Y-68009417D01*
X28791077Y-68135357D01*
X29119482Y-68135643D01*
X29422998Y-68010233D01*
X29655417Y-67778219D01*
X29781357Y-67474923D01*
X29781443Y-67375351D01*
X29942000Y-67230296D01*
X29942000Y-68091000D01*
X29980669Y-68285403D01*
X30090790Y-68450210D01*
X30833790Y-69193210D01*
X30998597Y-69303331D01*
X31193000Y-69342000D01*
X31903233Y-69342000D01*
X31938767Y-69427998D01*
X32086085Y-69575573D01*
X32086085Y-69575573D01*
G37*
X32086085Y-69575573D02*
X31651806Y-69744989D01*
X31265611Y-70115480D01*
X31140905Y-70399717D01*
X30261858Y-69519134D01*
X29072004Y-69025063D01*
X28287646Y-69024378D01*
X28445786Y-68787708D01*
X28537625Y-68326000D01*
X28471386Y-67992993D01*
X28487781Y-68009417D01*
X28791077Y-68135357D01*
X29119482Y-68135643D01*
X29422998Y-68010233D01*
X29655417Y-67778219D01*
X29781357Y-67474923D01*
X29781443Y-67375351D01*
X29942000Y-67230296D01*
X29942000Y-68091000D01*
X29980669Y-68285403D01*
X30090790Y-68450210D01*
X30833790Y-69193210D01*
X30998597Y-69303331D01*
X31193000Y-69342000D01*
X31903233Y-69342000D01*
X31938767Y-69427998D01*
X32086085Y-69575573D01*
G36*
X32435400Y-70926400D02*
X32415400Y-70926400D01*
X32415400Y-70946400D01*
X32364600Y-70946400D01*
X32364600Y-70926400D01*
X32344600Y-70926400D01*
X32344600Y-70875600D01*
X32364600Y-70875600D01*
X32364600Y-70855600D01*
X32415400Y-70855600D01*
X32415400Y-70875600D01*
X32435400Y-70875600D01*
X32435400Y-70926400D01*
X32435400Y-70926400D01*
G37*
X32435400Y-70926400D02*
X32415400Y-70926400D01*
X32415400Y-70946400D01*
X32364600Y-70946400D01*
X32364600Y-70926400D01*
X32344600Y-70926400D01*
X32344600Y-70875600D01*
X32364600Y-70875600D01*
X32364600Y-70855600D01*
X32415400Y-70855600D01*
X32415400Y-70875600D01*
X32435400Y-70875600D01*
X32435400Y-70926400D01*
G36*
X39734599Y-55079446D02*
X39698678Y-55115367D01*
X39684536Y-55101225D01*
X38726343Y-56059418D01*
X38726343Y-56239023D01*
X38706079Y-56218760D01*
X38848982Y-56361663D01*
X39035693Y-56439000D01*
X39057780Y-56439000D01*
X39019787Y-56476992D01*
X38749318Y-56476757D01*
X38445802Y-56602167D01*
X38213383Y-56834181D01*
X38087443Y-57137477D01*
X38087157Y-57465882D01*
X38212567Y-57769398D01*
X38444581Y-58001817D01*
X38658287Y-58090556D01*
X38513803Y-58235041D01*
X38469968Y-58340867D01*
X38364145Y-58384701D01*
X38256968Y-58491877D01*
X37939067Y-58809778D01*
X37895233Y-58915602D01*
X37789408Y-58959437D01*
X37682231Y-59066613D01*
X37364330Y-59384514D01*
X37325756Y-59477640D01*
X37232633Y-59516213D01*
X37125456Y-59623389D01*
X36859132Y-59889712D01*
X36576000Y-59606579D01*
X36576000Y-55271368D01*
X36665077Y-55308357D01*
X36784579Y-55308461D01*
X36784357Y-55564482D01*
X36909767Y-55867998D01*
X37141781Y-56100417D01*
X37445077Y-56226357D01*
X37773482Y-56226643D01*
X38076998Y-56101233D01*
X38309417Y-55869219D01*
X38342285Y-55790063D01*
X38388177Y-55900858D01*
X38531080Y-56043761D01*
X38510817Y-56023497D01*
X38690422Y-56023497D01*
X39648615Y-55065304D01*
X39634472Y-55051161D01*
X39670393Y-55015240D01*
X39684536Y-55029383D01*
X39698678Y-55015240D01*
X39734599Y-55051161D01*
X39720457Y-55065304D01*
X39734599Y-55079446D01*
X39734599Y-55079446D01*
G37*
X39734599Y-55079446D02*
X39698678Y-55115367D01*
X39684536Y-55101225D01*
X38726343Y-56059418D01*
X38726343Y-56239023D01*
X38706079Y-56218760D01*
X38848982Y-56361663D01*
X39035693Y-56439000D01*
X39057780Y-56439000D01*
X39019787Y-56476992D01*
X38749318Y-56476757D01*
X38445802Y-56602167D01*
X38213383Y-56834181D01*
X38087443Y-57137477D01*
X38087157Y-57465882D01*
X38212567Y-57769398D01*
X38444581Y-58001817D01*
X38658287Y-58090556D01*
X38513803Y-58235041D01*
X38469968Y-58340867D01*
X38364145Y-58384701D01*
X38256968Y-58491877D01*
X37939067Y-58809778D01*
X37895233Y-58915602D01*
X37789408Y-58959437D01*
X37682231Y-59066613D01*
X37364330Y-59384514D01*
X37325756Y-59477640D01*
X37232633Y-59516213D01*
X37125456Y-59623389D01*
X36859132Y-59889712D01*
X36576000Y-59606579D01*
X36576000Y-55271368D01*
X36665077Y-55308357D01*
X36784579Y-55308461D01*
X36784357Y-55564482D01*
X36909767Y-55867998D01*
X37141781Y-56100417D01*
X37445077Y-56226357D01*
X37773482Y-56226643D01*
X38076998Y-56101233D01*
X38309417Y-55869219D01*
X38342285Y-55790063D01*
X38388177Y-55900858D01*
X38531080Y-56043761D01*
X38510817Y-56023497D01*
X38690422Y-56023497D01*
X39648615Y-55065304D01*
X39634472Y-55051161D01*
X39670393Y-55015240D01*
X39684536Y-55029383D01*
X39698678Y-55015240D01*
X39734599Y-55051161D01*
X39720457Y-55065304D01*
X39734599Y-55079446D01*
G36*
X42717400Y-40411400D02*
X42697400Y-40411400D01*
X42697400Y-40431400D01*
X42646600Y-40431400D01*
X42646600Y-40411400D01*
X41338767Y-40411400D01*
X41232130Y-40619655D01*
X41303287Y-40872842D01*
X41584113Y-41310966D01*
X42011225Y-41608273D01*
X42519600Y-41719500D01*
X42518875Y-41719500D01*
X42057167Y-41811339D01*
X41665751Y-42072876D01*
X41529752Y-42276410D01*
X40032171Y-40778829D01*
X40032167Y-40778826D01*
X39862096Y-40608755D01*
X39980145Y-40529878D01*
X40296057Y-40530154D01*
X40622920Y-40395097D01*
X40873218Y-40145236D01*
X41008846Y-39818609D01*
X41009122Y-39501138D01*
X41558099Y-39501617D01*
X41303287Y-39899158D01*
X41232130Y-40152345D01*
X41338767Y-40360600D01*
X42646600Y-40360600D01*
X42646600Y-40340600D01*
X42697400Y-40340600D01*
X42697400Y-40360600D01*
X42717400Y-40360600D01*
X42717400Y-40411400D01*
X42717400Y-40411400D01*
G37*
X42717400Y-40411400D02*
X42697400Y-40411400D01*
X42697400Y-40431400D01*
X42646600Y-40431400D01*
X42646600Y-40411400D01*
X41338767Y-40411400D01*
X41232130Y-40619655D01*
X41303287Y-40872842D01*
X41584113Y-41310966D01*
X42011225Y-41608273D01*
X42519600Y-41719500D01*
X42518875Y-41719500D01*
X42057167Y-41811339D01*
X41665751Y-42072876D01*
X41529752Y-42276410D01*
X40032171Y-40778829D01*
X40032167Y-40778826D01*
X39862096Y-40608755D01*
X39980145Y-40529878D01*
X40296057Y-40530154D01*
X40622920Y-40395097D01*
X40873218Y-40145236D01*
X41008846Y-39818609D01*
X41009122Y-39501138D01*
X41558099Y-39501617D01*
X41303287Y-39899158D01*
X41232130Y-40152345D01*
X41338767Y-40360600D01*
X42646600Y-40360600D01*
X42646600Y-40340600D01*
X42697400Y-40340600D01*
X42697400Y-40360600D01*
X42717400Y-40360600D01*
X42717400Y-40411400D01*
G36*
X43994000Y-45276845D02*
X43939786Y-45004292D01*
X43678249Y-44612876D01*
X43286833Y-44351339D01*
X42825125Y-44259500D01*
X42518875Y-44259500D01*
X42057167Y-44351339D01*
X41665751Y-44612876D01*
X41404214Y-45004292D01*
X41312375Y-45466000D01*
X41397686Y-45894893D01*
X41318580Y-45974000D01*
X36703000Y-45974000D01*
X36508596Y-46012669D01*
X36343790Y-46122790D01*
X36267590Y-46198990D01*
X36157469Y-46363797D01*
X36118800Y-46558200D01*
X36118800Y-47363779D01*
X36108400Y-47374179D01*
X36108400Y-46327247D01*
X36108400Y-45828600D01*
X36108400Y-45523800D01*
X36108400Y-45025153D01*
X36031062Y-44838442D01*
X35888159Y-44695539D01*
X35701448Y-44618200D01*
X35499353Y-44618200D01*
X35102800Y-44618200D01*
X34975800Y-44745200D01*
X34975800Y-45650800D01*
X35981400Y-45650800D01*
X36108400Y-45523800D01*
X36108400Y-45828600D01*
X35981400Y-45701600D01*
X34975800Y-45701600D01*
X34975800Y-46607200D01*
X35102800Y-46734200D01*
X35499353Y-46734200D01*
X35701448Y-46734200D01*
X35888159Y-46656861D01*
X36031062Y-46513958D01*
X36108400Y-46327247D01*
X36108400Y-47374179D01*
X35959179Y-47523400D01*
X35719620Y-47523400D01*
X35579010Y-47382790D01*
X35414203Y-47272669D01*
X35219800Y-47234000D01*
X35204400Y-47234000D01*
X34925000Y-47234000D01*
X34925000Y-46607200D01*
X34925000Y-45701600D01*
X34925000Y-45650800D01*
X34925000Y-44745200D01*
X34798000Y-44618200D01*
X34401447Y-44618200D01*
X34199352Y-44618200D01*
X34012641Y-44695539D01*
X33869738Y-44838442D01*
X33792400Y-45025153D01*
X33792400Y-45523800D01*
X33919400Y-45650800D01*
X34925000Y-45650800D01*
X34925000Y-45701600D01*
X33919400Y-45701600D01*
X33792400Y-45828600D01*
X33792400Y-46327247D01*
X33869738Y-46513958D01*
X34012641Y-46656861D01*
X34199352Y-46734200D01*
X34401447Y-46734200D01*
X34798000Y-46734200D01*
X34925000Y-46607200D01*
X34925000Y-47234000D01*
X33185000Y-47234000D01*
X33185000Y-46916214D01*
X33126996Y-46776180D01*
X33019819Y-46669004D01*
X32879785Y-46611000D01*
X32728214Y-46611000D01*
X31128214Y-46611000D01*
X31086748Y-46628175D01*
X31060233Y-46564002D01*
X30828219Y-46331583D01*
X30638000Y-46252596D01*
X30638000Y-43131000D01*
X30638000Y-42068000D01*
X30599331Y-41873597D01*
X30599331Y-41873596D01*
X30489210Y-41708790D01*
X30416407Y-41635987D01*
X30416643Y-41365518D01*
X30291233Y-41062002D01*
X30186913Y-40957500D01*
X30823000Y-40957500D01*
X30823000Y-40967786D01*
X30881004Y-41107820D01*
X30988181Y-41214996D01*
X31128215Y-41273000D01*
X31279786Y-41273000D01*
X32879786Y-41273000D01*
X32994512Y-41225478D01*
X32994357Y-41404482D01*
X33119767Y-41707998D01*
X33351781Y-41940417D01*
X33655077Y-42066357D01*
X33806668Y-42066489D01*
X33718643Y-42278477D01*
X33718357Y-42606882D01*
X33843767Y-42910398D01*
X33919400Y-42986163D01*
X33919400Y-44001986D01*
X33977404Y-44142020D01*
X34084581Y-44249196D01*
X34224615Y-44307200D01*
X34376186Y-44307200D01*
X35676186Y-44307200D01*
X35816220Y-44249196D01*
X35923396Y-44142019D01*
X35981400Y-44001985D01*
X35981400Y-43850414D01*
X35981400Y-42750414D01*
X35923396Y-42610380D01*
X35816219Y-42503204D01*
X35676185Y-42445200D01*
X35524614Y-42445200D01*
X35369499Y-42445200D01*
X35369643Y-42279918D01*
X35244233Y-41976402D01*
X35012219Y-41743983D01*
X34708923Y-41618043D01*
X34622633Y-41617967D01*
X34649210Y-41600210D01*
X35284210Y-40965210D01*
X35284211Y-40965210D01*
X35321205Y-40909843D01*
X39687545Y-44778361D01*
X39687357Y-44994482D01*
X39812767Y-45297998D01*
X40044781Y-45530417D01*
X40348077Y-45656357D01*
X40676482Y-45656643D01*
X40979998Y-45531233D01*
X41212417Y-45299219D01*
X41338357Y-44995923D01*
X41338643Y-44667518D01*
X41213233Y-44364002D01*
X40981219Y-44131583D01*
X40677923Y-44005643D01*
X40349518Y-44005357D01*
X40347903Y-44006024D01*
X38952843Y-42770020D01*
X39106057Y-42770154D01*
X39432920Y-42635097D01*
X39683218Y-42385236D01*
X39814275Y-42069617D01*
X41047829Y-43303171D01*
X41220877Y-43418797D01*
X41425000Y-43459400D01*
X41452117Y-43459400D01*
X41665751Y-43779124D01*
X42057167Y-44040661D01*
X42518875Y-44132500D01*
X42825125Y-44132500D01*
X43286833Y-44040661D01*
X43678249Y-43779124D01*
X43939786Y-43387708D01*
X43994000Y-43115154D01*
X43994000Y-45276845D01*
X43994000Y-45276845D01*
G37*
X43994000Y-45276845D02*
X43939786Y-45004292D01*
X43678249Y-44612876D01*
X43286833Y-44351339D01*
X42825125Y-44259500D01*
X42518875Y-44259500D01*
X42057167Y-44351339D01*
X41665751Y-44612876D01*
X41404214Y-45004292D01*
X41312375Y-45466000D01*
X41397686Y-45894893D01*
X41318580Y-45974000D01*
X36703000Y-45974000D01*
X36508596Y-46012669D01*
X36343790Y-46122790D01*
X36267590Y-46198990D01*
X36157469Y-46363797D01*
X36118800Y-46558200D01*
X36118800Y-47363779D01*
X36108400Y-47374179D01*
X36108400Y-46327247D01*
X36108400Y-45828600D01*
X36108400Y-45523800D01*
X36108400Y-45025153D01*
X36031062Y-44838442D01*
X35888159Y-44695539D01*
X35701448Y-44618200D01*
X35499353Y-44618200D01*
X35102800Y-44618200D01*
X34975800Y-44745200D01*
X34975800Y-45650800D01*
X35981400Y-45650800D01*
X36108400Y-45523800D01*
X36108400Y-45828600D01*
X35981400Y-45701600D01*
X34975800Y-45701600D01*
X34975800Y-46607200D01*
X35102800Y-46734200D01*
X35499353Y-46734200D01*
X35701448Y-46734200D01*
X35888159Y-46656861D01*
X36031062Y-46513958D01*
X36108400Y-46327247D01*
X36108400Y-47374179D01*
X35959179Y-47523400D01*
X35719620Y-47523400D01*
X35579010Y-47382790D01*
X35414203Y-47272669D01*
X35219800Y-47234000D01*
X35204400Y-47234000D01*
X34925000Y-47234000D01*
X34925000Y-46607200D01*
X34925000Y-45701600D01*
X34925000Y-45650800D01*
X34925000Y-44745200D01*
X34798000Y-44618200D01*
X34401447Y-44618200D01*
X34199352Y-44618200D01*
X34012641Y-44695539D01*
X33869738Y-44838442D01*
X33792400Y-45025153D01*
X33792400Y-45523800D01*
X33919400Y-45650800D01*
X34925000Y-45650800D01*
X34925000Y-45701600D01*
X33919400Y-45701600D01*
X33792400Y-45828600D01*
X33792400Y-46327247D01*
X33869738Y-46513958D01*
X34012641Y-46656861D01*
X34199352Y-46734200D01*
X34401447Y-46734200D01*
X34798000Y-46734200D01*
X34925000Y-46607200D01*
X34925000Y-47234000D01*
X33185000Y-47234000D01*
X33185000Y-46916214D01*
X33126996Y-46776180D01*
X33019819Y-46669004D01*
X32879785Y-46611000D01*
X32728214Y-46611000D01*
X31128214Y-46611000D01*
X31086748Y-46628175D01*
X31060233Y-46564002D01*
X30828219Y-46331583D01*
X30638000Y-46252596D01*
X30638000Y-43131000D01*
X30638000Y-42068000D01*
X30599331Y-41873597D01*
X30599331Y-41873596D01*
X30489210Y-41708790D01*
X30416407Y-41635987D01*
X30416643Y-41365518D01*
X30291233Y-41062002D01*
X30186913Y-40957500D01*
X30823000Y-40957500D01*
X30823000Y-40967786D01*
X30881004Y-41107820D01*
X30988181Y-41214996D01*
X31128215Y-41273000D01*
X31279786Y-41273000D01*
X32879786Y-41273000D01*
X32994512Y-41225478D01*
X32994357Y-41404482D01*
X33119767Y-41707998D01*
X33351781Y-41940417D01*
X33655077Y-42066357D01*
X33806668Y-42066489D01*
X33718643Y-42278477D01*
X33718357Y-42606882D01*
X33843767Y-42910398D01*
X33919400Y-42986163D01*
X33919400Y-44001986D01*
X33977404Y-44142020D01*
X34084581Y-44249196D01*
X34224615Y-44307200D01*
X34376186Y-44307200D01*
X35676186Y-44307200D01*
X35816220Y-44249196D01*
X35923396Y-44142019D01*
X35981400Y-44001985D01*
X35981400Y-43850414D01*
X35981400Y-42750414D01*
X35923396Y-42610380D01*
X35816219Y-42503204D01*
X35676185Y-42445200D01*
X35524614Y-42445200D01*
X35369499Y-42445200D01*
X35369643Y-42279918D01*
X35244233Y-41976402D01*
X35012219Y-41743983D01*
X34708923Y-41618043D01*
X34622633Y-41617967D01*
X34649210Y-41600210D01*
X35284210Y-40965210D01*
X35284211Y-40965210D01*
X35321205Y-40909843D01*
X39687545Y-44778361D01*
X39687357Y-44994482D01*
X39812767Y-45297998D01*
X40044781Y-45530417D01*
X40348077Y-45656357D01*
X40676482Y-45656643D01*
X40979998Y-45531233D01*
X41212417Y-45299219D01*
X41338357Y-44995923D01*
X41338643Y-44667518D01*
X41213233Y-44364002D01*
X40981219Y-44131583D01*
X40677923Y-44005643D01*
X40349518Y-44005357D01*
X40347903Y-44006024D01*
X38952843Y-42770020D01*
X39106057Y-42770154D01*
X39432920Y-42635097D01*
X39683218Y-42385236D01*
X39814275Y-42069617D01*
X41047829Y-43303171D01*
X41220877Y-43418797D01*
X41425000Y-43459400D01*
X41452117Y-43459400D01*
X41665751Y-43779124D01*
X42057167Y-44040661D01*
X42518875Y-44132500D01*
X42825125Y-44132500D01*
X43286833Y-44040661D01*
X43678249Y-43779124D01*
X43939786Y-43387708D01*
X43994000Y-43115154D01*
X43994000Y-45276845D01*
G36*
X43994000Y-50356845D02*
X43939786Y-50084292D01*
X43678249Y-49692876D01*
X43286833Y-49431339D01*
X42825125Y-49339500D01*
X42518875Y-49339500D01*
X42057167Y-49431339D01*
X41665751Y-49692876D01*
X41435145Y-50038000D01*
X37439600Y-50038000D01*
X37245197Y-50076669D01*
X37080390Y-50186790D01*
X36843109Y-50424070D01*
X36762009Y-50424071D01*
X36621975Y-50482075D01*
X36514798Y-50589251D01*
X35101306Y-52002744D01*
X35043302Y-52142778D01*
X35043303Y-52294348D01*
X35101307Y-52434382D01*
X35208483Y-52541559D01*
X35526384Y-52859460D01*
X35619509Y-52898033D01*
X35658083Y-52991158D01*
X35699300Y-53032375D01*
X35709131Y-53070262D01*
X35725669Y-53153403D01*
X35733903Y-53165726D01*
X35737626Y-53180073D01*
X35788697Y-53247731D01*
X35807990Y-53276604D01*
X35523518Y-53276357D01*
X35220002Y-53401767D01*
X35052021Y-53569454D01*
X35012219Y-53529583D01*
X34708923Y-53403643D01*
X34380518Y-53403357D01*
X34077002Y-53528767D01*
X33844583Y-53760781D01*
X33718643Y-54064077D01*
X33718357Y-54392482D01*
X33843767Y-54695998D01*
X34075781Y-54928417D01*
X34379077Y-55054357D01*
X34651173Y-55054593D01*
X35052000Y-55455420D01*
X35052000Y-60300433D01*
X35012219Y-60260583D01*
X34708923Y-60134643D01*
X34380518Y-60134357D01*
X34077002Y-60259767D01*
X33844583Y-60491781D01*
X33753885Y-60710203D01*
X33724955Y-60681273D01*
X33724955Y-60611042D01*
X33647618Y-60424331D01*
X33504715Y-60281428D01*
X33524978Y-60301692D01*
X33345373Y-60301692D01*
X32387180Y-61259885D01*
X32401322Y-61274027D01*
X32365401Y-61309948D01*
X32351259Y-61295806D01*
X32337116Y-61309948D01*
X32301195Y-61274027D01*
X32315338Y-61259885D01*
X32301195Y-61245742D01*
X32337116Y-61209821D01*
X32351259Y-61223964D01*
X33309452Y-60265771D01*
X33309452Y-60086166D01*
X33329716Y-60106429D01*
X33186813Y-59963526D01*
X33000102Y-59886189D01*
X32929869Y-59886189D01*
X32867018Y-59823337D01*
X32593442Y-59549761D01*
X32593442Y-59479530D01*
X32516105Y-59292819D01*
X32399646Y-59176360D01*
X32451766Y-59154825D01*
X32737821Y-58869269D01*
X32892824Y-58495982D01*
X32893176Y-58091792D01*
X32738825Y-57718234D01*
X32453269Y-57432179D01*
X32079982Y-57277176D01*
X31675792Y-57276824D01*
X31302234Y-57431175D01*
X31016179Y-57716731D01*
X30941135Y-57897453D01*
X30851849Y-57808167D01*
X30752373Y-57766963D01*
X30711170Y-57667489D01*
X30603994Y-57560312D01*
X30286093Y-57242411D01*
X30146058Y-57184407D01*
X29994488Y-57184408D01*
X29854454Y-57242412D01*
X29747277Y-57349588D01*
X29173761Y-57923104D01*
X28489310Y-57923104D01*
X28445786Y-57704292D01*
X28184249Y-57312876D01*
X27792833Y-57051339D01*
X27331125Y-56959500D01*
X27024875Y-56959500D01*
X26563167Y-57051339D01*
X26171751Y-57312876D01*
X25910214Y-57704292D01*
X25856000Y-57976845D01*
X25856000Y-55815154D01*
X25910214Y-56087708D01*
X26171751Y-56479124D01*
X26563167Y-56740661D01*
X27024875Y-56832500D01*
X27331125Y-56832500D01*
X27792833Y-56740661D01*
X28184249Y-56479124D01*
X28445786Y-56087708D01*
X28537625Y-55626000D01*
X28503051Y-55452186D01*
X29847271Y-56796405D01*
X29987305Y-56854409D01*
X30050188Y-56854408D01*
X30069990Y-56874210D01*
X30234797Y-56984331D01*
X30303796Y-56998055D01*
X30519781Y-57214417D01*
X30823077Y-57340357D01*
X31151482Y-57340643D01*
X31454998Y-57215233D01*
X31687417Y-56983219D01*
X31813357Y-56679923D01*
X31813643Y-56351518D01*
X31688233Y-56048002D01*
X31456219Y-55815583D01*
X31292673Y-55747672D01*
X31309677Y-55706620D01*
X31410421Y-55664891D01*
X31517598Y-55557715D01*
X31587515Y-55487797D01*
X31789781Y-55690417D01*
X32093077Y-55816357D01*
X32421482Y-55816643D01*
X32724998Y-55691233D01*
X32957417Y-55459219D01*
X33083357Y-55155923D01*
X33083643Y-54827518D01*
X32958233Y-54524002D01*
X32754949Y-54320363D01*
X32967011Y-54108302D01*
X33007688Y-54010096D01*
X33105893Y-53969419D01*
X33213070Y-53862243D01*
X33530971Y-53544342D01*
X33572700Y-53443597D01*
X33673446Y-53401867D01*
X33780623Y-53294691D01*
X34098524Y-52976790D01*
X34139201Y-52878584D01*
X34237406Y-52837907D01*
X34344583Y-52730731D01*
X34662484Y-52412830D01*
X34720488Y-52272795D01*
X34720487Y-52121225D01*
X34662483Y-51981191D01*
X34555307Y-51874014D01*
X34085272Y-51403980D01*
X34070122Y-51327812D01*
X33960001Y-51163005D01*
X33795194Y-51052884D01*
X33719025Y-51037733D01*
X33141814Y-50460522D01*
X33001780Y-50402518D01*
X32850210Y-50402519D01*
X32784116Y-50429896D01*
X31844257Y-49490037D01*
X32093077Y-49593357D01*
X32421482Y-49593643D01*
X32724998Y-49468233D01*
X32957417Y-49236219D01*
X33083357Y-48932923D01*
X33083515Y-48751300D01*
X33126996Y-48707819D01*
X33185000Y-48567785D01*
X33185000Y-48416214D01*
X33185000Y-48250000D01*
X35009379Y-48250000D01*
X35149989Y-48390610D01*
X35149990Y-48390610D01*
X35314796Y-48500731D01*
X35314797Y-48500731D01*
X35347049Y-48507146D01*
X35509200Y-48539400D01*
X36169600Y-48539400D01*
X36364003Y-48500731D01*
X36528810Y-48390610D01*
X36665000Y-48254420D01*
X36665000Y-48567786D01*
X36723004Y-48707820D01*
X36830181Y-48814996D01*
X36970215Y-48873000D01*
X37020407Y-48873000D01*
X37020357Y-48931482D01*
X37145767Y-49234998D01*
X37377781Y-49467417D01*
X37681077Y-49593357D01*
X38009482Y-49593643D01*
X38312998Y-49468233D01*
X38545417Y-49236219D01*
X38671357Y-48932923D01*
X38671409Y-48873000D01*
X38721786Y-48873000D01*
X38861820Y-48814996D01*
X38968996Y-48707819D01*
X39027000Y-48567785D01*
X39027000Y-48416214D01*
X39027000Y-48250000D01*
X41360909Y-48250000D01*
X41404214Y-48467708D01*
X41665751Y-48859124D01*
X42057167Y-49120661D01*
X42518875Y-49212500D01*
X42825125Y-49212500D01*
X43286833Y-49120661D01*
X43678249Y-48859124D01*
X43939786Y-48467708D01*
X43994000Y-48195154D01*
X43994000Y-50356845D01*
X43994000Y-50356845D01*
G37*
X43994000Y-50356845D02*
X43939786Y-50084292D01*
X43678249Y-49692876D01*
X43286833Y-49431339D01*
X42825125Y-49339500D01*
X42518875Y-49339500D01*
X42057167Y-49431339D01*
X41665751Y-49692876D01*
X41435145Y-50038000D01*
X37439600Y-50038000D01*
X37245197Y-50076669D01*
X37080390Y-50186790D01*
X36843109Y-50424070D01*
X36762009Y-50424071D01*
X36621975Y-50482075D01*
X36514798Y-50589251D01*
X35101306Y-52002744D01*
X35043302Y-52142778D01*
X35043303Y-52294348D01*
X35101307Y-52434382D01*
X35208483Y-52541559D01*
X35526384Y-52859460D01*
X35619509Y-52898033D01*
X35658083Y-52991158D01*
X35699300Y-53032375D01*
X35709131Y-53070262D01*
X35725669Y-53153403D01*
X35733903Y-53165726D01*
X35737626Y-53180073D01*
X35788697Y-53247731D01*
X35807990Y-53276604D01*
X35523518Y-53276357D01*
X35220002Y-53401767D01*
X35052021Y-53569454D01*
X35012219Y-53529583D01*
X34708923Y-53403643D01*
X34380518Y-53403357D01*
X34077002Y-53528767D01*
X33844583Y-53760781D01*
X33718643Y-54064077D01*
X33718357Y-54392482D01*
X33843767Y-54695998D01*
X34075781Y-54928417D01*
X34379077Y-55054357D01*
X34651173Y-55054593D01*
X35052000Y-55455420D01*
X35052000Y-60300433D01*
X35012219Y-60260583D01*
X34708923Y-60134643D01*
X34380518Y-60134357D01*
X34077002Y-60259767D01*
X33844583Y-60491781D01*
X33753885Y-60710203D01*
X33724955Y-60681273D01*
X33724955Y-60611042D01*
X33647618Y-60424331D01*
X33504715Y-60281428D01*
X33524978Y-60301692D01*
X33345373Y-60301692D01*
X32387180Y-61259885D01*
X32401322Y-61274027D01*
X32365401Y-61309948D01*
X32351259Y-61295806D01*
X32337116Y-61309948D01*
X32301195Y-61274027D01*
X32315338Y-61259885D01*
X32301195Y-61245742D01*
X32337116Y-61209821D01*
X32351259Y-61223964D01*
X33309452Y-60265771D01*
X33309452Y-60086166D01*
X33329716Y-60106429D01*
X33186813Y-59963526D01*
X33000102Y-59886189D01*
X32929869Y-59886189D01*
X32867018Y-59823337D01*
X32593442Y-59549761D01*
X32593442Y-59479530D01*
X32516105Y-59292819D01*
X32399646Y-59176360D01*
X32451766Y-59154825D01*
X32737821Y-58869269D01*
X32892824Y-58495982D01*
X32893176Y-58091792D01*
X32738825Y-57718234D01*
X32453269Y-57432179D01*
X32079982Y-57277176D01*
X31675792Y-57276824D01*
X31302234Y-57431175D01*
X31016179Y-57716731D01*
X30941135Y-57897453D01*
X30851849Y-57808167D01*
X30752373Y-57766963D01*
X30711170Y-57667489D01*
X30603994Y-57560312D01*
X30286093Y-57242411D01*
X30146058Y-57184407D01*
X29994488Y-57184408D01*
X29854454Y-57242412D01*
X29747277Y-57349588D01*
X29173761Y-57923104D01*
X28489310Y-57923104D01*
X28445786Y-57704292D01*
X28184249Y-57312876D01*
X27792833Y-57051339D01*
X27331125Y-56959500D01*
X27024875Y-56959500D01*
X26563167Y-57051339D01*
X26171751Y-57312876D01*
X25910214Y-57704292D01*
X25856000Y-57976845D01*
X25856000Y-55815154D01*
X25910214Y-56087708D01*
X26171751Y-56479124D01*
X26563167Y-56740661D01*
X27024875Y-56832500D01*
X27331125Y-56832500D01*
X27792833Y-56740661D01*
X28184249Y-56479124D01*
X28445786Y-56087708D01*
X28537625Y-55626000D01*
X28503051Y-55452186D01*
X29847271Y-56796405D01*
X29987305Y-56854409D01*
X30050188Y-56854408D01*
X30069990Y-56874210D01*
X30234797Y-56984331D01*
X30303796Y-56998055D01*
X30519781Y-57214417D01*
X30823077Y-57340357D01*
X31151482Y-57340643D01*
X31454998Y-57215233D01*
X31687417Y-56983219D01*
X31813357Y-56679923D01*
X31813643Y-56351518D01*
X31688233Y-56048002D01*
X31456219Y-55815583D01*
X31292673Y-55747672D01*
X31309677Y-55706620D01*
X31410421Y-55664891D01*
X31517598Y-55557715D01*
X31587515Y-55487797D01*
X31789781Y-55690417D01*
X32093077Y-55816357D01*
X32421482Y-55816643D01*
X32724998Y-55691233D01*
X32957417Y-55459219D01*
X33083357Y-55155923D01*
X33083643Y-54827518D01*
X32958233Y-54524002D01*
X32754949Y-54320363D01*
X32967011Y-54108302D01*
X33007688Y-54010096D01*
X33105893Y-53969419D01*
X33213070Y-53862243D01*
X33530971Y-53544342D01*
X33572700Y-53443597D01*
X33673446Y-53401867D01*
X33780623Y-53294691D01*
X34098524Y-52976790D01*
X34139201Y-52878584D01*
X34237406Y-52837907D01*
X34344583Y-52730731D01*
X34662484Y-52412830D01*
X34720488Y-52272795D01*
X34720487Y-52121225D01*
X34662483Y-51981191D01*
X34555307Y-51874014D01*
X34085272Y-51403980D01*
X34070122Y-51327812D01*
X33960001Y-51163005D01*
X33795194Y-51052884D01*
X33719025Y-51037733D01*
X33141814Y-50460522D01*
X33001780Y-50402518D01*
X32850210Y-50402519D01*
X32784116Y-50429896D01*
X31844257Y-49490037D01*
X32093077Y-49593357D01*
X32421482Y-49593643D01*
X32724998Y-49468233D01*
X32957417Y-49236219D01*
X33083357Y-48932923D01*
X33083515Y-48751300D01*
X33126996Y-48707819D01*
X33185000Y-48567785D01*
X33185000Y-48416214D01*
X33185000Y-48250000D01*
X35009379Y-48250000D01*
X35149989Y-48390610D01*
X35149990Y-48390610D01*
X35314796Y-48500731D01*
X35314797Y-48500731D01*
X35347049Y-48507146D01*
X35509200Y-48539400D01*
X36169600Y-48539400D01*
X36364003Y-48500731D01*
X36528810Y-48390610D01*
X36665000Y-48254420D01*
X36665000Y-48567786D01*
X36723004Y-48707820D01*
X36830181Y-48814996D01*
X36970215Y-48873000D01*
X37020407Y-48873000D01*
X37020357Y-48931482D01*
X37145767Y-49234998D01*
X37377781Y-49467417D01*
X37681077Y-49593357D01*
X38009482Y-49593643D01*
X38312998Y-49468233D01*
X38545417Y-49236219D01*
X38671357Y-48932923D01*
X38671409Y-48873000D01*
X38721786Y-48873000D01*
X38861820Y-48814996D01*
X38968996Y-48707819D01*
X39027000Y-48567785D01*
X39027000Y-48416214D01*
X39027000Y-48250000D01*
X41360909Y-48250000D01*
X41404214Y-48467708D01*
X41665751Y-48859124D01*
X42057167Y-49120661D01*
X42518875Y-49212500D01*
X42825125Y-49212500D01*
X43286833Y-49120661D01*
X43678249Y-48859124D01*
X43939786Y-48467708D01*
X43994000Y-48195154D01*
X43994000Y-50356845D01*
G36*
X61749809Y-60142515D02*
X61713888Y-60178436D01*
X61699746Y-60164294D01*
X61685603Y-60178436D01*
X61649682Y-60142515D01*
X61663825Y-60128373D01*
X61649682Y-60114230D01*
X61685603Y-60078309D01*
X61699746Y-60092452D01*
X61713888Y-60078309D01*
X61749809Y-60114230D01*
X61735667Y-60128373D01*
X61749809Y-60142515D01*
X61749809Y-60142515D01*
G37*
X61749809Y-60142515D02*
X61713888Y-60178436D01*
X61699746Y-60164294D01*
X61685603Y-60178436D01*
X61649682Y-60142515D01*
X61663825Y-60128373D01*
X61649682Y-60114230D01*
X61685603Y-60078309D01*
X61699746Y-60092452D01*
X61713888Y-60078309D01*
X61749809Y-60114230D01*
X61735667Y-60128373D01*
X61749809Y-60142515D01*
G36*
X61849876Y-63500000D02*
X61468000Y-63500000D01*
X61273597Y-63538669D01*
X61108790Y-63648790D01*
X59479580Y-65278000D01*
X58894854Y-65278000D01*
X58664249Y-64932876D01*
X58272833Y-64671339D01*
X57811125Y-64579500D01*
X57504875Y-64579500D01*
X57043167Y-64671339D01*
X56651751Y-64932876D01*
X56390214Y-65324292D01*
X56336000Y-65596845D01*
X56336000Y-63435154D01*
X56390214Y-63707708D01*
X56651751Y-64099124D01*
X57043167Y-64360661D01*
X57504875Y-64452500D01*
X57811125Y-64452500D01*
X58272833Y-64360661D01*
X58664249Y-64099124D01*
X58925786Y-63707708D01*
X59017625Y-63246000D01*
X58932313Y-62817106D01*
X59270420Y-62479000D01*
X59450697Y-62479000D01*
X59641781Y-62670417D01*
X59945077Y-62796357D01*
X60273482Y-62796643D01*
X60576998Y-62671233D01*
X60809417Y-62439219D01*
X60935357Y-62135923D01*
X60935445Y-62034616D01*
X60960000Y-62039501D01*
X60960000Y-62039500D01*
X60960005Y-62039500D01*
X61340994Y-62039500D01*
X61341000Y-62039501D01*
X61341000Y-62039500D01*
X61498733Y-62008124D01*
X61534900Y-62095439D01*
X61677803Y-62238342D01*
X61657540Y-62218078D01*
X61837142Y-62218078D01*
X61747341Y-62307879D01*
X61759679Y-62320217D01*
X61682983Y-62396781D01*
X61557043Y-62700077D01*
X61556757Y-63028482D01*
X61682167Y-63331998D01*
X61849876Y-63500000D01*
X61849876Y-63500000D01*
G37*
X61849876Y-63500000D02*
X61468000Y-63500000D01*
X61273597Y-63538669D01*
X61108790Y-63648790D01*
X59479580Y-65278000D01*
X58894854Y-65278000D01*
X58664249Y-64932876D01*
X58272833Y-64671339D01*
X57811125Y-64579500D01*
X57504875Y-64579500D01*
X57043167Y-64671339D01*
X56651751Y-64932876D01*
X56390214Y-65324292D01*
X56336000Y-65596845D01*
X56336000Y-63435154D01*
X56390214Y-63707708D01*
X56651751Y-64099124D01*
X57043167Y-64360661D01*
X57504875Y-64452500D01*
X57811125Y-64452500D01*
X58272833Y-64360661D01*
X58664249Y-64099124D01*
X58925786Y-63707708D01*
X59017625Y-63246000D01*
X58932313Y-62817106D01*
X59270420Y-62479000D01*
X59450697Y-62479000D01*
X59641781Y-62670417D01*
X59945077Y-62796357D01*
X60273482Y-62796643D01*
X60576998Y-62671233D01*
X60809417Y-62439219D01*
X60935357Y-62135923D01*
X60935445Y-62034616D01*
X60960000Y-62039501D01*
X60960000Y-62039500D01*
X60960005Y-62039500D01*
X61340994Y-62039500D01*
X61341000Y-62039501D01*
X61341000Y-62039500D01*
X61498733Y-62008124D01*
X61534900Y-62095439D01*
X61677803Y-62238342D01*
X61657540Y-62218078D01*
X61837142Y-62218078D01*
X61747341Y-62307879D01*
X61759679Y-62320217D01*
X61682983Y-62396781D01*
X61557043Y-62700077D01*
X61556757Y-63028482D01*
X61682167Y-63331998D01*
X61849876Y-63500000D01*
G36*
X62566085Y-69575573D02*
X62131806Y-69744989D01*
X61745611Y-70115480D01*
X61620905Y-70399717D01*
X60741858Y-69519134D01*
X59552004Y-69025063D01*
X58767646Y-69024378D01*
X58925786Y-68787708D01*
X59017625Y-68326000D01*
X58951386Y-67992993D01*
X58967781Y-68009417D01*
X59271077Y-68135357D01*
X59599482Y-68135643D01*
X59902998Y-68010233D01*
X60135417Y-67778219D01*
X60261357Y-67474923D01*
X60261443Y-67375351D01*
X60422000Y-67230296D01*
X60422000Y-68091000D01*
X60460669Y-68285403D01*
X60570790Y-68450210D01*
X61313790Y-69193210D01*
X61478597Y-69303331D01*
X61673000Y-69342000D01*
X62383233Y-69342000D01*
X62418767Y-69427998D01*
X62566085Y-69575573D01*
X62566085Y-69575573D01*
G37*
X62566085Y-69575573D02*
X62131806Y-69744989D01*
X61745611Y-70115480D01*
X61620905Y-70399717D01*
X60741858Y-69519134D01*
X59552004Y-69025063D01*
X58767646Y-69024378D01*
X58925786Y-68787708D01*
X59017625Y-68326000D01*
X58951386Y-67992993D01*
X58967781Y-68009417D01*
X59271077Y-68135357D01*
X59599482Y-68135643D01*
X59902998Y-68010233D01*
X60135417Y-67778219D01*
X60261357Y-67474923D01*
X60261443Y-67375351D01*
X60422000Y-67230296D01*
X60422000Y-68091000D01*
X60460669Y-68285403D01*
X60570790Y-68450210D01*
X61313790Y-69193210D01*
X61478597Y-69303331D01*
X61673000Y-69342000D01*
X62383233Y-69342000D01*
X62418767Y-69427998D01*
X62566085Y-69575573D01*
G36*
X62915400Y-70926400D02*
X62895400Y-70926400D01*
X62895400Y-70946400D01*
X62844600Y-70946400D01*
X62844600Y-70926400D01*
X62824600Y-70926400D01*
X62824600Y-70875600D01*
X62844600Y-70875600D01*
X62844600Y-70855600D01*
X62895400Y-70855600D01*
X62895400Y-70875600D01*
X62915400Y-70875600D01*
X62915400Y-70926400D01*
X62915400Y-70926400D01*
G37*
X62915400Y-70926400D02*
X62895400Y-70926400D01*
X62895400Y-70946400D01*
X62844600Y-70946400D01*
X62844600Y-70926400D01*
X62824600Y-70926400D01*
X62824600Y-70875600D01*
X62844600Y-70875600D01*
X62844600Y-70855600D01*
X62895400Y-70855600D01*
X62895400Y-70875600D01*
X62915400Y-70875600D01*
X62915400Y-70926400D01*
G36*
X70214599Y-55079446D02*
X70178678Y-55115367D01*
X70164536Y-55101225D01*
X69206343Y-56059418D01*
X69206343Y-56239023D01*
X69186079Y-56218760D01*
X69328982Y-56361663D01*
X69515693Y-56439000D01*
X69537780Y-56439000D01*
X69499787Y-56476992D01*
X69229318Y-56476757D01*
X68925802Y-56602167D01*
X68693383Y-56834181D01*
X68567443Y-57137477D01*
X68567157Y-57465882D01*
X68692567Y-57769398D01*
X68924581Y-58001817D01*
X69138287Y-58090556D01*
X68993803Y-58235041D01*
X68949968Y-58340867D01*
X68844145Y-58384701D01*
X68736968Y-58491877D01*
X68419067Y-58809778D01*
X68375233Y-58915602D01*
X68269408Y-58959437D01*
X68162231Y-59066613D01*
X67844330Y-59384514D01*
X67805756Y-59477640D01*
X67712633Y-59516213D01*
X67605456Y-59623389D01*
X67339132Y-59889712D01*
X67056000Y-59606579D01*
X67056000Y-55271368D01*
X67145077Y-55308357D01*
X67264579Y-55308461D01*
X67264357Y-55564482D01*
X67389767Y-55867998D01*
X67621781Y-56100417D01*
X67925077Y-56226357D01*
X68253482Y-56226643D01*
X68556998Y-56101233D01*
X68789417Y-55869219D01*
X68822285Y-55790063D01*
X68868177Y-55900858D01*
X69011080Y-56043761D01*
X68990817Y-56023497D01*
X69170422Y-56023497D01*
X70128615Y-55065304D01*
X70114472Y-55051161D01*
X70150393Y-55015240D01*
X70164536Y-55029383D01*
X70178678Y-55015240D01*
X70214599Y-55051161D01*
X70200457Y-55065304D01*
X70214599Y-55079446D01*
X70214599Y-55079446D01*
G37*
X70214599Y-55079446D02*
X70178678Y-55115367D01*
X70164536Y-55101225D01*
X69206343Y-56059418D01*
X69206343Y-56239023D01*
X69186079Y-56218760D01*
X69328982Y-56361663D01*
X69515693Y-56439000D01*
X69537780Y-56439000D01*
X69499787Y-56476992D01*
X69229318Y-56476757D01*
X68925802Y-56602167D01*
X68693383Y-56834181D01*
X68567443Y-57137477D01*
X68567157Y-57465882D01*
X68692567Y-57769398D01*
X68924581Y-58001817D01*
X69138287Y-58090556D01*
X68993803Y-58235041D01*
X68949968Y-58340867D01*
X68844145Y-58384701D01*
X68736968Y-58491877D01*
X68419067Y-58809778D01*
X68375233Y-58915602D01*
X68269408Y-58959437D01*
X68162231Y-59066613D01*
X67844330Y-59384514D01*
X67805756Y-59477640D01*
X67712633Y-59516213D01*
X67605456Y-59623389D01*
X67339132Y-59889712D01*
X67056000Y-59606579D01*
X67056000Y-55271368D01*
X67145077Y-55308357D01*
X67264579Y-55308461D01*
X67264357Y-55564482D01*
X67389767Y-55867998D01*
X67621781Y-56100417D01*
X67925077Y-56226357D01*
X68253482Y-56226643D01*
X68556998Y-56101233D01*
X68789417Y-55869219D01*
X68822285Y-55790063D01*
X68868177Y-55900858D01*
X69011080Y-56043761D01*
X68990817Y-56023497D01*
X69170422Y-56023497D01*
X70128615Y-55065304D01*
X70114472Y-55051161D01*
X70150393Y-55015240D01*
X70164536Y-55029383D01*
X70178678Y-55015240D01*
X70214599Y-55051161D01*
X70200457Y-55065304D01*
X70214599Y-55079446D01*
G36*
X73197400Y-40411400D02*
X73177400Y-40411400D01*
X73177400Y-40431400D01*
X73126600Y-40431400D01*
X73126600Y-40411400D01*
X71818767Y-40411400D01*
X71712130Y-40619655D01*
X71783287Y-40872842D01*
X72064113Y-41310966D01*
X72491225Y-41608273D01*
X72999600Y-41719500D01*
X72998875Y-41719500D01*
X72537167Y-41811339D01*
X72145751Y-42072876D01*
X72009752Y-42276410D01*
X70512171Y-40778829D01*
X70512167Y-40778826D01*
X70342096Y-40608755D01*
X70460145Y-40529878D01*
X70776057Y-40530154D01*
X71102920Y-40395097D01*
X71353218Y-40145236D01*
X71488846Y-39818609D01*
X71489122Y-39501138D01*
X72038099Y-39501617D01*
X71783287Y-39899158D01*
X71712130Y-40152345D01*
X71818767Y-40360600D01*
X73126600Y-40360600D01*
X73126600Y-40340600D01*
X73177400Y-40340600D01*
X73177400Y-40360600D01*
X73197400Y-40360600D01*
X73197400Y-40411400D01*
X73197400Y-40411400D01*
G37*
X73197400Y-40411400D02*
X73177400Y-40411400D01*
X73177400Y-40431400D01*
X73126600Y-40431400D01*
X73126600Y-40411400D01*
X71818767Y-40411400D01*
X71712130Y-40619655D01*
X71783287Y-40872842D01*
X72064113Y-41310966D01*
X72491225Y-41608273D01*
X72999600Y-41719500D01*
X72998875Y-41719500D01*
X72537167Y-41811339D01*
X72145751Y-42072876D01*
X72009752Y-42276410D01*
X70512171Y-40778829D01*
X70512167Y-40778826D01*
X70342096Y-40608755D01*
X70460145Y-40529878D01*
X70776057Y-40530154D01*
X71102920Y-40395097D01*
X71353218Y-40145236D01*
X71488846Y-39818609D01*
X71489122Y-39501138D01*
X72038099Y-39501617D01*
X71783287Y-39899158D01*
X71712130Y-40152345D01*
X71818767Y-40360600D01*
X73126600Y-40360600D01*
X73126600Y-40340600D01*
X73177400Y-40340600D01*
X73177400Y-40360600D01*
X73197400Y-40360600D01*
X73197400Y-40411400D01*
G36*
X74474000Y-45276845D02*
X74419786Y-45004292D01*
X74158249Y-44612876D01*
X73766833Y-44351339D01*
X73305125Y-44259500D01*
X72998875Y-44259500D01*
X72537167Y-44351339D01*
X72145751Y-44612876D01*
X71884214Y-45004292D01*
X71792375Y-45466000D01*
X71877686Y-45894893D01*
X71798580Y-45974000D01*
X67183000Y-45974000D01*
X66988596Y-46012669D01*
X66823790Y-46122790D01*
X66747590Y-46198990D01*
X66637469Y-46363797D01*
X66598800Y-46558200D01*
X66598800Y-47363779D01*
X66588400Y-47374179D01*
X66588400Y-46327247D01*
X66588400Y-45828600D01*
X66588400Y-45523800D01*
X66588400Y-45025153D01*
X66511062Y-44838442D01*
X66368159Y-44695539D01*
X66181448Y-44618200D01*
X65979353Y-44618200D01*
X65582800Y-44618200D01*
X65455800Y-44745200D01*
X65455800Y-45650800D01*
X66461400Y-45650800D01*
X66588400Y-45523800D01*
X66588400Y-45828600D01*
X66461400Y-45701600D01*
X65455800Y-45701600D01*
X65455800Y-46607200D01*
X65582800Y-46734200D01*
X65979353Y-46734200D01*
X66181448Y-46734200D01*
X66368159Y-46656861D01*
X66511062Y-46513958D01*
X66588400Y-46327247D01*
X66588400Y-47374179D01*
X66439179Y-47523400D01*
X66199620Y-47523400D01*
X66059010Y-47382790D01*
X65894203Y-47272669D01*
X65699800Y-47234000D01*
X65684400Y-47234000D01*
X65405000Y-47234000D01*
X65405000Y-46607200D01*
X65405000Y-45701600D01*
X65405000Y-45650800D01*
X65405000Y-44745200D01*
X65278000Y-44618200D01*
X64881447Y-44618200D01*
X64679352Y-44618200D01*
X64492641Y-44695539D01*
X64349738Y-44838442D01*
X64272400Y-45025153D01*
X64272400Y-45523800D01*
X64399400Y-45650800D01*
X65405000Y-45650800D01*
X65405000Y-45701600D01*
X64399400Y-45701600D01*
X64272400Y-45828600D01*
X64272400Y-46327247D01*
X64349738Y-46513958D01*
X64492641Y-46656861D01*
X64679352Y-46734200D01*
X64881447Y-46734200D01*
X65278000Y-46734200D01*
X65405000Y-46607200D01*
X65405000Y-47234000D01*
X63665000Y-47234000D01*
X63665000Y-46916214D01*
X63606996Y-46776180D01*
X63499819Y-46669004D01*
X63359785Y-46611000D01*
X63208214Y-46611000D01*
X61608214Y-46611000D01*
X61566748Y-46628175D01*
X61540233Y-46564002D01*
X61308219Y-46331583D01*
X61118000Y-46252596D01*
X61118000Y-43131000D01*
X61118000Y-42068000D01*
X61079331Y-41873597D01*
X61079331Y-41873596D01*
X60969210Y-41708790D01*
X60896407Y-41635987D01*
X60896643Y-41365518D01*
X60771233Y-41062002D01*
X60666913Y-40957500D01*
X61303000Y-40957500D01*
X61303000Y-40967786D01*
X61361004Y-41107820D01*
X61468181Y-41214996D01*
X61608215Y-41273000D01*
X61759786Y-41273000D01*
X63359786Y-41273000D01*
X63474512Y-41225478D01*
X63474357Y-41404482D01*
X63599767Y-41707998D01*
X63831781Y-41940417D01*
X64135077Y-42066357D01*
X64286668Y-42066489D01*
X64198643Y-42278477D01*
X64198357Y-42606882D01*
X64323767Y-42910398D01*
X64399400Y-42986163D01*
X64399400Y-44001986D01*
X64457404Y-44142020D01*
X64564581Y-44249196D01*
X64704615Y-44307200D01*
X64856186Y-44307200D01*
X66156186Y-44307200D01*
X66296220Y-44249196D01*
X66403396Y-44142019D01*
X66461400Y-44001985D01*
X66461400Y-43850414D01*
X66461400Y-42750414D01*
X66403396Y-42610380D01*
X66296219Y-42503204D01*
X66156185Y-42445200D01*
X66004614Y-42445200D01*
X65849499Y-42445200D01*
X65849643Y-42279918D01*
X65724233Y-41976402D01*
X65492219Y-41743983D01*
X65188923Y-41618043D01*
X65102633Y-41617967D01*
X65129210Y-41600210D01*
X65764210Y-40965210D01*
X65764211Y-40965210D01*
X65801205Y-40909843D01*
X70167545Y-44778361D01*
X70167357Y-44994482D01*
X70292767Y-45297998D01*
X70524781Y-45530417D01*
X70828077Y-45656357D01*
X71156482Y-45656643D01*
X71459998Y-45531233D01*
X71692417Y-45299219D01*
X71818357Y-44995923D01*
X71818643Y-44667518D01*
X71693233Y-44364002D01*
X71461219Y-44131583D01*
X71157923Y-44005643D01*
X70829518Y-44005357D01*
X70827903Y-44006024D01*
X69432843Y-42770020D01*
X69586057Y-42770154D01*
X69912920Y-42635097D01*
X70163218Y-42385236D01*
X70294275Y-42069617D01*
X71527829Y-43303171D01*
X71700877Y-43418797D01*
X71905000Y-43459400D01*
X71932117Y-43459400D01*
X72145751Y-43779124D01*
X72537167Y-44040661D01*
X72998875Y-44132500D01*
X73305125Y-44132500D01*
X73766833Y-44040661D01*
X74158249Y-43779124D01*
X74419786Y-43387708D01*
X74474000Y-43115154D01*
X74474000Y-45276845D01*
X74474000Y-45276845D01*
G37*
X74474000Y-45276845D02*
X74419786Y-45004292D01*
X74158249Y-44612876D01*
X73766833Y-44351339D01*
X73305125Y-44259500D01*
X72998875Y-44259500D01*
X72537167Y-44351339D01*
X72145751Y-44612876D01*
X71884214Y-45004292D01*
X71792375Y-45466000D01*
X71877686Y-45894893D01*
X71798580Y-45974000D01*
X67183000Y-45974000D01*
X66988596Y-46012669D01*
X66823790Y-46122790D01*
X66747590Y-46198990D01*
X66637469Y-46363797D01*
X66598800Y-46558200D01*
X66598800Y-47363779D01*
X66588400Y-47374179D01*
X66588400Y-46327247D01*
X66588400Y-45828600D01*
X66588400Y-45523800D01*
X66588400Y-45025153D01*
X66511062Y-44838442D01*
X66368159Y-44695539D01*
X66181448Y-44618200D01*
X65979353Y-44618200D01*
X65582800Y-44618200D01*
X65455800Y-44745200D01*
X65455800Y-45650800D01*
X66461400Y-45650800D01*
X66588400Y-45523800D01*
X66588400Y-45828600D01*
X66461400Y-45701600D01*
X65455800Y-45701600D01*
X65455800Y-46607200D01*
X65582800Y-46734200D01*
X65979353Y-46734200D01*
X66181448Y-46734200D01*
X66368159Y-46656861D01*
X66511062Y-46513958D01*
X66588400Y-46327247D01*
X66588400Y-47374179D01*
X66439179Y-47523400D01*
X66199620Y-47523400D01*
X66059010Y-47382790D01*
X65894203Y-47272669D01*
X65699800Y-47234000D01*
X65684400Y-47234000D01*
X65405000Y-47234000D01*
X65405000Y-46607200D01*
X65405000Y-45701600D01*
X65405000Y-45650800D01*
X65405000Y-44745200D01*
X65278000Y-44618200D01*
X64881447Y-44618200D01*
X64679352Y-44618200D01*
X64492641Y-44695539D01*
X64349738Y-44838442D01*
X64272400Y-45025153D01*
X64272400Y-45523800D01*
X64399400Y-45650800D01*
X65405000Y-45650800D01*
X65405000Y-45701600D01*
X64399400Y-45701600D01*
X64272400Y-45828600D01*
X64272400Y-46327247D01*
X64349738Y-46513958D01*
X64492641Y-46656861D01*
X64679352Y-46734200D01*
X64881447Y-46734200D01*
X65278000Y-46734200D01*
X65405000Y-46607200D01*
X65405000Y-47234000D01*
X63665000Y-47234000D01*
X63665000Y-46916214D01*
X63606996Y-46776180D01*
X63499819Y-46669004D01*
X63359785Y-46611000D01*
X63208214Y-46611000D01*
X61608214Y-46611000D01*
X61566748Y-46628175D01*
X61540233Y-46564002D01*
X61308219Y-46331583D01*
X61118000Y-46252596D01*
X61118000Y-43131000D01*
X61118000Y-42068000D01*
X61079331Y-41873597D01*
X61079331Y-41873596D01*
X60969210Y-41708790D01*
X60896407Y-41635987D01*
X60896643Y-41365518D01*
X60771233Y-41062002D01*
X60666913Y-40957500D01*
X61303000Y-40957500D01*
X61303000Y-40967786D01*
X61361004Y-41107820D01*
X61468181Y-41214996D01*
X61608215Y-41273000D01*
X61759786Y-41273000D01*
X63359786Y-41273000D01*
X63474512Y-41225478D01*
X63474357Y-41404482D01*
X63599767Y-41707998D01*
X63831781Y-41940417D01*
X64135077Y-42066357D01*
X64286668Y-42066489D01*
X64198643Y-42278477D01*
X64198357Y-42606882D01*
X64323767Y-42910398D01*
X64399400Y-42986163D01*
X64399400Y-44001986D01*
X64457404Y-44142020D01*
X64564581Y-44249196D01*
X64704615Y-44307200D01*
X64856186Y-44307200D01*
X66156186Y-44307200D01*
X66296220Y-44249196D01*
X66403396Y-44142019D01*
X66461400Y-44001985D01*
X66461400Y-43850414D01*
X66461400Y-42750414D01*
X66403396Y-42610380D01*
X66296219Y-42503204D01*
X66156185Y-42445200D01*
X66004614Y-42445200D01*
X65849499Y-42445200D01*
X65849643Y-42279918D01*
X65724233Y-41976402D01*
X65492219Y-41743983D01*
X65188923Y-41618043D01*
X65102633Y-41617967D01*
X65129210Y-41600210D01*
X65764210Y-40965210D01*
X65764211Y-40965210D01*
X65801205Y-40909843D01*
X70167545Y-44778361D01*
X70167357Y-44994482D01*
X70292767Y-45297998D01*
X70524781Y-45530417D01*
X70828077Y-45656357D01*
X71156482Y-45656643D01*
X71459998Y-45531233D01*
X71692417Y-45299219D01*
X71818357Y-44995923D01*
X71818643Y-44667518D01*
X71693233Y-44364002D01*
X71461219Y-44131583D01*
X71157923Y-44005643D01*
X70829518Y-44005357D01*
X70827903Y-44006024D01*
X69432843Y-42770020D01*
X69586057Y-42770154D01*
X69912920Y-42635097D01*
X70163218Y-42385236D01*
X70294275Y-42069617D01*
X71527829Y-43303171D01*
X71700877Y-43418797D01*
X71905000Y-43459400D01*
X71932117Y-43459400D01*
X72145751Y-43779124D01*
X72537167Y-44040661D01*
X72998875Y-44132500D01*
X73305125Y-44132500D01*
X73766833Y-44040661D01*
X74158249Y-43779124D01*
X74419786Y-43387708D01*
X74474000Y-43115154D01*
X74474000Y-45276845D01*
G36*
X74474000Y-50356845D02*
X74419786Y-50084292D01*
X74158249Y-49692876D01*
X73766833Y-49431339D01*
X73305125Y-49339500D01*
X72998875Y-49339500D01*
X72537167Y-49431339D01*
X72145751Y-49692876D01*
X71915145Y-50038000D01*
X67919600Y-50038000D01*
X67725197Y-50076669D01*
X67560390Y-50186790D01*
X67323109Y-50424070D01*
X67242009Y-50424071D01*
X67101975Y-50482075D01*
X66994798Y-50589251D01*
X65581306Y-52002744D01*
X65523302Y-52142778D01*
X65523303Y-52294348D01*
X65581307Y-52434382D01*
X65688483Y-52541559D01*
X66006384Y-52859460D01*
X66099509Y-52898033D01*
X66138083Y-52991158D01*
X66179300Y-53032375D01*
X66189131Y-53070262D01*
X66205669Y-53153403D01*
X66213903Y-53165726D01*
X66217626Y-53180073D01*
X66268697Y-53247731D01*
X66287990Y-53276604D01*
X66003518Y-53276357D01*
X65700002Y-53401767D01*
X65532021Y-53569454D01*
X65492219Y-53529583D01*
X65188923Y-53403643D01*
X64860518Y-53403357D01*
X64557002Y-53528767D01*
X64324583Y-53760781D01*
X64198643Y-54064077D01*
X64198357Y-54392482D01*
X64323767Y-54695998D01*
X64555781Y-54928417D01*
X64859077Y-55054357D01*
X65131173Y-55054593D01*
X65532000Y-55455420D01*
X65532000Y-60300433D01*
X65492219Y-60260583D01*
X65188923Y-60134643D01*
X64860518Y-60134357D01*
X64557002Y-60259767D01*
X64324583Y-60491781D01*
X64233885Y-60710203D01*
X64204955Y-60681273D01*
X64204955Y-60611042D01*
X64127618Y-60424331D01*
X63984715Y-60281428D01*
X64004978Y-60301692D01*
X63825373Y-60301692D01*
X62867180Y-61259885D01*
X62881322Y-61274027D01*
X62845401Y-61309948D01*
X62831259Y-61295806D01*
X62817116Y-61309948D01*
X62781195Y-61274027D01*
X62795338Y-61259885D01*
X62781195Y-61245742D01*
X62817116Y-61209821D01*
X62831259Y-61223964D01*
X63789452Y-60265771D01*
X63789452Y-60086166D01*
X63809716Y-60106429D01*
X63666813Y-59963526D01*
X63480102Y-59886189D01*
X63409869Y-59886189D01*
X63347018Y-59823337D01*
X63073442Y-59549761D01*
X63073442Y-59479530D01*
X62996105Y-59292819D01*
X62879646Y-59176360D01*
X62931766Y-59154825D01*
X63217821Y-58869269D01*
X63372824Y-58495982D01*
X63373176Y-58091792D01*
X63218825Y-57718234D01*
X62933269Y-57432179D01*
X62559982Y-57277176D01*
X62155792Y-57276824D01*
X61782234Y-57431175D01*
X61496179Y-57716731D01*
X61421135Y-57897453D01*
X61331849Y-57808167D01*
X61232373Y-57766963D01*
X61191170Y-57667489D01*
X61083994Y-57560312D01*
X60766093Y-57242411D01*
X60626058Y-57184407D01*
X60474488Y-57184408D01*
X60334454Y-57242412D01*
X60227277Y-57349588D01*
X59653761Y-57923104D01*
X58969310Y-57923104D01*
X58925786Y-57704292D01*
X58664249Y-57312876D01*
X58272833Y-57051339D01*
X57811125Y-56959500D01*
X57504875Y-56959500D01*
X57043167Y-57051339D01*
X56651751Y-57312876D01*
X56390214Y-57704292D01*
X56336000Y-57976845D01*
X56336000Y-55815154D01*
X56390214Y-56087708D01*
X56651751Y-56479124D01*
X57043167Y-56740661D01*
X57504875Y-56832500D01*
X57811125Y-56832500D01*
X58272833Y-56740661D01*
X58664249Y-56479124D01*
X58925786Y-56087708D01*
X59017625Y-55626000D01*
X58983051Y-55452186D01*
X60327271Y-56796405D01*
X60467305Y-56854409D01*
X60530188Y-56854408D01*
X60549990Y-56874210D01*
X60714797Y-56984331D01*
X60783796Y-56998055D01*
X60999781Y-57214417D01*
X61303077Y-57340357D01*
X61631482Y-57340643D01*
X61934998Y-57215233D01*
X62167417Y-56983219D01*
X62293357Y-56679923D01*
X62293643Y-56351518D01*
X62168233Y-56048002D01*
X61936219Y-55815583D01*
X61772673Y-55747672D01*
X61789677Y-55706620D01*
X61890421Y-55664891D01*
X61997598Y-55557715D01*
X62067515Y-55487797D01*
X62269781Y-55690417D01*
X62573077Y-55816357D01*
X62901482Y-55816643D01*
X63204998Y-55691233D01*
X63437417Y-55459219D01*
X63563357Y-55155923D01*
X63563643Y-54827518D01*
X63438233Y-54524002D01*
X63234949Y-54320363D01*
X63447011Y-54108302D01*
X63487688Y-54010096D01*
X63585893Y-53969419D01*
X63693070Y-53862243D01*
X64010971Y-53544342D01*
X64052700Y-53443597D01*
X64153446Y-53401867D01*
X64260623Y-53294691D01*
X64578524Y-52976790D01*
X64619201Y-52878584D01*
X64717406Y-52837907D01*
X64824583Y-52730731D01*
X65142484Y-52412830D01*
X65200488Y-52272795D01*
X65200487Y-52121225D01*
X65142483Y-51981191D01*
X65035307Y-51874014D01*
X64565272Y-51403980D01*
X64550122Y-51327812D01*
X64440001Y-51163005D01*
X64275194Y-51052884D01*
X64199025Y-51037733D01*
X63621814Y-50460522D01*
X63481780Y-50402518D01*
X63330210Y-50402519D01*
X63264116Y-50429896D01*
X62324257Y-49490037D01*
X62573077Y-49593357D01*
X62901482Y-49593643D01*
X63204998Y-49468233D01*
X63437417Y-49236219D01*
X63563357Y-48932923D01*
X63563515Y-48751300D01*
X63606996Y-48707819D01*
X63665000Y-48567785D01*
X63665000Y-48416214D01*
X63665000Y-48250000D01*
X65489379Y-48250000D01*
X65629989Y-48390610D01*
X65629990Y-48390610D01*
X65794796Y-48500731D01*
X65794797Y-48500731D01*
X65827049Y-48507146D01*
X65989200Y-48539400D01*
X66649600Y-48539400D01*
X66844003Y-48500731D01*
X67008810Y-48390610D01*
X67145000Y-48254420D01*
X67145000Y-48567786D01*
X67203004Y-48707820D01*
X67310181Y-48814996D01*
X67450215Y-48873000D01*
X67500407Y-48873000D01*
X67500357Y-48931482D01*
X67625767Y-49234998D01*
X67857781Y-49467417D01*
X68161077Y-49593357D01*
X68489482Y-49593643D01*
X68792998Y-49468233D01*
X69025417Y-49236219D01*
X69151357Y-48932923D01*
X69151409Y-48873000D01*
X69201786Y-48873000D01*
X69341820Y-48814996D01*
X69448996Y-48707819D01*
X69507000Y-48567785D01*
X69507000Y-48416214D01*
X69507000Y-48250000D01*
X71840909Y-48250000D01*
X71884214Y-48467708D01*
X72145751Y-48859124D01*
X72537167Y-49120661D01*
X72998875Y-49212500D01*
X73305125Y-49212500D01*
X73766833Y-49120661D01*
X74158249Y-48859124D01*
X74419786Y-48467708D01*
X74474000Y-48195154D01*
X74474000Y-50356845D01*
X74474000Y-50356845D01*
G37*
X74474000Y-50356845D02*
X74419786Y-50084292D01*
X74158249Y-49692876D01*
X73766833Y-49431339D01*
X73305125Y-49339500D01*
X72998875Y-49339500D01*
X72537167Y-49431339D01*
X72145751Y-49692876D01*
X71915145Y-50038000D01*
X67919600Y-50038000D01*
X67725197Y-50076669D01*
X67560390Y-50186790D01*
X67323109Y-50424070D01*
X67242009Y-50424071D01*
X67101975Y-50482075D01*
X66994798Y-50589251D01*
X65581306Y-52002744D01*
X65523302Y-52142778D01*
X65523303Y-52294348D01*
X65581307Y-52434382D01*
X65688483Y-52541559D01*
X66006384Y-52859460D01*
X66099509Y-52898033D01*
X66138083Y-52991158D01*
X66179300Y-53032375D01*
X66189131Y-53070262D01*
X66205669Y-53153403D01*
X66213903Y-53165726D01*
X66217626Y-53180073D01*
X66268697Y-53247731D01*
X66287990Y-53276604D01*
X66003518Y-53276357D01*
X65700002Y-53401767D01*
X65532021Y-53569454D01*
X65492219Y-53529583D01*
X65188923Y-53403643D01*
X64860518Y-53403357D01*
X64557002Y-53528767D01*
X64324583Y-53760781D01*
X64198643Y-54064077D01*
X64198357Y-54392482D01*
X64323767Y-54695998D01*
X64555781Y-54928417D01*
X64859077Y-55054357D01*
X65131173Y-55054593D01*
X65532000Y-55455420D01*
X65532000Y-60300433D01*
X65492219Y-60260583D01*
X65188923Y-60134643D01*
X64860518Y-60134357D01*
X64557002Y-60259767D01*
X64324583Y-60491781D01*
X64233885Y-60710203D01*
X64204955Y-60681273D01*
X64204955Y-60611042D01*
X64127618Y-60424331D01*
X63984715Y-60281428D01*
X64004978Y-60301692D01*
X63825373Y-60301692D01*
X62867180Y-61259885D01*
X62881322Y-61274027D01*
X62845401Y-61309948D01*
X62831259Y-61295806D01*
X62817116Y-61309948D01*
X62781195Y-61274027D01*
X62795338Y-61259885D01*
X62781195Y-61245742D01*
X62817116Y-61209821D01*
X62831259Y-61223964D01*
X63789452Y-60265771D01*
X63789452Y-60086166D01*
X63809716Y-60106429D01*
X63666813Y-59963526D01*
X63480102Y-59886189D01*
X63409869Y-59886189D01*
X63347018Y-59823337D01*
X63073442Y-59549761D01*
X63073442Y-59479530D01*
X62996105Y-59292819D01*
X62879646Y-59176360D01*
X62931766Y-59154825D01*
X63217821Y-58869269D01*
X63372824Y-58495982D01*
X63373176Y-58091792D01*
X63218825Y-57718234D01*
X62933269Y-57432179D01*
X62559982Y-57277176D01*
X62155792Y-57276824D01*
X61782234Y-57431175D01*
X61496179Y-57716731D01*
X61421135Y-57897453D01*
X61331849Y-57808167D01*
X61232373Y-57766963D01*
X61191170Y-57667489D01*
X61083994Y-57560312D01*
X60766093Y-57242411D01*
X60626058Y-57184407D01*
X60474488Y-57184408D01*
X60334454Y-57242412D01*
X60227277Y-57349588D01*
X59653761Y-57923104D01*
X58969310Y-57923104D01*
X58925786Y-57704292D01*
X58664249Y-57312876D01*
X58272833Y-57051339D01*
X57811125Y-56959500D01*
X57504875Y-56959500D01*
X57043167Y-57051339D01*
X56651751Y-57312876D01*
X56390214Y-57704292D01*
X56336000Y-57976845D01*
X56336000Y-55815154D01*
X56390214Y-56087708D01*
X56651751Y-56479124D01*
X57043167Y-56740661D01*
X57504875Y-56832500D01*
X57811125Y-56832500D01*
X58272833Y-56740661D01*
X58664249Y-56479124D01*
X58925786Y-56087708D01*
X59017625Y-55626000D01*
X58983051Y-55452186D01*
X60327271Y-56796405D01*
X60467305Y-56854409D01*
X60530188Y-56854408D01*
X60549990Y-56874210D01*
X60714797Y-56984331D01*
X60783796Y-56998055D01*
X60999781Y-57214417D01*
X61303077Y-57340357D01*
X61631482Y-57340643D01*
X61934998Y-57215233D01*
X62167417Y-56983219D01*
X62293357Y-56679923D01*
X62293643Y-56351518D01*
X62168233Y-56048002D01*
X61936219Y-55815583D01*
X61772673Y-55747672D01*
X61789677Y-55706620D01*
X61890421Y-55664891D01*
X61997598Y-55557715D01*
X62067515Y-55487797D01*
X62269781Y-55690417D01*
X62573077Y-55816357D01*
X62901482Y-55816643D01*
X63204998Y-55691233D01*
X63437417Y-55459219D01*
X63563357Y-55155923D01*
X63563643Y-54827518D01*
X63438233Y-54524002D01*
X63234949Y-54320363D01*
X63447011Y-54108302D01*
X63487688Y-54010096D01*
X63585893Y-53969419D01*
X63693070Y-53862243D01*
X64010971Y-53544342D01*
X64052700Y-53443597D01*
X64153446Y-53401867D01*
X64260623Y-53294691D01*
X64578524Y-52976790D01*
X64619201Y-52878584D01*
X64717406Y-52837907D01*
X64824583Y-52730731D01*
X65142484Y-52412830D01*
X65200488Y-52272795D01*
X65200487Y-52121225D01*
X65142483Y-51981191D01*
X65035307Y-51874014D01*
X64565272Y-51403980D01*
X64550122Y-51327812D01*
X64440001Y-51163005D01*
X64275194Y-51052884D01*
X64199025Y-51037733D01*
X63621814Y-50460522D01*
X63481780Y-50402518D01*
X63330210Y-50402519D01*
X63264116Y-50429896D01*
X62324257Y-49490037D01*
X62573077Y-49593357D01*
X62901482Y-49593643D01*
X63204998Y-49468233D01*
X63437417Y-49236219D01*
X63563357Y-48932923D01*
X63563515Y-48751300D01*
X63606996Y-48707819D01*
X63665000Y-48567785D01*
X63665000Y-48416214D01*
X63665000Y-48250000D01*
X65489379Y-48250000D01*
X65629989Y-48390610D01*
X65629990Y-48390610D01*
X65794796Y-48500731D01*
X65794797Y-48500731D01*
X65827049Y-48507146D01*
X65989200Y-48539400D01*
X66649600Y-48539400D01*
X66844003Y-48500731D01*
X67008810Y-48390610D01*
X67145000Y-48254420D01*
X67145000Y-48567786D01*
X67203004Y-48707820D01*
X67310181Y-48814996D01*
X67450215Y-48873000D01*
X67500407Y-48873000D01*
X67500357Y-48931482D01*
X67625767Y-49234998D01*
X67857781Y-49467417D01*
X68161077Y-49593357D01*
X68489482Y-49593643D01*
X68792998Y-49468233D01*
X69025417Y-49236219D01*
X69151357Y-48932923D01*
X69151409Y-48873000D01*
X69201786Y-48873000D01*
X69341820Y-48814996D01*
X69448996Y-48707819D01*
X69507000Y-48567785D01*
X69507000Y-48416214D01*
X69507000Y-48250000D01*
X71840909Y-48250000D01*
X71884214Y-48467708D01*
X72145751Y-48859124D01*
X72537167Y-49120661D01*
X72998875Y-49212500D01*
X73305125Y-49212500D01*
X73766833Y-49120661D01*
X74158249Y-48859124D01*
X74419786Y-48467708D01*
X74474000Y-48195154D01*
X74474000Y-50356845D01*
D28*
G36*
X52922941Y-70944413D02*
X52905218Y-71033516D01*
X52905218Y-71077176D01*
X52896700Y-71120000D01*
X52896700Y-74867700D01*
X47433300Y-74867700D01*
X47433300Y-71120000D01*
X47424782Y-71077176D01*
X47424782Y-71033516D01*
X47408058Y-70949439D01*
X47445864Y-70946485D01*
X47611670Y-70877806D01*
X47622497Y-70723221D01*
X47614287Y-70715011D01*
X47740120Y-70589396D01*
X47748221Y-70597497D01*
X47902806Y-70586670D01*
X47994585Y-70304733D01*
X47971485Y-70009136D01*
X47902806Y-69843330D01*
X47748221Y-69832503D01*
X47740011Y-69840712D01*
X47614408Y-69714890D01*
X47740120Y-69589396D01*
X47748221Y-69597497D01*
X47902806Y-69586670D01*
X47994585Y-69304733D01*
X47971485Y-69009136D01*
X47902806Y-68843330D01*
X47748221Y-68832503D01*
X47740011Y-68840712D01*
X47614408Y-68714890D01*
X47740120Y-68589396D01*
X47748221Y-68597497D01*
X47902806Y-68586670D01*
X47994585Y-68304733D01*
X47971485Y-68009136D01*
X47902806Y-67843330D01*
X47748221Y-67832503D01*
X47740011Y-67840712D01*
X47614396Y-67714879D01*
X47622497Y-67706779D01*
X47611670Y-67552194D01*
X47407058Y-67485586D01*
X47424782Y-67396484D01*
X47424782Y-67352823D01*
X47433300Y-67310000D01*
X47433300Y-67056000D01*
X47433300Y-66294000D01*
X47433300Y-41275000D01*
X47424782Y-41232176D01*
X47424782Y-41188516D01*
X47408058Y-41104439D01*
X47445864Y-41101485D01*
X47611670Y-41032806D01*
X47622497Y-40878221D01*
X47614287Y-40870011D01*
X47740120Y-40744396D01*
X47748221Y-40752497D01*
X47902806Y-40741670D01*
X47994585Y-40459733D01*
X47971485Y-40164136D01*
X47902806Y-39998330D01*
X47748221Y-39987503D01*
X47740011Y-39995712D01*
X47614408Y-39869890D01*
X47740120Y-39744396D01*
X47748221Y-39752497D01*
X47902806Y-39741670D01*
X47994585Y-39459733D01*
X47971485Y-39164136D01*
X47902806Y-38998330D01*
X47748221Y-38987503D01*
X47740011Y-38995712D01*
X47614408Y-38869890D01*
X47740120Y-38744396D01*
X47748221Y-38752497D01*
X47902806Y-38741670D01*
X47994585Y-38459733D01*
X47971485Y-38164136D01*
X47902806Y-37998330D01*
X47748221Y-37987503D01*
X47740011Y-37995712D01*
X47614396Y-37869879D01*
X47622497Y-37861779D01*
X47611670Y-37707194D01*
X47407058Y-37640586D01*
X47424782Y-37551484D01*
X47424782Y-37507823D01*
X47433300Y-37465000D01*
X47433300Y-36309300D01*
X52896700Y-36309300D01*
X52896700Y-37465000D01*
X52905218Y-37507823D01*
X52905218Y-37551484D01*
X52921941Y-37635560D01*
X52884136Y-37638515D01*
X52718330Y-37707194D01*
X52707503Y-37861779D01*
X52715712Y-37869988D01*
X52589879Y-37995603D01*
X52581779Y-37987503D01*
X52427194Y-37998330D01*
X52335415Y-38280267D01*
X52358515Y-38575864D01*
X52427194Y-38741670D01*
X52581779Y-38752497D01*
X52589988Y-38744287D01*
X52715591Y-38870109D01*
X52589879Y-38995603D01*
X52581779Y-38987503D01*
X52427194Y-38998330D01*
X52335415Y-39280267D01*
X52358515Y-39575864D01*
X52427194Y-39741670D01*
X52581779Y-39752497D01*
X52589988Y-39744287D01*
X52715591Y-39870109D01*
X52589879Y-39995603D01*
X52581779Y-39987503D01*
X52427194Y-39998330D01*
X52335415Y-40280267D01*
X52358515Y-40575864D01*
X52427194Y-40741670D01*
X52581779Y-40752497D01*
X52589988Y-40744287D01*
X52715603Y-40870120D01*
X52707503Y-40878221D01*
X52718330Y-41032806D01*
X52922941Y-41099413D01*
X52905218Y-41188516D01*
X52905218Y-41232176D01*
X52896700Y-41275000D01*
X52896700Y-67310000D01*
X52905218Y-67352823D01*
X52905218Y-67396484D01*
X52921941Y-67480560D01*
X52884136Y-67483515D01*
X52718330Y-67552194D01*
X52707503Y-67706779D01*
X52715712Y-67714988D01*
X52589879Y-67840603D01*
X52581779Y-67832503D01*
X52427194Y-67843330D01*
X52335415Y-68125267D01*
X52358515Y-68420864D01*
X52427194Y-68586670D01*
X52581779Y-68597497D01*
X52589988Y-68589287D01*
X52715591Y-68715109D01*
X52589879Y-68840603D01*
X52581779Y-68832503D01*
X52427194Y-68843330D01*
X52335415Y-69125267D01*
X52358515Y-69420864D01*
X52427194Y-69586670D01*
X52581779Y-69597497D01*
X52589988Y-69589287D01*
X52715591Y-69715109D01*
X52589879Y-69840603D01*
X52581779Y-69832503D01*
X52427194Y-69843330D01*
X52335415Y-70125267D01*
X52358515Y-70420864D01*
X52427194Y-70586670D01*
X52581779Y-70597497D01*
X52589988Y-70589287D01*
X52715603Y-70715120D01*
X52707503Y-70723221D01*
X52718330Y-70877806D01*
X52922941Y-70944413D01*
X52922941Y-70944413D01*
G37*
X52922941Y-70944413D02*
X52905218Y-71033516D01*
X52905218Y-71077176D01*
X52896700Y-71120000D01*
X52896700Y-74867700D01*
X47433300Y-74867700D01*
X47433300Y-71120000D01*
X47424782Y-71077176D01*
X47424782Y-71033516D01*
X47408058Y-70949439D01*
X47445864Y-70946485D01*
X47611670Y-70877806D01*
X47622497Y-70723221D01*
X47614287Y-70715011D01*
X47740120Y-70589396D01*
X47748221Y-70597497D01*
X47902806Y-70586670D01*
X47994585Y-70304733D01*
X47971485Y-70009136D01*
X47902806Y-69843330D01*
X47748221Y-69832503D01*
X47740011Y-69840712D01*
X47614408Y-69714890D01*
X47740120Y-69589396D01*
X47748221Y-69597497D01*
X47902806Y-69586670D01*
X47994585Y-69304733D01*
X47971485Y-69009136D01*
X47902806Y-68843330D01*
X47748221Y-68832503D01*
X47740011Y-68840712D01*
X47614408Y-68714890D01*
X47740120Y-68589396D01*
X47748221Y-68597497D01*
X47902806Y-68586670D01*
X47994585Y-68304733D01*
X47971485Y-68009136D01*
X47902806Y-67843330D01*
X47748221Y-67832503D01*
X47740011Y-67840712D01*
X47614396Y-67714879D01*
X47622497Y-67706779D01*
X47611670Y-67552194D01*
X47407058Y-67485586D01*
X47424782Y-67396484D01*
X47424782Y-67352823D01*
X47433300Y-67310000D01*
X47433300Y-67056000D01*
X47433300Y-66294000D01*
X47433300Y-41275000D01*
X47424782Y-41232176D01*
X47424782Y-41188516D01*
X47408058Y-41104439D01*
X47445864Y-41101485D01*
X47611670Y-41032806D01*
X47622497Y-40878221D01*
X47614287Y-40870011D01*
X47740120Y-40744396D01*
X47748221Y-40752497D01*
X47902806Y-40741670D01*
X47994585Y-40459733D01*
X47971485Y-40164136D01*
X47902806Y-39998330D01*
X47748221Y-39987503D01*
X47740011Y-39995712D01*
X47614408Y-39869890D01*
X47740120Y-39744396D01*
X47748221Y-39752497D01*
X47902806Y-39741670D01*
X47994585Y-39459733D01*
X47971485Y-39164136D01*
X47902806Y-38998330D01*
X47748221Y-38987503D01*
X47740011Y-38995712D01*
X47614408Y-38869890D01*
X47740120Y-38744396D01*
X47748221Y-38752497D01*
X47902806Y-38741670D01*
X47994585Y-38459733D01*
X47971485Y-38164136D01*
X47902806Y-37998330D01*
X47748221Y-37987503D01*
X47740011Y-37995712D01*
X47614396Y-37869879D01*
X47622497Y-37861779D01*
X47611670Y-37707194D01*
X47407058Y-37640586D01*
X47424782Y-37551484D01*
X47424782Y-37507823D01*
X47433300Y-37465000D01*
X47433300Y-36309300D01*
X52896700Y-36309300D01*
X52896700Y-37465000D01*
X52905218Y-37507823D01*
X52905218Y-37551484D01*
X52921941Y-37635560D01*
X52884136Y-37638515D01*
X52718330Y-37707194D01*
X52707503Y-37861779D01*
X52715712Y-37869988D01*
X52589879Y-37995603D01*
X52581779Y-37987503D01*
X52427194Y-37998330D01*
X52335415Y-38280267D01*
X52358515Y-38575864D01*
X52427194Y-38741670D01*
X52581779Y-38752497D01*
X52589988Y-38744287D01*
X52715591Y-38870109D01*
X52589879Y-38995603D01*
X52581779Y-38987503D01*
X52427194Y-38998330D01*
X52335415Y-39280267D01*
X52358515Y-39575864D01*
X52427194Y-39741670D01*
X52581779Y-39752497D01*
X52589988Y-39744287D01*
X52715591Y-39870109D01*
X52589879Y-39995603D01*
X52581779Y-39987503D01*
X52427194Y-39998330D01*
X52335415Y-40280267D01*
X52358515Y-40575864D01*
X52427194Y-40741670D01*
X52581779Y-40752497D01*
X52589988Y-40744287D01*
X52715603Y-40870120D01*
X52707503Y-40878221D01*
X52718330Y-41032806D01*
X52922941Y-41099413D01*
X52905218Y-41188516D01*
X52905218Y-41232176D01*
X52896700Y-41275000D01*
X52896700Y-67310000D01*
X52905218Y-67352823D01*
X52905218Y-67396484D01*
X52921941Y-67480560D01*
X52884136Y-67483515D01*
X52718330Y-67552194D01*
X52707503Y-67706779D01*
X52715712Y-67714988D01*
X52589879Y-67840603D01*
X52581779Y-67832503D01*
X52427194Y-67843330D01*
X52335415Y-68125267D01*
X52358515Y-68420864D01*
X52427194Y-68586670D01*
X52581779Y-68597497D01*
X52589988Y-68589287D01*
X52715591Y-68715109D01*
X52589879Y-68840603D01*
X52581779Y-68832503D01*
X52427194Y-68843330D01*
X52335415Y-69125267D01*
X52358515Y-69420864D01*
X52427194Y-69586670D01*
X52581779Y-69597497D01*
X52589988Y-69589287D01*
X52715591Y-69715109D01*
X52589879Y-69840603D01*
X52581779Y-69832503D01*
X52427194Y-69843330D01*
X52335415Y-70125267D01*
X52358515Y-70420864D01*
X52427194Y-70586670D01*
X52581779Y-70597497D01*
X52589988Y-70589287D01*
X52715603Y-70715120D01*
X52707503Y-70723221D01*
X52718330Y-70877806D01*
X52922941Y-70944413D01*
M02*
