%FSLAX46Y46*%
G04 Gerber Fmt 4.6, Leading zero omitted, Abs format (unit mm)*
G04 Created by KiCad (PCBNEW (2014-08-08 BZR 5060)-product) date tir 19 aug 2014 17:24:29 CEST*
%MOMM*%
G01*
G04 APERTURE LIST*
%ADD10C,0.150000*%
%ADD11C,0.254000*%
%ADD12C,0.203200*%
%ADD13C,0.381000*%
G04 APERTURE END LIST*
D10*
D11*
X63899142Y-67443048D02*
X63753999Y-67503524D01*
X63512095Y-67503524D01*
X63415333Y-67443048D01*
X63366952Y-67382571D01*
X63318571Y-67261619D01*
X63318571Y-67140667D01*
X63366952Y-67019714D01*
X63415333Y-66959238D01*
X63512095Y-66898762D01*
X63705618Y-66838286D01*
X63802380Y-66777810D01*
X63850761Y-66717333D01*
X63899142Y-66596381D01*
X63899142Y-66475429D01*
X63850761Y-66354476D01*
X63802380Y-66294000D01*
X63705618Y-66233524D01*
X63463714Y-66233524D01*
X63318571Y-66294000D01*
X63028285Y-66656857D02*
X62641237Y-66656857D01*
X62883142Y-66233524D02*
X62883142Y-67322095D01*
X62834761Y-67443048D01*
X62737999Y-67503524D01*
X62641237Y-67503524D01*
X62302571Y-67503524D02*
X62302571Y-66656857D01*
X62302571Y-66233524D02*
X62350952Y-66294000D01*
X62302571Y-66354476D01*
X62254190Y-66294000D01*
X62302571Y-66233524D01*
X62302571Y-66354476D01*
X61383333Y-67443048D02*
X61480095Y-67503524D01*
X61673618Y-67503524D01*
X61770380Y-67443048D01*
X61818761Y-67382571D01*
X61867142Y-67261619D01*
X61867142Y-66898762D01*
X61818761Y-66777810D01*
X61770380Y-66717333D01*
X61673618Y-66656857D01*
X61480095Y-66656857D01*
X61383333Y-66717333D01*
X60947904Y-67503524D02*
X60947904Y-66233524D01*
X60851142Y-67019714D02*
X60560857Y-67503524D01*
X60560857Y-66656857D02*
X60947904Y-67140667D01*
D12*
X62571085Y-68566695D02*
X62571085Y-68024829D01*
X62571085Y-68179648D02*
X62532380Y-68102238D01*
X62493676Y-68063533D01*
X62416266Y-68024829D01*
X62338857Y-68024829D01*
X61758285Y-68527990D02*
X61835695Y-68566695D01*
X61990514Y-68566695D01*
X62067923Y-68527990D01*
X62106628Y-68450581D01*
X62106628Y-68140943D01*
X62067923Y-68063533D01*
X61990514Y-68024829D01*
X61835695Y-68024829D01*
X61758285Y-68063533D01*
X61719580Y-68140943D01*
X61719580Y-68218352D01*
X62106628Y-68295762D01*
X61448647Y-68024829D02*
X61255123Y-68566695D01*
X61061599Y-68024829D01*
X60326209Y-68566695D02*
X60790666Y-68566695D01*
X60558437Y-68566695D02*
X60558437Y-67753895D01*
X60635847Y-67870010D01*
X60713256Y-67947419D01*
X60790666Y-67986124D01*
X71614695Y-54030638D02*
X71575990Y-53953229D01*
X71498581Y-53914524D01*
X70801895Y-53914524D01*
X71614695Y-54688619D02*
X71188943Y-54688619D01*
X71111533Y-54649914D01*
X71072829Y-54572504D01*
X71072829Y-54417685D01*
X71111533Y-54340276D01*
X71575990Y-54688619D02*
X71614695Y-54611209D01*
X71614695Y-54417685D01*
X71575990Y-54340276D01*
X71498581Y-54301571D01*
X71421171Y-54301571D01*
X71343762Y-54340276D01*
X71305057Y-54417685D01*
X71305057Y-54611209D01*
X71266352Y-54688619D01*
X71614695Y-55075666D02*
X70801895Y-55075666D01*
X71111533Y-55075666D02*
X71072829Y-55153075D01*
X71072829Y-55307894D01*
X71111533Y-55385304D01*
X71150238Y-55424009D01*
X71227648Y-55462713D01*
X71459876Y-55462713D01*
X71537286Y-55424009D01*
X71575990Y-55385304D01*
X71614695Y-55307894D01*
X71614695Y-55153075D01*
X71575990Y-55075666D01*
X71537286Y-55811056D02*
X71575990Y-55849761D01*
X71614695Y-55811056D01*
X71575990Y-55772351D01*
X71537286Y-55811056D01*
X71614695Y-55811056D01*
X71614695Y-56198104D02*
X70801895Y-56198104D01*
X71305057Y-56275513D02*
X71614695Y-56507742D01*
X71072829Y-56507742D02*
X71382467Y-56198104D01*
X71072829Y-56856085D02*
X71769514Y-56856085D01*
X71846924Y-56817380D01*
X71885629Y-56739971D01*
X71885629Y-56701266D01*
X70801895Y-56856085D02*
X70840600Y-56817380D01*
X70879305Y-56856085D01*
X70840600Y-56894790D01*
X70801895Y-56856085D01*
X70879305Y-56856085D01*
X71614695Y-57359247D02*
X71575990Y-57281838D01*
X71498581Y-57243133D01*
X70801895Y-57243133D01*
X71614695Y-57668885D02*
X71072829Y-57668885D01*
X71227648Y-57668885D02*
X71150238Y-57707590D01*
X71111533Y-57746294D01*
X71072829Y-57823704D01*
X71072829Y-57901113D01*
X71537286Y-58172047D02*
X71575990Y-58210752D01*
X71614695Y-58172047D01*
X71575990Y-58133342D01*
X71537286Y-58172047D01*
X71614695Y-58172047D01*
X71614695Y-58907438D02*
X70801895Y-58907438D01*
X71575990Y-58907438D02*
X71614695Y-58830028D01*
X71614695Y-58675209D01*
X71575990Y-58597800D01*
X71537286Y-58559095D01*
X71459876Y-58520390D01*
X71227648Y-58520390D01*
X71150238Y-58559095D01*
X71111533Y-58597800D01*
X71072829Y-58675209D01*
X71072829Y-58830028D01*
X71111533Y-58907438D01*
X71614695Y-59294485D02*
X70801895Y-59294485D01*
X71305057Y-59371894D02*
X71614695Y-59604123D01*
X71072829Y-59604123D02*
X71382467Y-59294485D01*
X70763190Y-60533037D02*
X71808219Y-59836352D01*
X71072829Y-60803971D02*
X71885629Y-60803971D01*
X71111533Y-60803971D02*
X71072829Y-60881380D01*
X71072829Y-61036199D01*
X71111533Y-61113609D01*
X71150238Y-61152314D01*
X71227648Y-61191018D01*
X71459876Y-61191018D01*
X71537286Y-61152314D01*
X71575990Y-61113609D01*
X71614695Y-61036199D01*
X71614695Y-60881380D01*
X71575990Y-60803971D01*
X70763190Y-62119932D02*
X71808219Y-61423247D01*
X71614695Y-62390866D02*
X70801895Y-62390866D01*
X71614695Y-62739209D02*
X71188943Y-62739209D01*
X71111533Y-62700504D01*
X71072829Y-62623094D01*
X71072829Y-62506980D01*
X71111533Y-62429571D01*
X71150238Y-62390866D01*
X71614695Y-63474599D02*
X71188943Y-63474599D01*
X71111533Y-63435894D01*
X71072829Y-63358484D01*
X71072829Y-63203665D01*
X71111533Y-63126256D01*
X71575990Y-63474599D02*
X71614695Y-63397189D01*
X71614695Y-63203665D01*
X71575990Y-63126256D01*
X71498581Y-63087551D01*
X71421171Y-63087551D01*
X71343762Y-63126256D01*
X71305057Y-63203665D01*
X71305057Y-63397189D01*
X71266352Y-63474599D01*
X71072829Y-63861646D02*
X71614695Y-63861646D01*
X71150238Y-63861646D02*
X71111533Y-63900351D01*
X71072829Y-63977760D01*
X71072829Y-64093874D01*
X71111533Y-64171284D01*
X71188943Y-64209989D01*
X71614695Y-64209989D01*
X71614695Y-64945379D02*
X70801895Y-64945379D01*
X71575990Y-64945379D02*
X71614695Y-64867969D01*
X71614695Y-64713150D01*
X71575990Y-64635741D01*
X71537286Y-64597036D01*
X71459876Y-64558331D01*
X71227648Y-64558331D01*
X71150238Y-64597036D01*
X71111533Y-64635741D01*
X71072829Y-64713150D01*
X71072829Y-64867969D01*
X71111533Y-64945379D01*
X71072829Y-65255016D02*
X71614695Y-65448540D01*
X71072829Y-65642064D02*
X71614695Y-65448540D01*
X71808219Y-65371131D01*
X71846924Y-65332426D01*
X71885629Y-65255016D01*
X71575990Y-65912997D02*
X71614695Y-65990407D01*
X71614695Y-66145226D01*
X71575990Y-66222635D01*
X71498581Y-66261340D01*
X71459876Y-66261340D01*
X71382467Y-66222635D01*
X71343762Y-66145226D01*
X71343762Y-66029111D01*
X71305057Y-65951702D01*
X71227648Y-65912997D01*
X71188943Y-65912997D01*
X71111533Y-65951702D01*
X71072829Y-66029111D01*
X71072829Y-66145226D01*
X71111533Y-66222635D01*
X71072829Y-66493569D02*
X71072829Y-66803207D01*
X70801895Y-66609683D02*
X71498581Y-66609683D01*
X71575990Y-66648388D01*
X71614695Y-66725797D01*
X71614695Y-66803207D01*
X71614695Y-67074140D02*
X71072829Y-67074140D01*
X70801895Y-67074140D02*
X70840600Y-67035435D01*
X70879305Y-67074140D01*
X70840600Y-67112845D01*
X70801895Y-67074140D01*
X70879305Y-67074140D01*
X71575990Y-67809531D02*
X71614695Y-67732121D01*
X71614695Y-67577302D01*
X71575990Y-67499893D01*
X71537286Y-67461188D01*
X71459876Y-67422483D01*
X71227648Y-67422483D01*
X71150238Y-67461188D01*
X71111533Y-67499893D01*
X71072829Y-67577302D01*
X71072829Y-67732121D01*
X71111533Y-67809531D01*
X71614695Y-68157874D02*
X70801895Y-68157874D01*
X71305057Y-68235283D02*
X71614695Y-68467512D01*
X71072829Y-68467512D02*
X71382467Y-68157874D01*
X68869075Y-33149419D02*
X68946485Y-33110714D01*
X69101304Y-33110714D01*
X69178713Y-33149419D01*
X69256123Y-33226829D01*
X69294828Y-33304238D01*
X69294828Y-33459057D01*
X69256123Y-33536467D01*
X69178713Y-33613876D01*
X69101304Y-33652581D01*
X68946485Y-33652581D01*
X68869075Y-33613876D01*
X69023894Y-32839781D02*
X69217418Y-32878486D01*
X69410942Y-32994600D01*
X69527056Y-33188124D01*
X69565761Y-33381648D01*
X69527056Y-33575171D01*
X69410942Y-33768695D01*
X69217418Y-33884810D01*
X69023894Y-33923514D01*
X68830370Y-33884810D01*
X68636847Y-33768695D01*
X68520732Y-33575171D01*
X68482028Y-33381648D01*
X68520732Y-33188124D01*
X68636847Y-32994600D01*
X68830370Y-32878486D01*
X69023894Y-32839781D01*
X67553114Y-33033305D02*
X67514409Y-32994600D01*
X67437000Y-32955895D01*
X67243476Y-32955895D01*
X67166066Y-32994600D01*
X67127362Y-33033305D01*
X67088657Y-33110714D01*
X67088657Y-33188124D01*
X67127362Y-33304238D01*
X67591819Y-33768695D01*
X67088657Y-33768695D01*
X66585495Y-32955895D02*
X66508086Y-32955895D01*
X66430676Y-32994600D01*
X66391971Y-33033305D01*
X66353267Y-33110714D01*
X66314562Y-33265533D01*
X66314562Y-33459057D01*
X66353267Y-33613876D01*
X66391971Y-33691286D01*
X66430676Y-33729990D01*
X66508086Y-33768695D01*
X66585495Y-33768695D01*
X66662905Y-33729990D01*
X66701609Y-33691286D01*
X66740314Y-33613876D01*
X66779019Y-33459057D01*
X66779019Y-33265533D01*
X66740314Y-33110714D01*
X66701609Y-33033305D01*
X66662905Y-32994600D01*
X66585495Y-32955895D01*
X65540467Y-33768695D02*
X66004924Y-33768695D01*
X65772695Y-33768695D02*
X65772695Y-32955895D01*
X65850105Y-33072010D01*
X65927514Y-33149419D01*
X66004924Y-33188124D01*
X64843781Y-33226829D02*
X64843781Y-33768695D01*
X65037305Y-32917190D02*
X65230829Y-33497762D01*
X64727667Y-33497762D01*
X64379324Y-33729990D02*
X64379324Y-33768695D01*
X64418029Y-33846105D01*
X64456734Y-33884810D01*
X63411705Y-33768695D02*
X63411705Y-32955895D01*
X62947248Y-33768695D01*
X62947248Y-32955895D01*
X62560200Y-33768695D02*
X62560200Y-32955895D01*
X62095743Y-33768695D02*
X62444086Y-33304238D01*
X62095743Y-32955895D02*
X62560200Y-33420352D01*
X61747400Y-33768695D02*
X61747400Y-32955895D01*
X61747400Y-33342943D02*
X61282943Y-33342943D01*
X61282943Y-33768695D02*
X61282943Y-32955895D01*
X38389075Y-33149419D02*
X38466485Y-33110714D01*
X38621304Y-33110714D01*
X38698713Y-33149419D01*
X38776123Y-33226829D01*
X38814828Y-33304238D01*
X38814828Y-33459057D01*
X38776123Y-33536467D01*
X38698713Y-33613876D01*
X38621304Y-33652581D01*
X38466485Y-33652581D01*
X38389075Y-33613876D01*
X38543894Y-32839781D02*
X38737418Y-32878486D01*
X38930942Y-32994600D01*
X39047056Y-33188124D01*
X39085761Y-33381648D01*
X39047056Y-33575171D01*
X38930942Y-33768695D01*
X38737418Y-33884810D01*
X38543894Y-33923514D01*
X38350370Y-33884810D01*
X38156847Y-33768695D01*
X38040732Y-33575171D01*
X38002028Y-33381648D01*
X38040732Y-33188124D01*
X38156847Y-32994600D01*
X38350370Y-32878486D01*
X38543894Y-32839781D01*
X37073114Y-33033305D02*
X37034409Y-32994600D01*
X36957000Y-32955895D01*
X36763476Y-32955895D01*
X36686066Y-32994600D01*
X36647362Y-33033305D01*
X36608657Y-33110714D01*
X36608657Y-33188124D01*
X36647362Y-33304238D01*
X37111819Y-33768695D01*
X36608657Y-33768695D01*
X36105495Y-32955895D02*
X36028086Y-32955895D01*
X35950676Y-32994600D01*
X35911971Y-33033305D01*
X35873267Y-33110714D01*
X35834562Y-33265533D01*
X35834562Y-33459057D01*
X35873267Y-33613876D01*
X35911971Y-33691286D01*
X35950676Y-33729990D01*
X36028086Y-33768695D01*
X36105495Y-33768695D01*
X36182905Y-33729990D01*
X36221609Y-33691286D01*
X36260314Y-33613876D01*
X36299019Y-33459057D01*
X36299019Y-33265533D01*
X36260314Y-33110714D01*
X36221609Y-33033305D01*
X36182905Y-32994600D01*
X36105495Y-32955895D01*
X35060467Y-33768695D02*
X35524924Y-33768695D01*
X35292695Y-33768695D02*
X35292695Y-32955895D01*
X35370105Y-33072010D01*
X35447514Y-33149419D01*
X35524924Y-33188124D01*
X34363781Y-33226829D02*
X34363781Y-33768695D01*
X34557305Y-32917190D02*
X34750829Y-33497762D01*
X34247667Y-33497762D01*
X33899324Y-33729990D02*
X33899324Y-33768695D01*
X33938029Y-33846105D01*
X33976734Y-33884810D01*
X32931705Y-33768695D02*
X32931705Y-32955895D01*
X32467248Y-33768695D01*
X32467248Y-32955895D01*
X32080200Y-33768695D02*
X32080200Y-32955895D01*
X31615743Y-33768695D02*
X31964086Y-33304238D01*
X31615743Y-32955895D02*
X32080200Y-33420352D01*
X31267400Y-33768695D02*
X31267400Y-32955895D01*
X31267400Y-33342943D02*
X30802943Y-33342943D01*
X30802943Y-33768695D02*
X30802943Y-32955895D01*
X41134695Y-54030638D02*
X41095990Y-53953229D01*
X41018581Y-53914524D01*
X40321895Y-53914524D01*
X41134695Y-54688619D02*
X40708943Y-54688619D01*
X40631533Y-54649914D01*
X40592829Y-54572504D01*
X40592829Y-54417685D01*
X40631533Y-54340276D01*
X41095990Y-54688619D02*
X41134695Y-54611209D01*
X41134695Y-54417685D01*
X41095990Y-54340276D01*
X41018581Y-54301571D01*
X40941171Y-54301571D01*
X40863762Y-54340276D01*
X40825057Y-54417685D01*
X40825057Y-54611209D01*
X40786352Y-54688619D01*
X41134695Y-55075666D02*
X40321895Y-55075666D01*
X40631533Y-55075666D02*
X40592829Y-55153075D01*
X40592829Y-55307894D01*
X40631533Y-55385304D01*
X40670238Y-55424009D01*
X40747648Y-55462713D01*
X40979876Y-55462713D01*
X41057286Y-55424009D01*
X41095990Y-55385304D01*
X41134695Y-55307894D01*
X41134695Y-55153075D01*
X41095990Y-55075666D01*
X41057286Y-55811056D02*
X41095990Y-55849761D01*
X41134695Y-55811056D01*
X41095990Y-55772351D01*
X41057286Y-55811056D01*
X41134695Y-55811056D01*
X41134695Y-56198104D02*
X40321895Y-56198104D01*
X40825057Y-56275513D02*
X41134695Y-56507742D01*
X40592829Y-56507742D02*
X40902467Y-56198104D01*
X40592829Y-56856085D02*
X41289514Y-56856085D01*
X41366924Y-56817380D01*
X41405629Y-56739971D01*
X41405629Y-56701266D01*
X40321895Y-56856085D02*
X40360600Y-56817380D01*
X40399305Y-56856085D01*
X40360600Y-56894790D01*
X40321895Y-56856085D01*
X40399305Y-56856085D01*
X41134695Y-57359247D02*
X41095990Y-57281838D01*
X41018581Y-57243133D01*
X40321895Y-57243133D01*
X41134695Y-57668885D02*
X40592829Y-57668885D01*
X40747648Y-57668885D02*
X40670238Y-57707590D01*
X40631533Y-57746294D01*
X40592829Y-57823704D01*
X40592829Y-57901113D01*
X41057286Y-58172047D02*
X41095990Y-58210752D01*
X41134695Y-58172047D01*
X41095990Y-58133342D01*
X41057286Y-58172047D01*
X41134695Y-58172047D01*
X41134695Y-58907438D02*
X40321895Y-58907438D01*
X41095990Y-58907438D02*
X41134695Y-58830028D01*
X41134695Y-58675209D01*
X41095990Y-58597800D01*
X41057286Y-58559095D01*
X40979876Y-58520390D01*
X40747648Y-58520390D01*
X40670238Y-58559095D01*
X40631533Y-58597800D01*
X40592829Y-58675209D01*
X40592829Y-58830028D01*
X40631533Y-58907438D01*
X41134695Y-59294485D02*
X40321895Y-59294485D01*
X40825057Y-59371894D02*
X41134695Y-59604123D01*
X40592829Y-59604123D02*
X40902467Y-59294485D01*
X40283190Y-60533037D02*
X41328219Y-59836352D01*
X40592829Y-60803971D02*
X41405629Y-60803971D01*
X40631533Y-60803971D02*
X40592829Y-60881380D01*
X40592829Y-61036199D01*
X40631533Y-61113609D01*
X40670238Y-61152314D01*
X40747648Y-61191018D01*
X40979876Y-61191018D01*
X41057286Y-61152314D01*
X41095990Y-61113609D01*
X41134695Y-61036199D01*
X41134695Y-60881380D01*
X41095990Y-60803971D01*
X40283190Y-62119932D02*
X41328219Y-61423247D01*
X41134695Y-62390866D02*
X40321895Y-62390866D01*
X41134695Y-62739209D02*
X40708943Y-62739209D01*
X40631533Y-62700504D01*
X40592829Y-62623094D01*
X40592829Y-62506980D01*
X40631533Y-62429571D01*
X40670238Y-62390866D01*
X41134695Y-63474599D02*
X40708943Y-63474599D01*
X40631533Y-63435894D01*
X40592829Y-63358484D01*
X40592829Y-63203665D01*
X40631533Y-63126256D01*
X41095990Y-63474599D02*
X41134695Y-63397189D01*
X41134695Y-63203665D01*
X41095990Y-63126256D01*
X41018581Y-63087551D01*
X40941171Y-63087551D01*
X40863762Y-63126256D01*
X40825057Y-63203665D01*
X40825057Y-63397189D01*
X40786352Y-63474599D01*
X40592829Y-63861646D02*
X41134695Y-63861646D01*
X40670238Y-63861646D02*
X40631533Y-63900351D01*
X40592829Y-63977760D01*
X40592829Y-64093874D01*
X40631533Y-64171284D01*
X40708943Y-64209989D01*
X41134695Y-64209989D01*
X41134695Y-64945379D02*
X40321895Y-64945379D01*
X41095990Y-64945379D02*
X41134695Y-64867969D01*
X41134695Y-64713150D01*
X41095990Y-64635741D01*
X41057286Y-64597036D01*
X40979876Y-64558331D01*
X40747648Y-64558331D01*
X40670238Y-64597036D01*
X40631533Y-64635741D01*
X40592829Y-64713150D01*
X40592829Y-64867969D01*
X40631533Y-64945379D01*
X40592829Y-65255016D02*
X41134695Y-65448540D01*
X40592829Y-65642064D02*
X41134695Y-65448540D01*
X41328219Y-65371131D01*
X41366924Y-65332426D01*
X41405629Y-65255016D01*
X41095990Y-65912997D02*
X41134695Y-65990407D01*
X41134695Y-66145226D01*
X41095990Y-66222635D01*
X41018581Y-66261340D01*
X40979876Y-66261340D01*
X40902467Y-66222635D01*
X40863762Y-66145226D01*
X40863762Y-66029111D01*
X40825057Y-65951702D01*
X40747648Y-65912997D01*
X40708943Y-65912997D01*
X40631533Y-65951702D01*
X40592829Y-66029111D01*
X40592829Y-66145226D01*
X40631533Y-66222635D01*
X40592829Y-66493569D02*
X40592829Y-66803207D01*
X40321895Y-66609683D02*
X41018581Y-66609683D01*
X41095990Y-66648388D01*
X41134695Y-66725797D01*
X41134695Y-66803207D01*
X41134695Y-67074140D02*
X40592829Y-67074140D01*
X40321895Y-67074140D02*
X40360600Y-67035435D01*
X40399305Y-67074140D01*
X40360600Y-67112845D01*
X40321895Y-67074140D01*
X40399305Y-67074140D01*
X41095990Y-67809531D02*
X41134695Y-67732121D01*
X41134695Y-67577302D01*
X41095990Y-67499893D01*
X41057286Y-67461188D01*
X40979876Y-67422483D01*
X40747648Y-67422483D01*
X40670238Y-67461188D01*
X40631533Y-67499893D01*
X40592829Y-67577302D01*
X40592829Y-67732121D01*
X40631533Y-67809531D01*
X41134695Y-68157874D02*
X40321895Y-68157874D01*
X40825057Y-68235283D02*
X41134695Y-68467512D01*
X40592829Y-68467512D02*
X40902467Y-68157874D01*
X32091085Y-68566695D02*
X32091085Y-68024829D01*
X32091085Y-68179648D02*
X32052380Y-68102238D01*
X32013676Y-68063533D01*
X31936266Y-68024829D01*
X31858857Y-68024829D01*
X31278285Y-68527990D02*
X31355695Y-68566695D01*
X31510514Y-68566695D01*
X31587923Y-68527990D01*
X31626628Y-68450581D01*
X31626628Y-68140943D01*
X31587923Y-68063533D01*
X31510514Y-68024829D01*
X31355695Y-68024829D01*
X31278285Y-68063533D01*
X31239580Y-68140943D01*
X31239580Y-68218352D01*
X31626628Y-68295762D01*
X30968647Y-68024829D02*
X30775123Y-68566695D01*
X30581599Y-68024829D01*
X29846209Y-68566695D02*
X30310666Y-68566695D01*
X30078437Y-68566695D02*
X30078437Y-67753895D01*
X30155847Y-67870010D01*
X30233256Y-67947419D01*
X30310666Y-67986124D01*
D11*
X33419142Y-67443048D02*
X33273999Y-67503524D01*
X33032095Y-67503524D01*
X32935333Y-67443048D01*
X32886952Y-67382571D01*
X32838571Y-67261619D01*
X32838571Y-67140667D01*
X32886952Y-67019714D01*
X32935333Y-66959238D01*
X33032095Y-66898762D01*
X33225618Y-66838286D01*
X33322380Y-66777810D01*
X33370761Y-66717333D01*
X33419142Y-66596381D01*
X33419142Y-66475429D01*
X33370761Y-66354476D01*
X33322380Y-66294000D01*
X33225618Y-66233524D01*
X32983714Y-66233524D01*
X32838571Y-66294000D01*
X32548285Y-66656857D02*
X32161237Y-66656857D01*
X32403142Y-66233524D02*
X32403142Y-67322095D01*
X32354761Y-67443048D01*
X32257999Y-67503524D01*
X32161237Y-67503524D01*
X31822571Y-67503524D02*
X31822571Y-66656857D01*
X31822571Y-66233524D02*
X31870952Y-66294000D01*
X31822571Y-66354476D01*
X31774190Y-66294000D01*
X31822571Y-66233524D01*
X31822571Y-66354476D01*
X30903333Y-67443048D02*
X31000095Y-67503524D01*
X31193618Y-67503524D01*
X31290380Y-67443048D01*
X31338761Y-67382571D01*
X31387142Y-67261619D01*
X31387142Y-66898762D01*
X31338761Y-66777810D01*
X31290380Y-66717333D01*
X31193618Y-66656857D01*
X31000095Y-66656857D01*
X30903333Y-66717333D01*
X30467904Y-67503524D02*
X30467904Y-66233524D01*
X30371142Y-67019714D02*
X30080857Y-67503524D01*
X30080857Y-66656857D02*
X30467904Y-67140667D01*
D12*
X69145000Y-63843000D02*
X69795000Y-63843000D01*
X69795000Y-63843000D02*
X69795000Y-65443000D01*
X69795000Y-65443000D02*
X69145000Y-65443000D01*
X66745000Y-65443000D02*
X66095000Y-65443000D01*
X66095000Y-65443000D02*
X66095000Y-63843000D01*
X66095000Y-63843000D02*
X66745000Y-63843000D01*
X61665000Y-65443000D02*
X61015000Y-65443000D01*
X61015000Y-65443000D02*
X61015000Y-63843000D01*
X61015000Y-63843000D02*
X61665000Y-63843000D01*
X64065000Y-63843000D02*
X64715000Y-63843000D01*
X64715000Y-63843000D02*
X64715000Y-65443000D01*
X64715000Y-65443000D02*
X64065000Y-65443000D01*
X62141000Y-53143000D02*
X62141000Y-53793000D01*
X62141000Y-53793000D02*
X60541000Y-53793000D01*
X60541000Y-53793000D02*
X60541000Y-53143000D01*
X60541000Y-50743000D02*
X60541000Y-50093000D01*
X60541000Y-50093000D02*
X62141000Y-50093000D01*
X62141000Y-50093000D02*
X62141000Y-50743000D01*
X69176800Y-53066800D02*
X69176800Y-53716800D01*
X69176800Y-53716800D02*
X67576800Y-53716800D01*
X67576800Y-53716800D02*
X67576800Y-53066800D01*
X67576800Y-50666800D02*
X67576800Y-50016800D01*
X67576800Y-50016800D02*
X69176800Y-50016800D01*
X69176800Y-50016800D02*
X69176800Y-50666800D01*
D13*
X65854580Y-45085000D02*
X66004440Y-45085000D01*
X65006220Y-45085000D02*
X64805560Y-45085000D01*
X65854580Y-45085000D02*
X65854580Y-44335700D01*
X65854580Y-45085000D02*
X65854580Y-45786040D01*
X65854580Y-45085000D02*
X65006220Y-45786040D01*
X65006220Y-45786040D02*
X65006220Y-44383960D01*
X65006220Y-44383960D02*
X65854580Y-45085000D01*
X64960420Y-42541000D02*
X64810560Y-42541000D01*
X65808780Y-42541000D02*
X66009440Y-42541000D01*
X64960420Y-42541000D02*
X64960420Y-43290300D01*
X64960420Y-42541000D02*
X64960420Y-41839960D01*
X64960420Y-42541000D02*
X65808780Y-41839960D01*
X65808780Y-41839960D02*
X65808780Y-43242040D01*
X65808780Y-43242040D02*
X64960420Y-42541000D01*
D12*
X64205000Y-58051000D02*
X63935000Y-58051000D01*
X63935000Y-58051000D02*
X63935000Y-57011000D01*
X63935000Y-57011000D02*
X64205000Y-57011000D01*
X66605000Y-57011000D02*
X66875000Y-57011000D01*
X66875000Y-57011000D02*
X66875000Y-58051000D01*
X66875000Y-58051000D02*
X66605000Y-58051000D01*
X64205000Y-59549600D02*
X63935000Y-59549600D01*
X63935000Y-59549600D02*
X63935000Y-58509600D01*
X63935000Y-58509600D02*
X64205000Y-58509600D01*
X66605000Y-58509600D02*
X66875000Y-58509600D01*
X66875000Y-58509600D02*
X66875000Y-59549600D01*
X66875000Y-59549600D02*
X66605000Y-59549600D01*
X71182800Y-43948200D02*
X71182800Y-44218200D01*
X71182800Y-44218200D02*
X70142800Y-44218200D01*
X70142800Y-44218200D02*
X70142800Y-43948200D01*
X70142800Y-41548200D02*
X70142800Y-41278200D01*
X70142800Y-41278200D02*
X71182800Y-41278200D01*
X71182800Y-41278200D02*
X71182800Y-41548200D01*
X65671000Y-52254000D02*
X65671000Y-52524000D01*
X65671000Y-52524000D02*
X64631000Y-52524000D01*
X64631000Y-52524000D02*
X64631000Y-52254000D01*
X64631000Y-49854000D02*
X64631000Y-49584000D01*
X64631000Y-49584000D02*
X65671000Y-49584000D01*
X65671000Y-49584000D02*
X65671000Y-49854000D01*
X66966400Y-52254000D02*
X66966400Y-52524000D01*
X66966400Y-52524000D02*
X65926400Y-52524000D01*
X65926400Y-52524000D02*
X65926400Y-52254000D01*
X65926400Y-49854000D02*
X65926400Y-49584000D01*
X65926400Y-49584000D02*
X66966400Y-49584000D01*
X66966400Y-49584000D02*
X66966400Y-49854000D01*
X64274000Y-52254000D02*
X64274000Y-52524000D01*
X64274000Y-52524000D02*
X63234000Y-52524000D01*
X63234000Y-52524000D02*
X63234000Y-52254000D01*
X63234000Y-49854000D02*
X63234000Y-49584000D01*
X63234000Y-49584000D02*
X64274000Y-49584000D01*
X64274000Y-49584000D02*
X64274000Y-49854000D01*
X64205000Y-56527000D02*
X63935000Y-56527000D01*
X63935000Y-56527000D02*
X63935000Y-55487000D01*
X63935000Y-55487000D02*
X64205000Y-55487000D01*
X66605000Y-55487000D02*
X66875000Y-55487000D01*
X66875000Y-55487000D02*
X66875000Y-56527000D01*
X66875000Y-56527000D02*
X66605000Y-56527000D01*
D11*
X70110000Y-38391000D02*
X70110000Y-38991000D01*
X70410000Y-38691000D02*
X69810000Y-38691000D01*
X69410000Y-38391000D02*
X69410000Y-40791000D01*
X62910640Y-38391080D02*
X67909360Y-38391080D01*
X62913180Y-40790920D02*
X67911900Y-40790920D01*
X39630000Y-38391000D02*
X39630000Y-38991000D01*
X39930000Y-38691000D02*
X39330000Y-38691000D01*
X38930000Y-38391000D02*
X38930000Y-40791000D01*
X32430640Y-38391080D02*
X37429360Y-38391080D01*
X32433180Y-40790920D02*
X37431900Y-40790920D01*
D12*
X33725000Y-56527000D02*
X33455000Y-56527000D01*
X33455000Y-56527000D02*
X33455000Y-55487000D01*
X33455000Y-55487000D02*
X33725000Y-55487000D01*
X36125000Y-55487000D02*
X36395000Y-55487000D01*
X36395000Y-55487000D02*
X36395000Y-56527000D01*
X36395000Y-56527000D02*
X36125000Y-56527000D01*
X33794000Y-52254000D02*
X33794000Y-52524000D01*
X33794000Y-52524000D02*
X32754000Y-52524000D01*
X32754000Y-52524000D02*
X32754000Y-52254000D01*
X32754000Y-49854000D02*
X32754000Y-49584000D01*
X32754000Y-49584000D02*
X33794000Y-49584000D01*
X33794000Y-49584000D02*
X33794000Y-49854000D01*
X36486400Y-52254000D02*
X36486400Y-52524000D01*
X36486400Y-52524000D02*
X35446400Y-52524000D01*
X35446400Y-52524000D02*
X35446400Y-52254000D01*
X35446400Y-49854000D02*
X35446400Y-49584000D01*
X35446400Y-49584000D02*
X36486400Y-49584000D01*
X36486400Y-49584000D02*
X36486400Y-49854000D01*
X35191000Y-52254000D02*
X35191000Y-52524000D01*
X35191000Y-52524000D02*
X34151000Y-52524000D01*
X34151000Y-52524000D02*
X34151000Y-52254000D01*
X34151000Y-49854000D02*
X34151000Y-49584000D01*
X34151000Y-49584000D02*
X35191000Y-49584000D01*
X35191000Y-49584000D02*
X35191000Y-49854000D01*
X40702800Y-43948200D02*
X40702800Y-44218200D01*
X40702800Y-44218200D02*
X39662800Y-44218200D01*
X39662800Y-44218200D02*
X39662800Y-43948200D01*
X39662800Y-41548200D02*
X39662800Y-41278200D01*
X39662800Y-41278200D02*
X40702800Y-41278200D01*
X40702800Y-41278200D02*
X40702800Y-41548200D01*
X33725000Y-59549600D02*
X33455000Y-59549600D01*
X33455000Y-59549600D02*
X33455000Y-58509600D01*
X33455000Y-58509600D02*
X33725000Y-58509600D01*
X36125000Y-58509600D02*
X36395000Y-58509600D01*
X36395000Y-58509600D02*
X36395000Y-59549600D01*
X36395000Y-59549600D02*
X36125000Y-59549600D01*
X33725000Y-58051000D02*
X33455000Y-58051000D01*
X33455000Y-58051000D02*
X33455000Y-57011000D01*
X33455000Y-57011000D02*
X33725000Y-57011000D01*
X36125000Y-57011000D02*
X36395000Y-57011000D01*
X36395000Y-57011000D02*
X36395000Y-58051000D01*
X36395000Y-58051000D02*
X36125000Y-58051000D01*
D13*
X34480420Y-42541000D02*
X34330560Y-42541000D01*
X35328780Y-42541000D02*
X35529440Y-42541000D01*
X34480420Y-42541000D02*
X34480420Y-43290300D01*
X34480420Y-42541000D02*
X34480420Y-41839960D01*
X34480420Y-42541000D02*
X35328780Y-41839960D01*
X35328780Y-41839960D02*
X35328780Y-43242040D01*
X35328780Y-43242040D02*
X34480420Y-42541000D01*
X35374580Y-45085000D02*
X35524440Y-45085000D01*
X34526220Y-45085000D02*
X34325560Y-45085000D01*
X35374580Y-45085000D02*
X35374580Y-44335700D01*
X35374580Y-45085000D02*
X35374580Y-45786040D01*
X35374580Y-45085000D02*
X34526220Y-45786040D01*
X34526220Y-45786040D02*
X34526220Y-44383960D01*
X34526220Y-44383960D02*
X35374580Y-45085000D01*
D12*
X38696800Y-53066800D02*
X38696800Y-53716800D01*
X38696800Y-53716800D02*
X37096800Y-53716800D01*
X37096800Y-53716800D02*
X37096800Y-53066800D01*
X37096800Y-50666800D02*
X37096800Y-50016800D01*
X37096800Y-50016800D02*
X38696800Y-50016800D01*
X38696800Y-50016800D02*
X38696800Y-50666800D01*
X31661000Y-53143000D02*
X31661000Y-53793000D01*
X31661000Y-53793000D02*
X30061000Y-53793000D01*
X30061000Y-53793000D02*
X30061000Y-53143000D01*
X30061000Y-50743000D02*
X30061000Y-50093000D01*
X30061000Y-50093000D02*
X31661000Y-50093000D01*
X31661000Y-50093000D02*
X31661000Y-50743000D01*
X31185000Y-65443000D02*
X30535000Y-65443000D01*
X30535000Y-65443000D02*
X30535000Y-63843000D01*
X30535000Y-63843000D02*
X31185000Y-63843000D01*
X33585000Y-63843000D02*
X34235000Y-63843000D01*
X34235000Y-63843000D02*
X34235000Y-65443000D01*
X34235000Y-65443000D02*
X33585000Y-65443000D01*
X38665000Y-63843000D02*
X39315000Y-63843000D01*
X39315000Y-63843000D02*
X39315000Y-65443000D01*
X39315000Y-65443000D02*
X38665000Y-65443000D01*
X36265000Y-65443000D02*
X35615000Y-65443000D01*
X35615000Y-65443000D02*
X35615000Y-63843000D01*
X35615000Y-63843000D02*
X36265000Y-63843000D01*
X68080466Y-63536286D02*
X68119171Y-63574990D01*
X68235285Y-63613695D01*
X68312695Y-63613695D01*
X68428809Y-63574990D01*
X68506218Y-63497581D01*
X68544923Y-63420171D01*
X68583628Y-63265352D01*
X68583628Y-63149238D01*
X68544923Y-62994419D01*
X68506218Y-62917010D01*
X68428809Y-62839600D01*
X68312695Y-62800895D01*
X68235285Y-62800895D01*
X68119171Y-62839600D01*
X68080466Y-62878305D01*
X67345076Y-62800895D02*
X67732123Y-62800895D01*
X67770828Y-63187943D01*
X67732123Y-63149238D01*
X67654714Y-63110533D01*
X67461190Y-63110533D01*
X67383780Y-63149238D01*
X67345076Y-63187943D01*
X67306371Y-63265352D01*
X67306371Y-63458876D01*
X67345076Y-63536286D01*
X67383780Y-63574990D01*
X67461190Y-63613695D01*
X67654714Y-63613695D01*
X67732123Y-63574990D01*
X67770828Y-63536286D01*
X63762466Y-63663286D02*
X63801171Y-63701990D01*
X63917285Y-63740695D01*
X63994695Y-63740695D01*
X64110809Y-63701990D01*
X64188218Y-63624581D01*
X64226923Y-63547171D01*
X64265628Y-63392352D01*
X64265628Y-63276238D01*
X64226923Y-63121419D01*
X64188218Y-63044010D01*
X64110809Y-62966600D01*
X63994695Y-62927895D01*
X63917285Y-62927895D01*
X63801171Y-62966600D01*
X63762466Y-63005305D01*
X63065780Y-63198829D02*
X63065780Y-63740695D01*
X63259304Y-62889190D02*
X63452828Y-63469762D01*
X62949666Y-63469762D01*
X61476466Y-54850695D02*
X61747399Y-54463648D01*
X61940923Y-54850695D02*
X61940923Y-54037895D01*
X61631285Y-54037895D01*
X61553876Y-54076600D01*
X61515171Y-54115305D01*
X61476466Y-54192714D01*
X61476466Y-54308829D01*
X61515171Y-54386238D01*
X61553876Y-54424943D01*
X61631285Y-54463648D01*
X61940923Y-54463648D01*
X60741076Y-54037895D02*
X61128123Y-54037895D01*
X61166828Y-54424943D01*
X61128123Y-54386238D01*
X61050714Y-54347533D01*
X60857190Y-54347533D01*
X60779780Y-54386238D01*
X60741076Y-54424943D01*
X60702371Y-54502352D01*
X60702371Y-54695876D01*
X60741076Y-54773286D01*
X60779780Y-54811990D01*
X60857190Y-54850695D01*
X61050714Y-54850695D01*
X61128123Y-54811990D01*
X61166828Y-54773286D01*
X68588466Y-54850695D02*
X68859399Y-54463648D01*
X69052923Y-54850695D02*
X69052923Y-54037895D01*
X68743285Y-54037895D01*
X68665876Y-54076600D01*
X68627171Y-54115305D01*
X68588466Y-54192714D01*
X68588466Y-54308829D01*
X68627171Y-54386238D01*
X68665876Y-54424943D01*
X68743285Y-54463648D01*
X69052923Y-54463648D01*
X67891780Y-54308829D02*
X67891780Y-54850695D01*
X68085304Y-53999190D02*
X68278828Y-54579762D01*
X67775666Y-54579762D01*
D11*
X60820904Y-45671619D02*
X60820904Y-44655619D01*
X60578999Y-44655619D01*
X60433857Y-44704000D01*
X60337095Y-44800762D01*
X60288714Y-44897524D01*
X60240333Y-45091048D01*
X60240333Y-45236190D01*
X60288714Y-45429714D01*
X60337095Y-45526476D01*
X60433857Y-45623238D01*
X60578999Y-45671619D01*
X60820904Y-45671619D01*
X59901666Y-44655619D02*
X59272714Y-44655619D01*
X59611380Y-45042667D01*
X59466238Y-45042667D01*
X59369476Y-45091048D01*
X59321095Y-45139429D01*
X59272714Y-45236190D01*
X59272714Y-45478095D01*
X59321095Y-45574857D01*
X59369476Y-45623238D01*
X59466238Y-45671619D01*
X59756523Y-45671619D01*
X59853285Y-45623238D01*
X59901666Y-45574857D01*
X60820904Y-43131619D02*
X60820904Y-42115619D01*
X60578999Y-42115619D01*
X60433857Y-42164000D01*
X60337095Y-42260762D01*
X60288714Y-42357524D01*
X60240333Y-42551048D01*
X60240333Y-42696190D01*
X60288714Y-42889714D01*
X60337095Y-42986476D01*
X60433857Y-43083238D01*
X60578999Y-43131619D01*
X60820904Y-43131619D01*
X59853285Y-42212381D02*
X59804904Y-42164000D01*
X59708142Y-42115619D01*
X59466238Y-42115619D01*
X59369476Y-42164000D01*
X59321095Y-42212381D01*
X59272714Y-42309143D01*
X59272714Y-42405905D01*
X59321095Y-42551048D01*
X59901666Y-43131619D01*
X59272714Y-43131619D01*
D12*
X67953466Y-57948286D02*
X67992171Y-57986990D01*
X68108285Y-58025695D01*
X68185695Y-58025695D01*
X68301809Y-57986990D01*
X68379218Y-57909581D01*
X68417923Y-57832171D01*
X68456628Y-57677352D01*
X68456628Y-57561238D01*
X68417923Y-57406419D01*
X68379218Y-57329010D01*
X68301809Y-57251600D01*
X68185695Y-57212895D01*
X68108285Y-57212895D01*
X67992171Y-57251600D01*
X67953466Y-57290305D01*
X67643828Y-57290305D02*
X67605123Y-57251600D01*
X67527714Y-57212895D01*
X67334190Y-57212895D01*
X67256780Y-57251600D01*
X67218076Y-57290305D01*
X67179371Y-57367714D01*
X67179371Y-57445124D01*
X67218076Y-57561238D01*
X67682533Y-58025695D01*
X67179371Y-58025695D01*
X67953466Y-59599286D02*
X67992171Y-59637990D01*
X68108285Y-59676695D01*
X68185695Y-59676695D01*
X68301809Y-59637990D01*
X68379218Y-59560581D01*
X68417923Y-59483171D01*
X68456628Y-59328352D01*
X68456628Y-59212238D01*
X68417923Y-59057419D01*
X68379218Y-58980010D01*
X68301809Y-58902600D01*
X68185695Y-58863895D01*
X68108285Y-58863895D01*
X67992171Y-58902600D01*
X67953466Y-58941305D01*
X67179371Y-59676695D02*
X67643828Y-59676695D01*
X67411599Y-59676695D02*
X67411599Y-58863895D01*
X67489009Y-58980010D01*
X67566418Y-59057419D01*
X67643828Y-59096124D01*
X70747466Y-41007695D02*
X71018399Y-40620648D01*
X71211923Y-41007695D02*
X71211923Y-40194895D01*
X70902285Y-40194895D01*
X70824876Y-40233600D01*
X70786171Y-40272305D01*
X70747466Y-40349714D01*
X70747466Y-40465829D01*
X70786171Y-40543238D01*
X70824876Y-40581943D01*
X70902285Y-40620648D01*
X71211923Y-40620648D01*
X70050780Y-40194895D02*
X70205599Y-40194895D01*
X70283009Y-40233600D01*
X70321714Y-40272305D01*
X70399123Y-40388419D01*
X70437828Y-40543238D01*
X70437828Y-40852876D01*
X70399123Y-40930286D01*
X70360418Y-40968990D01*
X70283009Y-41007695D01*
X70128190Y-41007695D01*
X70050780Y-40968990D01*
X70012076Y-40930286D01*
X69973371Y-40852876D01*
X69973371Y-40659352D01*
X70012076Y-40581943D01*
X70050780Y-40543238D01*
X70128190Y-40504533D01*
X70283009Y-40504533D01*
X70360418Y-40543238D01*
X70399123Y-40581943D01*
X70437828Y-40659352D01*
X65159466Y-53580695D02*
X65430399Y-53193648D01*
X65623923Y-53580695D02*
X65623923Y-52767895D01*
X65314285Y-52767895D01*
X65236876Y-52806600D01*
X65198171Y-52845305D01*
X65159466Y-52922714D01*
X65159466Y-53038829D01*
X65198171Y-53116238D01*
X65236876Y-53154943D01*
X65314285Y-53193648D01*
X65623923Y-53193648D01*
X64888533Y-52767895D02*
X64385371Y-52767895D01*
X64656304Y-53077533D01*
X64540190Y-53077533D01*
X64462780Y-53116238D01*
X64424076Y-53154943D01*
X64385371Y-53232352D01*
X64385371Y-53425876D01*
X64424076Y-53503286D01*
X64462780Y-53541990D01*
X64540190Y-53580695D01*
X64772418Y-53580695D01*
X64849828Y-53541990D01*
X64888533Y-53503286D01*
X66810466Y-53580695D02*
X67081399Y-53193648D01*
X67274923Y-53580695D02*
X67274923Y-52767895D01*
X66965285Y-52767895D01*
X66887876Y-52806600D01*
X66849171Y-52845305D01*
X66810466Y-52922714D01*
X66810466Y-53038829D01*
X66849171Y-53116238D01*
X66887876Y-53154943D01*
X66965285Y-53193648D01*
X67274923Y-53193648D01*
X66500828Y-52845305D02*
X66462123Y-52806600D01*
X66384714Y-52767895D01*
X66191190Y-52767895D01*
X66113780Y-52806600D01*
X66075076Y-52845305D01*
X66036371Y-52922714D01*
X66036371Y-53000124D01*
X66075076Y-53116238D01*
X66539533Y-53580695D01*
X66036371Y-53580695D01*
X63508466Y-53580695D02*
X63779399Y-53193648D01*
X63972923Y-53580695D02*
X63972923Y-52767895D01*
X63663285Y-52767895D01*
X63585876Y-52806600D01*
X63547171Y-52845305D01*
X63508466Y-52922714D01*
X63508466Y-53038829D01*
X63547171Y-53116238D01*
X63585876Y-53154943D01*
X63663285Y-53193648D01*
X63972923Y-53193648D01*
X62734371Y-53580695D02*
X63198828Y-53580695D01*
X62966599Y-53580695D02*
X62966599Y-52767895D01*
X63044009Y-52884010D01*
X63121418Y-52961419D01*
X63198828Y-53000124D01*
X67953466Y-56551286D02*
X67992171Y-56589990D01*
X68108285Y-56628695D01*
X68185695Y-56628695D01*
X68301809Y-56589990D01*
X68379218Y-56512581D01*
X68417923Y-56435171D01*
X68456628Y-56280352D01*
X68456628Y-56164238D01*
X68417923Y-56009419D01*
X68379218Y-55932010D01*
X68301809Y-55854600D01*
X68185695Y-55815895D01*
X68108285Y-55815895D01*
X67992171Y-55854600D01*
X67953466Y-55893305D01*
X67682533Y-55815895D02*
X67179371Y-55815895D01*
X67450304Y-56125533D01*
X67334190Y-56125533D01*
X67256780Y-56164238D01*
X67218076Y-56202943D01*
X67179371Y-56280352D01*
X67179371Y-56473876D01*
X67218076Y-56551286D01*
X67256780Y-56589990D01*
X67334190Y-56628695D01*
X67566418Y-56628695D01*
X67643828Y-56589990D01*
X67682533Y-56551286D01*
D11*
X65579333Y-37753857D02*
X65627714Y-37802238D01*
X65772857Y-37850619D01*
X65869619Y-37850619D01*
X66014761Y-37802238D01*
X66111523Y-37705476D01*
X66159904Y-37608714D01*
X66208285Y-37415190D01*
X66208285Y-37270048D01*
X66159904Y-37076524D01*
X66111523Y-36979762D01*
X66014761Y-36883000D01*
X65869619Y-36834619D01*
X65772857Y-36834619D01*
X65627714Y-36883000D01*
X65579333Y-36931381D01*
X64708476Y-36834619D02*
X64901999Y-36834619D01*
X64998761Y-36883000D01*
X65047142Y-36931381D01*
X65143904Y-37076524D01*
X65192285Y-37270048D01*
X65192285Y-37657095D01*
X65143904Y-37753857D01*
X65095523Y-37802238D01*
X64998761Y-37850619D01*
X64805238Y-37850619D01*
X64708476Y-37802238D01*
X64660095Y-37753857D01*
X64611714Y-37657095D01*
X64611714Y-37415190D01*
X64660095Y-37318429D01*
X64708476Y-37270048D01*
X64805238Y-37221667D01*
X64998761Y-37221667D01*
X65095523Y-37270048D01*
X65143904Y-37318429D01*
X65192285Y-37415190D01*
X35099333Y-37753857D02*
X35147714Y-37802238D01*
X35292857Y-37850619D01*
X35389619Y-37850619D01*
X35534761Y-37802238D01*
X35631523Y-37705476D01*
X35679904Y-37608714D01*
X35728285Y-37415190D01*
X35728285Y-37270048D01*
X35679904Y-37076524D01*
X35631523Y-36979762D01*
X35534761Y-36883000D01*
X35389619Y-36834619D01*
X35292857Y-36834619D01*
X35147714Y-36883000D01*
X35099333Y-36931381D01*
X34228476Y-36834619D02*
X34421999Y-36834619D01*
X34518761Y-36883000D01*
X34567142Y-36931381D01*
X34663904Y-37076524D01*
X34712285Y-37270048D01*
X34712285Y-37657095D01*
X34663904Y-37753857D01*
X34615523Y-37802238D01*
X34518761Y-37850619D01*
X34325238Y-37850619D01*
X34228476Y-37802238D01*
X34180095Y-37753857D01*
X34131714Y-37657095D01*
X34131714Y-37415190D01*
X34180095Y-37318429D01*
X34228476Y-37270048D01*
X34325238Y-37221667D01*
X34518761Y-37221667D01*
X34615523Y-37270048D01*
X34663904Y-37318429D01*
X34712285Y-37415190D01*
D12*
X37473466Y-56551286D02*
X37512171Y-56589990D01*
X37628285Y-56628695D01*
X37705695Y-56628695D01*
X37821809Y-56589990D01*
X37899218Y-56512581D01*
X37937923Y-56435171D01*
X37976628Y-56280352D01*
X37976628Y-56164238D01*
X37937923Y-56009419D01*
X37899218Y-55932010D01*
X37821809Y-55854600D01*
X37705695Y-55815895D01*
X37628285Y-55815895D01*
X37512171Y-55854600D01*
X37473466Y-55893305D01*
X37202533Y-55815895D02*
X36699371Y-55815895D01*
X36970304Y-56125533D01*
X36854190Y-56125533D01*
X36776780Y-56164238D01*
X36738076Y-56202943D01*
X36699371Y-56280352D01*
X36699371Y-56473876D01*
X36738076Y-56551286D01*
X36776780Y-56589990D01*
X36854190Y-56628695D01*
X37086418Y-56628695D01*
X37163828Y-56589990D01*
X37202533Y-56551286D01*
X33028466Y-53580695D02*
X33299399Y-53193648D01*
X33492923Y-53580695D02*
X33492923Y-52767895D01*
X33183285Y-52767895D01*
X33105876Y-52806600D01*
X33067171Y-52845305D01*
X33028466Y-52922714D01*
X33028466Y-53038829D01*
X33067171Y-53116238D01*
X33105876Y-53154943D01*
X33183285Y-53193648D01*
X33492923Y-53193648D01*
X32254371Y-53580695D02*
X32718828Y-53580695D01*
X32486599Y-53580695D02*
X32486599Y-52767895D01*
X32564009Y-52884010D01*
X32641418Y-52961419D01*
X32718828Y-53000124D01*
X36330466Y-53580695D02*
X36601399Y-53193648D01*
X36794923Y-53580695D02*
X36794923Y-52767895D01*
X36485285Y-52767895D01*
X36407876Y-52806600D01*
X36369171Y-52845305D01*
X36330466Y-52922714D01*
X36330466Y-53038829D01*
X36369171Y-53116238D01*
X36407876Y-53154943D01*
X36485285Y-53193648D01*
X36794923Y-53193648D01*
X36020828Y-52845305D02*
X35982123Y-52806600D01*
X35904714Y-52767895D01*
X35711190Y-52767895D01*
X35633780Y-52806600D01*
X35595076Y-52845305D01*
X35556371Y-52922714D01*
X35556371Y-53000124D01*
X35595076Y-53116238D01*
X36059533Y-53580695D01*
X35556371Y-53580695D01*
X34679466Y-53580695D02*
X34950399Y-53193648D01*
X35143923Y-53580695D02*
X35143923Y-52767895D01*
X34834285Y-52767895D01*
X34756876Y-52806600D01*
X34718171Y-52845305D01*
X34679466Y-52922714D01*
X34679466Y-53038829D01*
X34718171Y-53116238D01*
X34756876Y-53154943D01*
X34834285Y-53193648D01*
X35143923Y-53193648D01*
X34408533Y-52767895D02*
X33905371Y-52767895D01*
X34176304Y-53077533D01*
X34060190Y-53077533D01*
X33982780Y-53116238D01*
X33944076Y-53154943D01*
X33905371Y-53232352D01*
X33905371Y-53425876D01*
X33944076Y-53503286D01*
X33982780Y-53541990D01*
X34060190Y-53580695D01*
X34292418Y-53580695D01*
X34369828Y-53541990D01*
X34408533Y-53503286D01*
X40267466Y-41007695D02*
X40538399Y-40620648D01*
X40731923Y-41007695D02*
X40731923Y-40194895D01*
X40422285Y-40194895D01*
X40344876Y-40233600D01*
X40306171Y-40272305D01*
X40267466Y-40349714D01*
X40267466Y-40465829D01*
X40306171Y-40543238D01*
X40344876Y-40581943D01*
X40422285Y-40620648D01*
X40731923Y-40620648D01*
X39570780Y-40194895D02*
X39725599Y-40194895D01*
X39803009Y-40233600D01*
X39841714Y-40272305D01*
X39919123Y-40388419D01*
X39957828Y-40543238D01*
X39957828Y-40852876D01*
X39919123Y-40930286D01*
X39880418Y-40968990D01*
X39803009Y-41007695D01*
X39648190Y-41007695D01*
X39570780Y-40968990D01*
X39532076Y-40930286D01*
X39493371Y-40852876D01*
X39493371Y-40659352D01*
X39532076Y-40581943D01*
X39570780Y-40543238D01*
X39648190Y-40504533D01*
X39803009Y-40504533D01*
X39880418Y-40543238D01*
X39919123Y-40581943D01*
X39957828Y-40659352D01*
X37473466Y-59599286D02*
X37512171Y-59637990D01*
X37628285Y-59676695D01*
X37705695Y-59676695D01*
X37821809Y-59637990D01*
X37899218Y-59560581D01*
X37937923Y-59483171D01*
X37976628Y-59328352D01*
X37976628Y-59212238D01*
X37937923Y-59057419D01*
X37899218Y-58980010D01*
X37821809Y-58902600D01*
X37705695Y-58863895D01*
X37628285Y-58863895D01*
X37512171Y-58902600D01*
X37473466Y-58941305D01*
X36699371Y-59676695D02*
X37163828Y-59676695D01*
X36931599Y-59676695D02*
X36931599Y-58863895D01*
X37009009Y-58980010D01*
X37086418Y-59057419D01*
X37163828Y-59096124D01*
X37473466Y-57948286D02*
X37512171Y-57986990D01*
X37628285Y-58025695D01*
X37705695Y-58025695D01*
X37821809Y-57986990D01*
X37899218Y-57909581D01*
X37937923Y-57832171D01*
X37976628Y-57677352D01*
X37976628Y-57561238D01*
X37937923Y-57406419D01*
X37899218Y-57329010D01*
X37821809Y-57251600D01*
X37705695Y-57212895D01*
X37628285Y-57212895D01*
X37512171Y-57251600D01*
X37473466Y-57290305D01*
X37163828Y-57290305D02*
X37125123Y-57251600D01*
X37047714Y-57212895D01*
X36854190Y-57212895D01*
X36776780Y-57251600D01*
X36738076Y-57290305D01*
X36699371Y-57367714D01*
X36699371Y-57445124D01*
X36738076Y-57561238D01*
X37202533Y-58025695D01*
X36699371Y-58025695D01*
D11*
X30340904Y-43131619D02*
X30340904Y-42115619D01*
X30098999Y-42115619D01*
X29953857Y-42164000D01*
X29857095Y-42260762D01*
X29808714Y-42357524D01*
X29760333Y-42551048D01*
X29760333Y-42696190D01*
X29808714Y-42889714D01*
X29857095Y-42986476D01*
X29953857Y-43083238D01*
X30098999Y-43131619D01*
X30340904Y-43131619D01*
X29373285Y-42212381D02*
X29324904Y-42164000D01*
X29228142Y-42115619D01*
X28986238Y-42115619D01*
X28889476Y-42164000D01*
X28841095Y-42212381D01*
X28792714Y-42309143D01*
X28792714Y-42405905D01*
X28841095Y-42551048D01*
X29421666Y-43131619D01*
X28792714Y-43131619D01*
X30340904Y-45671619D02*
X30340904Y-44655619D01*
X30098999Y-44655619D01*
X29953857Y-44704000D01*
X29857095Y-44800762D01*
X29808714Y-44897524D01*
X29760333Y-45091048D01*
X29760333Y-45236190D01*
X29808714Y-45429714D01*
X29857095Y-45526476D01*
X29953857Y-45623238D01*
X30098999Y-45671619D01*
X30340904Y-45671619D01*
X29421666Y-44655619D02*
X28792714Y-44655619D01*
X29131380Y-45042667D01*
X28986238Y-45042667D01*
X28889476Y-45091048D01*
X28841095Y-45139429D01*
X28792714Y-45236190D01*
X28792714Y-45478095D01*
X28841095Y-45574857D01*
X28889476Y-45623238D01*
X28986238Y-45671619D01*
X29276523Y-45671619D01*
X29373285Y-45623238D01*
X29421666Y-45574857D01*
D12*
X38108466Y-54850695D02*
X38379399Y-54463648D01*
X38572923Y-54850695D02*
X38572923Y-54037895D01*
X38263285Y-54037895D01*
X38185876Y-54076600D01*
X38147171Y-54115305D01*
X38108466Y-54192714D01*
X38108466Y-54308829D01*
X38147171Y-54386238D01*
X38185876Y-54424943D01*
X38263285Y-54463648D01*
X38572923Y-54463648D01*
X37411780Y-54308829D02*
X37411780Y-54850695D01*
X37605304Y-53999190D02*
X37798828Y-54579762D01*
X37295666Y-54579762D01*
X30996466Y-54850695D02*
X31267399Y-54463648D01*
X31460923Y-54850695D02*
X31460923Y-54037895D01*
X31151285Y-54037895D01*
X31073876Y-54076600D01*
X31035171Y-54115305D01*
X30996466Y-54192714D01*
X30996466Y-54308829D01*
X31035171Y-54386238D01*
X31073876Y-54424943D01*
X31151285Y-54463648D01*
X31460923Y-54463648D01*
X30261076Y-54037895D02*
X30648123Y-54037895D01*
X30686828Y-54424943D01*
X30648123Y-54386238D01*
X30570714Y-54347533D01*
X30377190Y-54347533D01*
X30299780Y-54386238D01*
X30261076Y-54424943D01*
X30222371Y-54502352D01*
X30222371Y-54695876D01*
X30261076Y-54773286D01*
X30299780Y-54811990D01*
X30377190Y-54850695D01*
X30570714Y-54850695D01*
X30648123Y-54811990D01*
X30686828Y-54773286D01*
X33282466Y-63663286D02*
X33321171Y-63701990D01*
X33437285Y-63740695D01*
X33514695Y-63740695D01*
X33630809Y-63701990D01*
X33708218Y-63624581D01*
X33746923Y-63547171D01*
X33785628Y-63392352D01*
X33785628Y-63276238D01*
X33746923Y-63121419D01*
X33708218Y-63044010D01*
X33630809Y-62966600D01*
X33514695Y-62927895D01*
X33437285Y-62927895D01*
X33321171Y-62966600D01*
X33282466Y-63005305D01*
X32585780Y-63198829D02*
X32585780Y-63740695D01*
X32779304Y-62889190D02*
X32972828Y-63469762D01*
X32469666Y-63469762D01*
X37600466Y-63536286D02*
X37639171Y-63574990D01*
X37755285Y-63613695D01*
X37832695Y-63613695D01*
X37948809Y-63574990D01*
X38026218Y-63497581D01*
X38064923Y-63420171D01*
X38103628Y-63265352D01*
X38103628Y-63149238D01*
X38064923Y-62994419D01*
X38026218Y-62917010D01*
X37948809Y-62839600D01*
X37832695Y-62800895D01*
X37755285Y-62800895D01*
X37639171Y-62839600D01*
X37600466Y-62878305D01*
X36865076Y-62800895D02*
X37252123Y-62800895D01*
X37290828Y-63187943D01*
X37252123Y-63149238D01*
X37174714Y-63110533D01*
X36981190Y-63110533D01*
X36903780Y-63149238D01*
X36865076Y-63187943D01*
X36826371Y-63265352D01*
X36826371Y-63458876D01*
X36865076Y-63536286D01*
X36903780Y-63574990D01*
X36981190Y-63613695D01*
X37174714Y-63613695D01*
X37252123Y-63574990D01*
X37290828Y-63536286D01*
M02*
