M48
METRIC,TZ
T1C0.500
T2C0.635
T3C0.850
T4C1.000
T5C1.016
T6C3.400
%
G90
G05
T1
X044200Y-038370
X044200Y-039370
X044200Y-040370
X044200Y-068215
X044200Y-069215
X044200Y-070215
X047240Y-038370
X047240Y-039370
X047240Y-040370
X047240Y-068215
X047240Y-069215
X047240Y-070215
X053090Y-038370
X053090Y-039370
X053090Y-040370
X053090Y-068215
X053090Y-069215
X053090Y-070215
X056130Y-038370
X056130Y-039370
X056130Y-040370
X056130Y-068215
X056130Y-069215
X056130Y-070215
T2
X028956Y-067310
X029591Y-041529
X029630Y-061971
X030099Y-063246
X030353Y-069215
X030360Y-047031
X030988Y-056515
X031877Y-058293
X031902Y-062865
X032258Y-048768
X032258Y-054991
X032639Y-037719
X032639Y-068961
X033782Y-048641
X033820Y-041241
X034290Y-065405
X034468Y-063119
X034544Y-042443
X034544Y-054229
X034544Y-060960
X035433Y-065405
X035440Y-069651
X035662Y-046965
X035687Y-054102
X036068Y-048895
X036830Y-054483
X037211Y-037719
X037460Y-068781
X037610Y-055401
X037846Y-048768
X038370Y-056281
X038913Y-057302
X038930Y-041881
X039878Y-066929
X040120Y-039641
X040513Y-044831
X041050Y-049291
X059436Y-067310
X060071Y-041529
X060110Y-061971
X060579Y-063246
X060833Y-069215
X060840Y-047031
X061468Y-056515
X062357Y-058293
X062382Y-062865
X062738Y-048768
X062738Y-054991
X063119Y-037719
X063119Y-068961
X064262Y-048641
X064300Y-041241
X064770Y-065405
X064948Y-063119
X065024Y-042443
X065024Y-054229
X065024Y-060960
X065913Y-065405
X065920Y-069651
X066142Y-046965
X066167Y-054102
X066548Y-048895
X067310Y-054483
X067691Y-037719
X067940Y-068781
X068090Y-055401
X068326Y-048768
X068850Y-056281
X069393Y-057302
X069410Y-041881
X070358Y-066929
X070600Y-039641
X070993Y-044831
X071530Y-049291
T3
X032500Y-034742
X037350Y-034742
X062980Y-034742
X067830Y-034742
T5
X027305Y-040386
X027305Y-042926
X027305Y-045466
X027305Y-048006
X027305Y-050546
X027305Y-053086
X027305Y-055626
X027305Y-058166
X027305Y-060706
X027305Y-063246
X027305Y-065786
X027305Y-068326
X032390Y-070901
X032390Y-073441
X034930Y-070901
X034930Y-073441
X037470Y-070901
X037470Y-073441
X042545Y-040386
X042545Y-042926
X042545Y-045466
X042545Y-048006
X042545Y-050546
X042545Y-053086
X042545Y-055626
X042545Y-058166
X042545Y-060706
X042545Y-063246
X042545Y-065786
X042545Y-068326
X057785Y-040386
X057785Y-042926
X057785Y-045466
X057785Y-048006
X057785Y-050546
X057785Y-053086
X057785Y-055626
X057785Y-058166
X057785Y-060706
X057785Y-063246
X057785Y-065786
X057785Y-068326
X062870Y-070901
X062870Y-073441
X065410Y-070901
X065410Y-073441
X067950Y-070901
X067950Y-073441
X073025Y-040386
X073025Y-042926
X073025Y-045466
X073025Y-048006
X073025Y-050546
X073025Y-053086
X073025Y-055626
X073025Y-058166
X073025Y-060706
X073025Y-063246
X073025Y-065786
X073025Y-068326
T6
X028425Y-036263
X028425Y-072263
X041425Y-036263
X041425Y-072263
X058905Y-036263
X058905Y-072263
X071905Y-036263
X071905Y-072263
T4
X031425Y-031992G85X031425Y-031492
G05
X038425Y-031992G85X038425Y-031492
G05
X061905Y-031992G85X061905Y-031492
G05
X068905Y-031992G85X068905Y-031492
G05
T0
M30
