%FSLAX46Y46*%
G04 Gerber Fmt 4.6, Leading zero omitted, Abs format (unit mm)*
G04 Created by KiCad (PCBNEW (2014-08-08 BZR 5060)-product) date tir 19 aug 2014 17:24:29 CEST*
%MOMM*%
G01*
G04 APERTURE LIST*
%ADD10C,0.150000*%
%ADD11C,0.508000*%
%ADD12O,1.905000X1.651000*%
%ADD13R,1.600000X1.500000*%
%ADD14R,1.300000X1.100000*%
%ADD15R,0.400000X3.000000*%
%ADD16R,1.800000X1.900000*%
%ADD17R,2.100000X1.900000*%
%ADD18C,1.300000*%
%ADD19R,2.900000X2.400000*%
%ADD20C,5.715000*%
%ADD21R,1.650000X1.700000*%
%ADD22O,1.727200X1.727200*%
G04 APERTURE END LIST*
D10*
D11*
X50007762Y-57875715D02*
X52039762Y-58129715D01*
X51072143Y-58008763D02*
X51072143Y-59169905D01*
X50007762Y-59036857D02*
X52039762Y-59290857D01*
X50007762Y-60875334D02*
X51072143Y-61008382D01*
X51265667Y-60935810D01*
X51362429Y-60754382D01*
X51362429Y-60367334D01*
X51265667Y-60161715D01*
X50104524Y-60887430D02*
X50007762Y-60681810D01*
X50007762Y-60198000D01*
X50104524Y-60016573D01*
X50298048Y-59944001D01*
X50491571Y-59968191D01*
X50685095Y-60089144D01*
X50781857Y-60294762D01*
X50781857Y-60778572D01*
X50878619Y-60984191D01*
X51362429Y-62012287D02*
X50007762Y-61842953D01*
X51168905Y-61988096D02*
X51265667Y-62096952D01*
X51362429Y-62302572D01*
X51362429Y-62592858D01*
X51265667Y-62774286D01*
X51072143Y-62846858D01*
X50007762Y-62713810D01*
X50007762Y-64552286D02*
X52039762Y-64806286D01*
X50104524Y-64564382D02*
X50007762Y-64358762D01*
X50007762Y-63971714D01*
X50104524Y-63790286D01*
X50201286Y-63705620D01*
X50394810Y-63633048D01*
X50975381Y-63705620D01*
X51168905Y-63826572D01*
X51265667Y-63935428D01*
X51362429Y-64141048D01*
X51362429Y-64528096D01*
X51265667Y-64709524D01*
X51362429Y-65495715D02*
X50007762Y-65810190D01*
X51362429Y-66463334D02*
X50007762Y-65810190D01*
X49523952Y-65556190D01*
X49427190Y-65447334D01*
X49330429Y-65241715D01*
D12*
X73152000Y-40386000D03*
X73152000Y-42926000D03*
X73152000Y-45466000D03*
X73152000Y-48006000D03*
X73152000Y-50546000D03*
X73152000Y-53086000D03*
X73152000Y-55626000D03*
X73152000Y-58166000D03*
X73152000Y-60706000D03*
X73152000Y-63246000D03*
X73152000Y-65786000D03*
X73152000Y-68326000D03*
D13*
X68326000Y-40142000D03*
X68326000Y-47742000D03*
X62484000Y-40142000D03*
X62484000Y-47742000D03*
D10*
G36*
X63414975Y-63257094D02*
X63097074Y-62939193D01*
X64510567Y-61525700D01*
X64828468Y-61843601D01*
X63414975Y-63257094D01*
X63414975Y-63257094D01*
G37*
G36*
X62849219Y-62691338D02*
X62531318Y-62373437D01*
X63944811Y-60959944D01*
X64262712Y-61277845D01*
X62849219Y-62691338D01*
X62849219Y-62691338D01*
G37*
G36*
X62283463Y-62125582D02*
X61965562Y-61807681D01*
X63379055Y-60394188D01*
X63696956Y-60712089D01*
X62283463Y-62125582D01*
X62283463Y-62125582D01*
G37*
G36*
X61717706Y-61559826D02*
X61399805Y-61241925D01*
X62813298Y-59828432D01*
X63131199Y-60146333D01*
X61717706Y-61559826D01*
X61717706Y-61559826D01*
G37*
G36*
X61151950Y-60994070D02*
X60834049Y-60676169D01*
X62247542Y-59262676D01*
X62565443Y-59580577D01*
X61151950Y-60994070D01*
X61151950Y-60994070D01*
G37*
G36*
X60586194Y-60428313D02*
X60268293Y-60110412D01*
X61681786Y-58696919D01*
X61999687Y-59014820D01*
X60586194Y-60428313D01*
X60586194Y-60428313D01*
G37*
G36*
X60020438Y-59862557D02*
X59702537Y-59544656D01*
X61116030Y-58131163D01*
X61433931Y-58449064D01*
X60020438Y-59862557D01*
X60020438Y-59862557D01*
G37*
G36*
X59454682Y-59296801D02*
X59136781Y-58978900D01*
X60550274Y-57565407D01*
X60868175Y-57883308D01*
X59454682Y-59296801D01*
X59454682Y-59296801D01*
G37*
G36*
X66222203Y-52536464D02*
X65904302Y-52218563D01*
X67317795Y-50805070D01*
X67635696Y-51122971D01*
X66222203Y-52536464D01*
X66222203Y-52536464D01*
G37*
G36*
X70191476Y-56505738D02*
X69873575Y-56187837D01*
X71287068Y-54774344D01*
X71604969Y-55092245D01*
X70191476Y-56505738D01*
X70191476Y-56505738D01*
G37*
G36*
X69616740Y-55931001D02*
X69298839Y-55613100D01*
X70712332Y-54199607D01*
X71030233Y-54517508D01*
X69616740Y-55931001D01*
X69616740Y-55931001D01*
G37*
G36*
X69042003Y-55356265D02*
X68724102Y-55038364D01*
X70137595Y-53624871D01*
X70455496Y-53942772D01*
X69042003Y-55356265D01*
X69042003Y-55356265D01*
G37*
G36*
X68485227Y-54799489D02*
X68167326Y-54481588D01*
X69580819Y-53068095D01*
X69898720Y-53385996D01*
X68485227Y-54799489D01*
X68485227Y-54799489D01*
G37*
G36*
X67910491Y-54224753D02*
X67592590Y-53906852D01*
X69006083Y-52493359D01*
X69323984Y-52811260D01*
X67910491Y-54224753D01*
X67910491Y-54224753D01*
G37*
G36*
X67353715Y-53667977D02*
X67035814Y-53350076D01*
X68449307Y-51936583D01*
X68767208Y-52254484D01*
X67353715Y-53667977D01*
X67353715Y-53667977D01*
G37*
G36*
X66778979Y-53093240D02*
X66461078Y-52775339D01*
X67874571Y-51361846D01*
X68192472Y-51679747D01*
X66778979Y-53093240D01*
X66778979Y-53093240D01*
G37*
G36*
X60543090Y-56473409D02*
X59129597Y-55059916D01*
X59447498Y-54742015D01*
X60860991Y-56155508D01*
X60543090Y-56473409D01*
X60543090Y-56473409D01*
G37*
G36*
X61107050Y-55909449D02*
X59693557Y-54495956D01*
X60011458Y-54178055D01*
X61424951Y-55591548D01*
X61107050Y-55909449D01*
X61107050Y-55909449D01*
G37*
G36*
X61674602Y-55341896D02*
X60261109Y-53928403D01*
X60579010Y-53610502D01*
X61992503Y-55023995D01*
X61674602Y-55341896D01*
X61674602Y-55341896D01*
G37*
G36*
X62238562Y-54777936D02*
X60825069Y-53364443D01*
X61142970Y-53046542D01*
X62556463Y-54460035D01*
X62238562Y-54777936D01*
X62238562Y-54777936D01*
G37*
G36*
X62806114Y-54210384D02*
X61392621Y-52796891D01*
X61710522Y-52478990D01*
X63124015Y-53892483D01*
X62806114Y-54210384D01*
X62806114Y-54210384D01*
G37*
G36*
X63370074Y-53646424D02*
X61956581Y-52232931D01*
X62274482Y-51915030D01*
X63687975Y-53328523D01*
X63370074Y-53646424D01*
X63370074Y-53646424D01*
G37*
G36*
X63937627Y-53078872D02*
X62524134Y-51665379D01*
X62842035Y-51347478D01*
X64255528Y-52760971D01*
X63937627Y-53078872D01*
X63937627Y-53078872D01*
G37*
G36*
X64501587Y-52514912D02*
X63088094Y-51101419D01*
X63405995Y-50783518D01*
X64819488Y-52197011D01*
X64501587Y-52514912D01*
X64501587Y-52514912D01*
G37*
G36*
X67335755Y-63258890D02*
X65922262Y-61845397D01*
X66240163Y-61527496D01*
X67653656Y-62940989D01*
X67335755Y-63258890D01*
X67335755Y-63258890D01*
G37*
G36*
X67892531Y-62702114D02*
X66479038Y-61288621D01*
X66796939Y-60970720D01*
X68210432Y-62384213D01*
X67892531Y-62702114D01*
X67892531Y-62702114D01*
G37*
G36*
X68467268Y-62127378D02*
X67053775Y-60713885D01*
X67371676Y-60395984D01*
X68785169Y-61809477D01*
X68467268Y-62127378D01*
X68467268Y-62127378D01*
G37*
G36*
X69024044Y-61570602D02*
X67610551Y-60157109D01*
X67928452Y-59839208D01*
X69341945Y-61252701D01*
X69024044Y-61570602D01*
X69024044Y-61570602D01*
G37*
G36*
X69580819Y-61013826D02*
X68167326Y-59600333D01*
X68485227Y-59282432D01*
X69898720Y-60695925D01*
X69580819Y-61013826D01*
X69580819Y-61013826D01*
G37*
G36*
X70155556Y-60439090D02*
X68742063Y-59025597D01*
X69059964Y-58707696D01*
X70473457Y-60121189D01*
X70155556Y-60439090D01*
X70155556Y-60439090D01*
G37*
G36*
X70730292Y-59864353D02*
X69316799Y-58450860D01*
X69634700Y-58132959D01*
X71048193Y-59546452D01*
X70730292Y-59864353D01*
X70730292Y-59864353D01*
G37*
G36*
X71305029Y-59289617D02*
X69891536Y-57876124D01*
X70209437Y-57558223D01*
X71622930Y-58971716D01*
X71305029Y-59289617D01*
X71305029Y-59289617D01*
G37*
D14*
X65430400Y-45676200D03*
X65430400Y-43376200D03*
D15*
X66705000Y-35242000D03*
X66055000Y-35242000D03*
X65405000Y-35242000D03*
X64755000Y-35242000D03*
X64105000Y-35242000D03*
D16*
X66555000Y-31742000D03*
X64255000Y-31742000D03*
D17*
X68992500Y-31742000D03*
X61817500Y-31742000D03*
D18*
X62980000Y-34742000D03*
X67830000Y-34742000D03*
D19*
X62855000Y-66827400D03*
X67955000Y-66827400D03*
D20*
X58905000Y-72263000D03*
X71905000Y-72263000D03*
X58905000Y-36263000D03*
X71905000Y-36263000D03*
D21*
X62870000Y-73441000D03*
D22*
X62870000Y-70901000D03*
X65410000Y-73441000D03*
X65410000Y-70901000D03*
X67950000Y-73441000D03*
X67950000Y-70901000D03*
D12*
X57658000Y-68326000D03*
X57658000Y-65786000D03*
X57658000Y-63246000D03*
X57658000Y-60706000D03*
X57658000Y-58166000D03*
X57658000Y-55626000D03*
X57658000Y-53086000D03*
X57658000Y-50546000D03*
X57658000Y-48006000D03*
X57658000Y-45466000D03*
X57658000Y-42926000D03*
X57658000Y-40386000D03*
X27178000Y-68326000D03*
X27178000Y-65786000D03*
X27178000Y-63246000D03*
X27178000Y-60706000D03*
X27178000Y-58166000D03*
X27178000Y-55626000D03*
X27178000Y-53086000D03*
X27178000Y-50546000D03*
X27178000Y-48006000D03*
X27178000Y-45466000D03*
X27178000Y-42926000D03*
X27178000Y-40386000D03*
D21*
X32390000Y-73441000D03*
D22*
X32390000Y-70901000D03*
X34930000Y-73441000D03*
X34930000Y-70901000D03*
X37470000Y-73441000D03*
X37470000Y-70901000D03*
D20*
X41425000Y-36263000D03*
X28425000Y-36263000D03*
X41425000Y-72263000D03*
X28425000Y-72263000D03*
D19*
X32375000Y-66827400D03*
X37475000Y-66827400D03*
D15*
X36225000Y-35242000D03*
X35575000Y-35242000D03*
X34925000Y-35242000D03*
X34275000Y-35242000D03*
X33625000Y-35242000D03*
D16*
X36075000Y-31742000D03*
X33775000Y-31742000D03*
D17*
X38512500Y-31742000D03*
X31337500Y-31742000D03*
D18*
X32500000Y-34742000D03*
X37350000Y-34742000D03*
D14*
X34950400Y-45676200D03*
X34950400Y-43376200D03*
D10*
G36*
X32934975Y-63257094D02*
X32617074Y-62939193D01*
X34030567Y-61525700D01*
X34348468Y-61843601D01*
X32934975Y-63257094D01*
X32934975Y-63257094D01*
G37*
G36*
X32369219Y-62691338D02*
X32051318Y-62373437D01*
X33464811Y-60959944D01*
X33782712Y-61277845D01*
X32369219Y-62691338D01*
X32369219Y-62691338D01*
G37*
G36*
X31803463Y-62125582D02*
X31485562Y-61807681D01*
X32899055Y-60394188D01*
X33216956Y-60712089D01*
X31803463Y-62125582D01*
X31803463Y-62125582D01*
G37*
G36*
X31237706Y-61559826D02*
X30919805Y-61241925D01*
X32333298Y-59828432D01*
X32651199Y-60146333D01*
X31237706Y-61559826D01*
X31237706Y-61559826D01*
G37*
G36*
X30671950Y-60994070D02*
X30354049Y-60676169D01*
X31767542Y-59262676D01*
X32085443Y-59580577D01*
X30671950Y-60994070D01*
X30671950Y-60994070D01*
G37*
G36*
X30106194Y-60428313D02*
X29788293Y-60110412D01*
X31201786Y-58696919D01*
X31519687Y-59014820D01*
X30106194Y-60428313D01*
X30106194Y-60428313D01*
G37*
G36*
X29540438Y-59862557D02*
X29222537Y-59544656D01*
X30636030Y-58131163D01*
X30953931Y-58449064D01*
X29540438Y-59862557D01*
X29540438Y-59862557D01*
G37*
G36*
X28974682Y-59296801D02*
X28656781Y-58978900D01*
X30070274Y-57565407D01*
X30388175Y-57883308D01*
X28974682Y-59296801D01*
X28974682Y-59296801D01*
G37*
G36*
X35742203Y-52536464D02*
X35424302Y-52218563D01*
X36837795Y-50805070D01*
X37155696Y-51122971D01*
X35742203Y-52536464D01*
X35742203Y-52536464D01*
G37*
G36*
X39711476Y-56505738D02*
X39393575Y-56187837D01*
X40807068Y-54774344D01*
X41124969Y-55092245D01*
X39711476Y-56505738D01*
X39711476Y-56505738D01*
G37*
G36*
X39136740Y-55931001D02*
X38818839Y-55613100D01*
X40232332Y-54199607D01*
X40550233Y-54517508D01*
X39136740Y-55931001D01*
X39136740Y-55931001D01*
G37*
G36*
X38562003Y-55356265D02*
X38244102Y-55038364D01*
X39657595Y-53624871D01*
X39975496Y-53942772D01*
X38562003Y-55356265D01*
X38562003Y-55356265D01*
G37*
G36*
X38005227Y-54799489D02*
X37687326Y-54481588D01*
X39100819Y-53068095D01*
X39418720Y-53385996D01*
X38005227Y-54799489D01*
X38005227Y-54799489D01*
G37*
G36*
X37430491Y-54224753D02*
X37112590Y-53906852D01*
X38526083Y-52493359D01*
X38843984Y-52811260D01*
X37430491Y-54224753D01*
X37430491Y-54224753D01*
G37*
G36*
X36873715Y-53667977D02*
X36555814Y-53350076D01*
X37969307Y-51936583D01*
X38287208Y-52254484D01*
X36873715Y-53667977D01*
X36873715Y-53667977D01*
G37*
G36*
X36298979Y-53093240D02*
X35981078Y-52775339D01*
X37394571Y-51361846D01*
X37712472Y-51679747D01*
X36298979Y-53093240D01*
X36298979Y-53093240D01*
G37*
G36*
X30063090Y-56473409D02*
X28649597Y-55059916D01*
X28967498Y-54742015D01*
X30380991Y-56155508D01*
X30063090Y-56473409D01*
X30063090Y-56473409D01*
G37*
G36*
X30627050Y-55909449D02*
X29213557Y-54495956D01*
X29531458Y-54178055D01*
X30944951Y-55591548D01*
X30627050Y-55909449D01*
X30627050Y-55909449D01*
G37*
G36*
X31194602Y-55341896D02*
X29781109Y-53928403D01*
X30099010Y-53610502D01*
X31512503Y-55023995D01*
X31194602Y-55341896D01*
X31194602Y-55341896D01*
G37*
G36*
X31758562Y-54777936D02*
X30345069Y-53364443D01*
X30662970Y-53046542D01*
X32076463Y-54460035D01*
X31758562Y-54777936D01*
X31758562Y-54777936D01*
G37*
G36*
X32326114Y-54210384D02*
X30912621Y-52796891D01*
X31230522Y-52478990D01*
X32644015Y-53892483D01*
X32326114Y-54210384D01*
X32326114Y-54210384D01*
G37*
G36*
X32890074Y-53646424D02*
X31476581Y-52232931D01*
X31794482Y-51915030D01*
X33207975Y-53328523D01*
X32890074Y-53646424D01*
X32890074Y-53646424D01*
G37*
G36*
X33457627Y-53078872D02*
X32044134Y-51665379D01*
X32362035Y-51347478D01*
X33775528Y-52760971D01*
X33457627Y-53078872D01*
X33457627Y-53078872D01*
G37*
G36*
X34021587Y-52514912D02*
X32608094Y-51101419D01*
X32925995Y-50783518D01*
X34339488Y-52197011D01*
X34021587Y-52514912D01*
X34021587Y-52514912D01*
G37*
G36*
X36855755Y-63258890D02*
X35442262Y-61845397D01*
X35760163Y-61527496D01*
X37173656Y-62940989D01*
X36855755Y-63258890D01*
X36855755Y-63258890D01*
G37*
G36*
X37412531Y-62702114D02*
X35999038Y-61288621D01*
X36316939Y-60970720D01*
X37730432Y-62384213D01*
X37412531Y-62702114D01*
X37412531Y-62702114D01*
G37*
G36*
X37987268Y-62127378D02*
X36573775Y-60713885D01*
X36891676Y-60395984D01*
X38305169Y-61809477D01*
X37987268Y-62127378D01*
X37987268Y-62127378D01*
G37*
G36*
X38544044Y-61570602D02*
X37130551Y-60157109D01*
X37448452Y-59839208D01*
X38861945Y-61252701D01*
X38544044Y-61570602D01*
X38544044Y-61570602D01*
G37*
G36*
X39100819Y-61013826D02*
X37687326Y-59600333D01*
X38005227Y-59282432D01*
X39418720Y-60695925D01*
X39100819Y-61013826D01*
X39100819Y-61013826D01*
G37*
G36*
X39675556Y-60439090D02*
X38262063Y-59025597D01*
X38579964Y-58707696D01*
X39993457Y-60121189D01*
X39675556Y-60439090D01*
X39675556Y-60439090D01*
G37*
G36*
X40250292Y-59864353D02*
X38836799Y-58450860D01*
X39154700Y-58132959D01*
X40568193Y-59546452D01*
X40250292Y-59864353D01*
X40250292Y-59864353D01*
G37*
G36*
X40825029Y-59289617D02*
X39411536Y-57876124D01*
X39729437Y-57558223D01*
X41142930Y-58971716D01*
X40825029Y-59289617D01*
X40825029Y-59289617D01*
G37*
D13*
X32004000Y-40142000D03*
X32004000Y-47742000D03*
X37846000Y-40142000D03*
X37846000Y-47742000D03*
D12*
X42672000Y-40386000D03*
X42672000Y-42926000D03*
X42672000Y-45466000D03*
X42672000Y-48006000D03*
X42672000Y-50546000D03*
X42672000Y-53086000D03*
X42672000Y-55626000D03*
X42672000Y-58166000D03*
X42672000Y-60706000D03*
X42672000Y-63246000D03*
X42672000Y-65786000D03*
X42672000Y-68326000D03*
M02*
