%FSLAX46Y46*%
G04 Gerber Fmt 4.6, Leading zero omitted, Abs format (unit mm)*
G04 Created by KiCad (PCBNEW (2014-08-08 BZR 5060)-product) date tir 19 aug 2014 17:24:29 CEST*
%MOMM*%
G01*
G04 APERTURE LIST*
%ADD10C,0.150000*%
%ADD11C,0.304800*%
%ADD12O,1.905000X1.651000*%
%ADD13R,1.100000X1.300000*%
%ADD14R,1.300000X1.100000*%
%ADD15R,3.299460X1.699260*%
%ADD16R,0.900000X0.800000*%
%ADD17R,0.800000X0.900000*%
%ADD18R,2.100000X1.900000*%
%ADD19C,1.300000*%
%ADD20C,5.715000*%
%ADD21R,1.650000X1.700000*%
%ADD22O,1.727200X1.727200*%
%ADD23R,3.149600X1.800860*%
%ADD24R,2.895600X1.800860*%
G04 APERTURE END LIST*
D10*
D11*
X69571053Y-67503524D02*
X69412303Y-66233524D01*
X69487899Y-66838286D02*
X68762185Y-66838286D01*
X68845339Y-67503524D02*
X68686589Y-66233524D01*
X67696291Y-67503524D02*
X67613137Y-66838286D01*
X67658495Y-66717333D01*
X67771887Y-66656857D01*
X68013792Y-66656857D01*
X68142304Y-66717333D01*
X67688732Y-67443048D02*
X67817244Y-67503524D01*
X68119625Y-67503524D01*
X68233018Y-67443048D01*
X68278375Y-67322095D01*
X68263256Y-67201143D01*
X68187661Y-67080190D01*
X68059149Y-67019714D01*
X67756768Y-67019714D01*
X67628256Y-66959238D01*
X66985696Y-66656857D02*
X67091529Y-67503524D01*
X67000815Y-66777810D02*
X66932780Y-66717333D01*
X66804267Y-66656857D01*
X66622839Y-66656857D01*
X66509447Y-66717333D01*
X66464089Y-66838286D01*
X66547243Y-67503524D01*
X65398195Y-67503524D02*
X65239445Y-66233524D01*
X65390636Y-67443048D02*
X65519148Y-67503524D01*
X65761052Y-67503524D01*
X65874446Y-67443048D01*
X65927362Y-67382571D01*
X65972719Y-67261619D01*
X65927362Y-66898762D01*
X65851767Y-66777810D01*
X65783732Y-66717333D01*
X65655219Y-66656857D01*
X65413315Y-66656857D01*
X65299922Y-66717333D01*
X64808552Y-66656857D02*
X64612004Y-67503524D01*
X64203791Y-66656857D02*
X64612004Y-67503524D01*
X64770755Y-67805905D01*
X64838791Y-67866381D01*
X64967302Y-67926857D01*
X39091053Y-67503524D02*
X38932303Y-66233524D01*
X39007899Y-66838286D02*
X38282185Y-66838286D01*
X38365339Y-67503524D02*
X38206589Y-66233524D01*
X37216291Y-67503524D02*
X37133137Y-66838286D01*
X37178495Y-66717333D01*
X37291887Y-66656857D01*
X37533792Y-66656857D01*
X37662304Y-66717333D01*
X37208732Y-67443048D02*
X37337244Y-67503524D01*
X37639625Y-67503524D01*
X37753018Y-67443048D01*
X37798375Y-67322095D01*
X37783256Y-67201143D01*
X37707661Y-67080190D01*
X37579149Y-67019714D01*
X37276768Y-67019714D01*
X37148256Y-66959238D01*
X36505696Y-66656857D02*
X36611529Y-67503524D01*
X36520815Y-66777810D02*
X36452780Y-66717333D01*
X36324267Y-66656857D01*
X36142839Y-66656857D01*
X36029447Y-66717333D01*
X35984089Y-66838286D01*
X36067243Y-67503524D01*
X34918195Y-67503524D02*
X34759445Y-66233524D01*
X34910636Y-67443048D02*
X35039148Y-67503524D01*
X35281052Y-67503524D01*
X35394446Y-67443048D01*
X35447362Y-67382571D01*
X35492719Y-67261619D01*
X35447362Y-66898762D01*
X35371767Y-66777810D01*
X35303732Y-66717333D01*
X35175219Y-66656857D01*
X34933315Y-66656857D01*
X34819922Y-66717333D01*
X34328552Y-66656857D02*
X34132004Y-67503524D01*
X33723791Y-66656857D02*
X34132004Y-67503524D01*
X34290755Y-67805905D01*
X34358791Y-67866381D01*
X34487302Y-67926857D01*
D12*
X73152000Y-40386000D03*
X73152000Y-42926000D03*
X73152000Y-45466000D03*
X73152000Y-48006000D03*
X73152000Y-50546000D03*
X73152000Y-53086000D03*
X73152000Y-55626000D03*
X73152000Y-58166000D03*
X73152000Y-60706000D03*
X73152000Y-63246000D03*
X73152000Y-65786000D03*
X73152000Y-68326000D03*
D13*
X66795000Y-64643000D03*
X69095000Y-64643000D03*
X64015000Y-64643000D03*
X61715000Y-64643000D03*
D14*
X61341000Y-50793000D03*
X61341000Y-53093000D03*
X68376800Y-50716800D03*
X68376800Y-53016800D03*
D15*
X62654180Y-45085000D03*
X68155820Y-45085000D03*
X68160820Y-42541000D03*
X62659180Y-42541000D03*
D16*
X66305000Y-57531000D03*
X64505000Y-57531000D03*
X66305000Y-59029600D03*
X64505000Y-59029600D03*
D17*
X70662800Y-41848200D03*
X70662800Y-43648200D03*
X65151000Y-50154000D03*
X65151000Y-51954000D03*
X66446400Y-50154000D03*
X66446400Y-51954000D03*
X63754000Y-50154000D03*
X63754000Y-51954000D03*
D16*
X66305000Y-56007000D03*
X64505000Y-56007000D03*
D18*
X68992500Y-31742000D03*
X61817500Y-31742000D03*
D19*
X62980000Y-34742000D03*
X67830000Y-34742000D03*
D20*
X58905000Y-72263000D03*
X71905000Y-72263000D03*
X58905000Y-36263000D03*
X71905000Y-36263000D03*
D21*
X62870000Y-73441000D03*
D22*
X62870000Y-70901000D03*
X65410000Y-73441000D03*
X65410000Y-70901000D03*
X67950000Y-73441000D03*
X67950000Y-70901000D03*
D12*
X57658000Y-68326000D03*
X57658000Y-65786000D03*
X57658000Y-63246000D03*
X57658000Y-60706000D03*
X57658000Y-58166000D03*
X57658000Y-55626000D03*
X57658000Y-53086000D03*
X57658000Y-50546000D03*
X57658000Y-48006000D03*
X57658000Y-45466000D03*
X57658000Y-42926000D03*
X57658000Y-40386000D03*
D23*
X63284020Y-39591000D03*
D24*
X67408980Y-39591000D03*
D23*
X32804020Y-39591000D03*
D24*
X36928980Y-39591000D03*
D12*
X27178000Y-68326000D03*
X27178000Y-65786000D03*
X27178000Y-63246000D03*
X27178000Y-60706000D03*
X27178000Y-58166000D03*
X27178000Y-55626000D03*
X27178000Y-53086000D03*
X27178000Y-50546000D03*
X27178000Y-48006000D03*
X27178000Y-45466000D03*
X27178000Y-42926000D03*
X27178000Y-40386000D03*
D21*
X32390000Y-73441000D03*
D22*
X32390000Y-70901000D03*
X34930000Y-73441000D03*
X34930000Y-70901000D03*
X37470000Y-73441000D03*
X37470000Y-70901000D03*
D20*
X41425000Y-36263000D03*
X28425000Y-36263000D03*
X41425000Y-72263000D03*
X28425000Y-72263000D03*
D18*
X38512500Y-31742000D03*
X31337500Y-31742000D03*
D19*
X32500000Y-34742000D03*
X37350000Y-34742000D03*
D16*
X35825000Y-56007000D03*
X34025000Y-56007000D03*
D17*
X33274000Y-50154000D03*
X33274000Y-51954000D03*
X35966400Y-50154000D03*
X35966400Y-51954000D03*
X34671000Y-50154000D03*
X34671000Y-51954000D03*
X40182800Y-41848200D03*
X40182800Y-43648200D03*
D16*
X35825000Y-59029600D03*
X34025000Y-59029600D03*
X35825000Y-57531000D03*
X34025000Y-57531000D03*
D15*
X37680820Y-42541000D03*
X32179180Y-42541000D03*
X32174180Y-45085000D03*
X37675820Y-45085000D03*
D14*
X37896800Y-50716800D03*
X37896800Y-53016800D03*
X30861000Y-50793000D03*
X30861000Y-53093000D03*
D13*
X33535000Y-64643000D03*
X31235000Y-64643000D03*
X36315000Y-64643000D03*
X38615000Y-64643000D03*
D12*
X42672000Y-40386000D03*
X42672000Y-42926000D03*
X42672000Y-45466000D03*
X42672000Y-48006000D03*
X42672000Y-50546000D03*
X42672000Y-53086000D03*
X42672000Y-55626000D03*
X42672000Y-58166000D03*
X42672000Y-60706000D03*
X42672000Y-63246000D03*
X42672000Y-65786000D03*
X42672000Y-68326000D03*
M02*
